<svg id="b3a8ede8-fd50-45bf-a94f-b36b68fbda62" data-name="Layer 1" xmlns="http://www.w3.org/2000/svg" viewBox="0 0 139.07 104.5"><path d="M108,38.45,38.46,90.7,108,143,177.54,90.7Zm0,98.34L46.65,90.69,108,44.61l61.4,46.09Z" transform="translate(-38.46 -38.45)" fill="#231f20" fill-rule="evenodd"/><path d="M113,58.2c-3.52-.48-9,.74-11.13,1.39-14.89,4.34-29.75,18-29.75,18l.51.54a91.18,91.18,0,0,1,11.08-8.25C85.14,69,92.17,64.62,97.1,63c9.28-3.06,20.85-2.42,24.73,1.9,1,1.1-2.25-1.5-5.9-2.08a40.86,40.86,0,0,0-17.08.36c-2.67.61-7.72,3-11.31,4.78a8.94,8.94,0,0,1,1.63-.48c3-.56,5.31.68,10.47,2.71,4.13,1.64,13.48,7.13,26.76.21A22.27,22.27,0,0,1,134,68.57C129.17,68.2,123.46,59.64,113,58.2Z" transform="translate(-38.46 -38.45)" fill="#231f20" fill-rule="evenodd"/><path d="M143.67,103a90.24,90.24,0,0,1-10.9,8.42c-1.33.87-8.35,5.41-13.29,7.13-9.23,3.23-20.81,2.79-24.76-1.46-1-1.09,2.27,1.46,5.94,2a40.94,40.94,0,0,0,17.06-.66c2.67-.67,7.68-3.13,11.24-5a9.7,9.7,0,0,1-1.63.51c-3,.62-5.32-.59-10.51-2.53-4.17-1.56-13.61-6.9-26.77.26a22.06,22.06,0,0,1-7.56,2c4.83.29,10.69,8.75,21.17,10,3.52.42,9-.89,11.1-1.58,14.81-4.6,29.43-18.5,29.43-18.5Z" transform="translate(-38.46 -38.45)" fill="#231f20" fill-rule="evenodd"/><path d="M74.62,100.72h8c3.39,0,7.37-1,7.37-5.47,0-2.3-1.3-3.66-3.82-4.17V91a4.27,4.27,0,0,0,3.33-4.41c0-3.25-2.62-4.8-6.15-4.8H74.62Zm5-8H81.2c1.74,0,3.71.19,3.71,2.25s-1.92,2.2-3.76,2.2H79.66Zm0-7.31h1.46c1.68,0,3.3.16,3.3,1.9,0,1.59-1.7,2-3.35,2H79.66Z" transform="translate(-38.46 -38.45)" fill="#231f20" fill-rule="evenodd"/><path d="M91.67,100.72h5V93.24h1.05c1.87,0,2.52.82,3.55,4.07l1.08,3.41h5.26l-1.84-5.15c-1-2.3-1.06-3.73-2.68-4.17v-.05a4.43,4.43,0,0,0,3.63-4.77c0-3.25-2.74-4.77-6.1-4.77h-9Zm5-15.33H98c1.93,0,3.69.33,3.69,2.09,0,2.14-2.06,2.19-3.69,2.19H96.71Z" transform="translate(-38.46 -38.45)" fill="#231f20" fill-rule="evenodd"/><polygon points="70.85 62.27 84.47 62.27 84.47 58.7 75.89 58.7 75.89 54.42 83.72 54.42 83.72 50.84 75.89 50.84 75.89 46.94 84.17 46.94 84.17 43.37 70.85 43.37 70.85 62.27" fill="#231f20" fill-rule="evenodd"/><path d="M140.6,95.9a13.5,13.5,0,0,1-5.14,1.41c-3.69,0-6.32-2.25-6.32-6,0-3.52,2.33-6.12,5.91-6.12a11,11,0,0,1,5.14,1.57l.36-3.8a16,16,0,0,0-5.77-1.51c-6.23-.09-10.84,3.28-10.84,9.86,0,7.15,5.83,9.7,10.86,9.7a16.54,16.54,0,0,0,6.1-1.3Z" transform="translate(-38.46 -38.45)" fill="#231f20" fill-rule="evenodd"/></svg>