<svg id="f3b6172e-18ac-4dd4-b33f-a85e901fe4d9" data-name="Layer 1" xmlns="http://www.w3.org/2000/svg" viewBox="0 0 599.68 262.85"><path d="M551.89,464.3c-32,.81-63.64,5.89-95.54,7.85-18.46,1.14-36.91,1.69-55.14-2.53-24.17-5.61-39-20.34-43.94-44.78-.78-3.88-1.53-7.78-2.18-11.68a2.81,2.81,0,0,1,.5-2.25c.75-.63,1.47,0,1.91.85,11.14,20.94,31.34,27.23,52.33,31.53,30.17,6.19,60.62,4.6,91,1.77,35.26-3.29,70.47-4.41,105.42,2.92,17.24,3.62,33.66,9.37,47.78,20.38a47.29,47.29,0,0,1,11.32,11.83c1.9,3,4.18,4,7.64,4.33,24.9,2.42,47.24,11,65.46,28.62,21.84,21.09,23.64,47.1,5.11,71.17-2.72,3.54-6,6.69-9,10-.66.71-1.13,2.06-2.56,1.25-2-1.16.2-1.86.45-2.6,4.53-13.26,7-26.77,4.3-40.71-3.76-19.48-16.14-32.06-34.22-38.31-31-10.7-62.52-12.2-94.15-2.44-11.1,3.42-21.17,1-27.38-7.27-4.22-5.6-3.15-10.29,3.15-13.31,5.46-2.62,11.27-2.72,17.11-1.87,6.42.94,12.8,2.19,19.23,3a45.36,45.36,0,0,0,10,.2c3.11-.29,5.84-2,6.69-5.17.89-3.39-1.66-5.07-4.15-6.61-13.71-8.5-28.9-12.5-44.7-14.59A237.89,237.89,0,0,0,551.89,464.3Z" transform="translate(-240.95 -410.66)" fill="#030366"/><path d="M511.88,673.51a97.79,97.79,0,0,1,4.74-31.08c9-29,27.5-50.56,53.09-66.15,31.61-19.25,65.74-27.68,102.7-21.76,14.39,2.31,27.49,7.76,37.66,18.77A39,39,0,0,1,718.32,587c-.58.11-1.12.39-1.41.23-22-12.24-45.63-14.09-69.78-10.22C586.61,586.71,543.14,620.73,511.88,673.51Z" transform="translate(-240.95 -410.66)" fill="#030366"/><path d="M661.73,620.58c.06-.11.12-.33.18-.33.44,0,.52.19.18.48C662.05,620.77,661.85,620.64,661.73,620.58Z" transform="translate(-240.95 -410.66)" fill="#6b6b6b"/><polygon points="163.55 232.63 163.59 233.01 163.71 232.65 163.55 232.63" fill="#6b6b6b"/><path d="M241,645.1v-2a10.38,10.38,0,0,0,5.63,1.77,7.24,7.24,0,0,0,4.61-1.26,4.21,4.21,0,0,0,1.57-3.51,4.61,4.61,0,0,0-1-3.17,20.91,20.91,0,0,0-4.58-3.22q-3.94-2.29-5-3.84a6.2,6.2,0,0,1-1-3.57,6,6,0,0,1,2.13-4.66,8.21,8.21,0,0,1,5.7-1.92,14.36,14.36,0,0,1,4.62.78v1.88a11.62,11.62,0,0,0-4.86-1,6.17,6.17,0,0,0-4.18,1.33A4.32,4.32,0,0,0,243,626,4.55,4.55,0,0,0,244,629.2a20.41,20.41,0,0,0,4.56,3.2,16.16,16.16,0,0,1,4.83,3.66,5.9,5.9,0,0,1,1.21,3.68,6.25,6.25,0,0,1-2.07,4.85,8.36,8.36,0,0,1-5.85,1.88,13.28,13.28,0,0,1-3.08-.41A10.05,10.05,0,0,1,241,645.1Z" transform="translate(-240.95 -410.66)"/><path d="M270.81,646.47a11.15,11.15,0,0,1-8.75-3.64,13.7,13.7,0,0,1-3.26-9.49q0-6.2,3.35-9.93a11.69,11.69,0,0,1,9.15-3.73,10.9,10.9,0,0,1,8.48,3.59,13.48,13.48,0,0,1,3.24,9.4q0,6.44-3.32,10.12A11.38,11.38,0,0,1,270.81,646.47Zm.18-25.16a9.51,9.51,0,0,0-7.43,3.27,12.35,12.35,0,0,0-2.92,8.56,12.51,12.51,0,0,0,2.76,8.52,9.32,9.32,0,0,0,7.38,3.17,9.68,9.68,0,0,0,7.6-3.13c1.87-2.09,2.8-5,2.8-8.74s-.91-6.52-2.74-8.57A9.42,9.42,0,0,0,271,621.31Z" transform="translate(-240.95 -410.66)"/><path d="M306,635.67q0,10.8-9.22,10.8-8.76,0-8.76-10.4v-16h1.77v15.7q0,9,7.34,9,7.09,0,7.1-8.76v-16H306Z" transform="translate(-240.95 -410.66)"/><path d="M320.7,621.76V646h-1.77V621.76h-7.48v-1.64h16.73v1.64Z" transform="translate(-240.95 -410.66)"/><path d="M351.39,646V633.59H336.55V646h-1.79v-25.9h1.79V632h14.84V620.12h1.77V646Z" transform="translate(-240.95 -410.66)"/><path d="M361.56,646v-25.9h12.11v1.64H363.35v10.39h9.57v1.62h-9.57V644.4h10.91V646Z" transform="translate(-240.95 -410.66)"/><path d="M396.94,646,394,638H382.73l-3,8.06h-2l9.78-25.9h1.69l9.67,25.9ZM389,624.34a7.57,7.57,0,0,1-.33-1.06c-.08-.3-.17-.61-.27-.91h-.07a19.55,19.55,0,0,1-.6,1.94l-4.35,12h10Z" transform="translate(-240.95 -410.66)"/><path d="M404.83,645.1v-2a10.41,10.41,0,0,0,5.64,1.77,7.21,7.21,0,0,0,4.6-1.26,4.22,4.22,0,0,0,1.58-3.51,4.62,4.62,0,0,0-1.06-3.17,20.91,20.91,0,0,0-4.58-3.22q-3.94-2.29-5-3.84a6.19,6.19,0,0,1-1-3.57,6,6,0,0,1,2.13-4.66,8.17,8.17,0,0,1,5.69-1.92,14.36,14.36,0,0,1,4.62.78v1.88a11.55,11.55,0,0,0-4.86-1,6.17,6.17,0,0,0-4.18,1.33,4.31,4.31,0,0,0-1.54,3.4,4.55,4.55,0,0,0,1.05,3.16,20.93,20.93,0,0,0,4.56,3.2,16.1,16.1,0,0,1,4.84,3.66,6,6,0,0,1,1.2,3.68,6.25,6.25,0,0,1-2.07,4.85,8.35,8.35,0,0,1-5.84,1.88,13.21,13.21,0,0,1-3.08-.41A10,10,0,0,1,404.83,645.1Z" transform="translate(-240.95 -410.66)"/><path d="M431.06,621.76V646h-1.77V621.76h-7.48v-1.64h16.73v1.64Z" transform="translate(-240.95 -410.66)"/><path d="M445.33,646v-25.9h12.1v1.64H447.12v10.39h9.57v1.62h-9.57V644.4H458V646Z" transform="translate(-240.95 -410.66)"/><path d="M479.33,646l-3.45-7.59a8.31,8.31,0,0,0-2.13-3.15,4.34,4.34,0,0,0-2.67-.8h-3.22V646h-1.79v-25.9h7.19a7.49,7.49,0,0,1,5.39,1.85,6.39,6.39,0,0,1,2,4.88,7,7,0,0,1-1.61,4.68,7.46,7.46,0,0,1-4.5,2.42V634c1,.41,2,1.65,3,3.74l3.85,8.25Zm-11.47-24.26v11.09h4.46A6.84,6.84,0,0,0,477,631.3a5.44,5.44,0,0,0,1.74-4.27,4.9,4.9,0,0,0-1.57-3.87,6.57,6.57,0,0,0-4.5-1.4Z" transform="translate(-240.95 -410.66)"/><path d="M504.93,646,489.5,625.08a13,13,0,0,1-.83-1.26l-.23-.36h-.07q0,.46,0,1.14V646h-1.79v-25.9H488l15.32,20.75c.33.46.7,1,1.1,1.67h.09c-.06-.85-.09-1.57-.09-2.17V620.12h1.79V646Z" transform="translate(-240.95 -410.66)"/><path d="M581.54,646l-3.45-7.59a8.2,8.2,0,0,0-2.14-3.15,4.34,4.34,0,0,0-2.67-.8h-3.21V646h-1.79v-25.9h7.19a7.52,7.52,0,0,1,5.39,1.85,6.38,6.38,0,0,1,2,4.88,7,7,0,0,1-1.61,4.68,7.46,7.46,0,0,1-4.5,2.42V634c1,.41,2,1.65,3,3.74l3.85,8.25Zm-11.47-24.26v11.09h4.46a6.83,6.83,0,0,0,4.7-1.55A5.41,5.41,0,0,0,581,627a4.93,4.93,0,0,0-1.57-3.87,6.57,6.57,0,0,0-4.5-1.4Z" transform="translate(-240.95 -410.66)"/><path d="M605.69,646l-3-8.06H591.49l-3,8.06h-2l9.77-25.9H598L607.7,646Zm-8-21.68a9.09,9.09,0,0,1-.32-1.06l-.27-.91h-.08a17.45,17.45,0,0,1-.59,1.94l-4.36,12h10Z" transform="translate(-240.95 -410.66)"/><path d="M616.26,635.63V646h-1.79v-25.9h6.25a9,9,0,0,1,6.11,1.85,6.79,6.79,0,0,1,2.11,5.41,7.92,7.92,0,0,1-2.36,5.93,9,9,0,0,1-6.6,2.32Zm0-13.87V634H620a7.67,7.67,0,0,0,5.33-1.67,6.1,6.1,0,0,0,1.82-4.73q0-5.83-6.7-5.83Z" transform="translate(-240.95 -410.66)"/><path d="M641.62,621.76V646h-1.76V621.76h-7.48v-1.64h16.73v1.64Z" transform="translate(-240.95 -410.66)"/><path d="M661.66,646.47a11.15,11.15,0,0,1-8.75-3.64,13.7,13.7,0,0,1-3.26-9.49q0-6.2,3.35-9.93a11.69,11.69,0,0,1,9.15-3.73,10.9,10.9,0,0,1,8.48,3.59,13.48,13.48,0,0,1,3.24,9.4q0,6.44-3.32,10.12A11.38,11.38,0,0,1,661.66,646.47Zm.18-25.16a9.51,9.51,0,0,0-7.43,3.27,12.35,12.35,0,0,0-2.92,8.56,12.51,12.51,0,0,0,2.76,8.52,9.31,9.31,0,0,0,7.37,3.17,9.68,9.68,0,0,0,7.61-3.13c1.87-2.09,2.8-5,2.8-8.74s-.91-6.52-2.74-8.57A9.42,9.42,0,0,0,661.84,621.31Z" transform="translate(-240.95 -410.66)"/><path d="M692.43,646,689,638.43a8.31,8.31,0,0,0-2.13-3.15,4.37,4.37,0,0,0-2.68-.8H681V646h-1.79v-25.9h7.19a7.51,7.51,0,0,1,5.39,1.85,6.38,6.38,0,0,1,2,4.88,6.9,6.9,0,0,1-1.61,4.68,7.46,7.46,0,0,1-4.49,2.42V634c1,.41,2,1.65,3,3.74l3.85,8.25ZM681,621.76v11.09h4.46a6.83,6.83,0,0,0,4.7-1.55,5.41,5.41,0,0,0,1.75-4.27,4.93,4.93,0,0,0-1.57-3.87,6.57,6.57,0,0,0-4.5-1.4Z" transform="translate(-240.95 -410.66)"/><path d="M732.21,645.17a17,17,0,0,1-6.56,1.3,11.33,11.33,0,0,1-8.66-3.56,13,13,0,0,1-3.35-9.32q0-6.3,3.63-10.11a12.23,12.23,0,0,1,9.23-3.8,17.07,17.07,0,0,1,5.71,1v1.9a13.81,13.81,0,0,0-5.74-1.23,10.32,10.32,0,0,0-7.94,3.3,12.5,12.5,0,0,0-3,8.8q0,5.3,2.92,8.36a9.77,9.77,0,0,0,7.4,3.06,14.34,14.34,0,0,0,6.41-1.39Z" transform="translate(-240.95 -410.66)"/><path d="M738,646v-25.9h12.11v1.64H739.76v10.39h9.58v1.62h-9.58V644.4h10.91V646Z" transform="translate(-240.95 -410.66)"/><path d="M776.69,646l-15.43-20.94a13,13,0,0,1-.83-1.26l-.23-.36h-.08c0,.31,0,.69,0,1.14V646h-1.79v-25.9h1.38l15.32,20.75c.33.46.7,1,1.1,1.67h.09c-.06-.85-.09-1.57-.09-2.17V620.12H778V646Z" transform="translate(-240.95 -410.66)"/><path d="M791.63,621.76V646h-1.77V621.76h-7.48v-1.64h16.73v1.64Z" transform="translate(-240.95 -410.66)"/><path d="M838.61,646l-3.45-7.59a8.31,8.31,0,0,0-2.13-3.15,4.37,4.37,0,0,0-2.68-.8h-3.21V646h-1.79v-25.9h7.19a7.51,7.51,0,0,1,5.39,1.85,6.38,6.38,0,0,1,2,4.88,6.9,6.9,0,0,1-1.61,4.68,7.46,7.46,0,0,1-4.49,2.42V634c1,.41,2,1.65,3,3.74l3.85,8.25Zm-11.47-24.26v11.09h4.46a6.83,6.83,0,0,0,4.7-1.55,5.41,5.41,0,0,0,1.75-4.27,4.93,4.93,0,0,0-1.57-3.87,6.57,6.57,0,0,0-4.5-1.4Z" transform="translate(-240.95 -410.66)"/><path d="M806.09,646v-25.9H818.2v1.64H807.88v10.39h9.58v1.62h-9.58V644.4h10.91V646Z" transform="translate(-240.95 -410.66)"/></svg>