<svg id="b8e6c541-8372-4a45-9d53-4d552c9d1145" data-name="Layer 1" xmlns="http://www.w3.org/2000/svg" viewBox="0 0 426.82 511.8"><path d="M549.22,284.27c.33,2.83-2.12,2.56-3.64,3.1a159.63,159.63,0,0,0-48.06,26.93c-20.83,17-23.64,40.77-7.38,62.17,6.93,9.12,16,15.93,25,22.79,9.66,7.36,19.53,14.41,28.28,22.94,19,18.53,13.3,44.1-1.33,57.71-9.21,8.57-20,14.87-30.62,21.4-17.64,10.82-34.85,22.14-48.28,38.28a157.92,157.92,0,0,0-12.35,17.93c-14.14-16.73-24.13-35.25-29.64-56.14a127.38,127.38,0,0,1-4.11-33.07q.18-81.43-.05-162.88c0-4.35.93-6.25,5.46-7.36a519.28,519.28,0,0,1,80.69-12.79c1.36-.11,3.06.75,4-1Z" transform="translate(-326.31 -284.27)" fill="#015bb7"/><path d="M753.13,667.12c-10.63,19.53-21.32,39-31.84,58.63-1.48,2.77-2.91,4.72-6.37,4-3.85-.77-8.76,2.18-11.07-3.77-1.36-3.5-3.55-6.67-5.75-10.69-2.26,4.16-4.33,7.65-6.06,11.3-1.16,2.43-2.8,2.94-5.4,3.28-7.07.93-10.84-1.69-14.07-8.2-8.49-17.12-17.93-33.76-27-50.59-.77-1.43-1.48-2.89-2.24-4.36a6.88,6.88,0,0,1,1.1-.53c9.41-2.11,14.49,2,18.45,10.61C669,690,676.48,702.6,683.67,716c2.38-4.39,4.29-8.25,6.53-11.92,1.29-2.1,0-3.44-.79-5-5-9.37-10.12-18.72-15.11-28.11-.74-1.41-2-2.67-1.78-4.79,3.64,0,7.26.17,10.87-.06,2.44-.15,3,1.48,3.88,3.07q11,20.41,22,40.82c.93,1.74,1.89,3.48,3.23,5.94,5.33-9.85,10.34-19.09,15.33-28.32,3.08-5.71,6.38-11.32,9.11-17.19,1.58-3.37,3.55-4.73,7.24-4.34a81.52,81.52,0,0,0,9,0Z" transform="translate(-326.31 -284.27)" fill="#252122"/><path d="M326.31,719.1c3.22-1.83,3.76-7.28,7.29-7.4,3.07-.1,6.15,2.95,9.37,4.24a55.06,55.06,0,0,0,31.81,3.17,16.3,16.3,0,0,0,2.41-.59c4.14-1.51,8.67-3.06,8.22-8.56s-5.3-6.27-9.62-6.76c-9.92-1.14-19.86-2-29.78-3.05a33,33,0,0,1-6.31-1.47c-5.41-1.71-9.48-4.81-10.5-10.81-1.08-6.39.28-12.09,5.61-16.07a30.08,30.08,0,0,1,20.71-6.12c6.5.39,13.13-1.06,19.75.37a55.75,55.75,0,0,1,20.08,8.37,4.41,4.41,0,0,1-.42,1c-5.81,7.49-5.81,7.49-14.54,4.27a56.44,56.44,0,0,0-29.44-3,26.31,26.31,0,0,0-6.09,2.1,4.6,4.6,0,0,0-3,4.75,4.9,4.9,0,0,0,3.41,4c4.22,1.7,8.69,2.13,13.17,2.38,8.47.49,17,.61,25.21,3,10.43,3,14.7,7.65,15.06,16.07.37,8.73-4,16.11-13.36,18.86-20.63,6.09-40.73,5.37-59.05-7.68Z" transform="translate(-326.31 -284.27)" fill="#252122"/><path d="M605.2,767.08c0,1,0,2,0,3l-1,.95c-5.61.08-11.22.18-16.83.21-6.66,0-6.66,0-6.12,6.62.23.58.48,1.06,1,.16a74,74,0,0,1,14,0c.24.58.56.7,1,.16,1.5,4.79,1.47,4.87-2.68,5-2.63.06-5.26,0-7.88,0-6.35,0-7.27,1.64-4.43,7.87a31.48,31.48,0,0,0,18,0,9.7,9.7,0,0,1,5,0c0,1.68,0,3.37,0,5.05h-30l.12-29,.86-.9h28Z" transform="translate(-326.31 -284.27)" fill="#252122"/><path d="M453.26,796.07c-1.23-1.85.57-3,1.2-4.23,3.75-7.37,7.8-14.59,11.51-22,1.33-2.67,3.19-3.59,6-4,3.14-.4,4,1.66,5,3.72,4.19,8.93,9.95,17.08,13.29,26.43h-6l-3.95-6.83c-.34-.68-.71-.8-1.09,0-3.75.11-7.55.66-11.24.23-5.35-.62-7.82,1.78-8.71,6.63Zm24.64-12.15-6.37-12-6.27,12Z" transform="translate(-326.31 -284.27)" fill="#252122"/><path d="M432.27,796.07c-4.09-10-10.3-18.87-14.72-28.67,4.52-1.41,7.06.13,9,4.36,2.65,5.88,6,11.41,9.41,17.62,3.6-6.68,7-13,10.38-19.21.76-1.38,1.12-3.34,3.35-3.13,1.26.12,2.79-.67,3.68.74.76,1.21-.27,2.19-.79,3.18q-6.63,12.57-13.29,25.11Z" transform="translate(-326.31 -284.27)" fill="#252122"/><path d="M628.19,796.07c1.44-5.91,2-11.43-3.27-16.21-4-3.64-7.31-8-11.24-12.39,4.53-1,7.75-.62,10.44,3,2.22,3,5.15,5.47,7.77,8.17,2.63-2.76,5.6-5.27,7.8-8.34,2.5-3.48,5.3-4.35,9.51-2.65a39.24,39.24,0,0,1-8.64,10.05c-6,5.11-6.81,11.3-5.38,18.36Z" transform="translate(-326.31 -284.27)" fill="#252122"/><path d="M537.22,796.07V767c6.35-1.41,6.36,2.28,6.1,6.59s.19,8.64-.13,12.94c-.27,3.62,1.13,4.51,4.48,4.28,4-.26,8,.28,11.94-.14,4.37-.46,6.92.55,6.6,5.43Z" transform="translate(-326.31 -284.27)" fill="#252122"/><path d="M505.24,767.08c.08,6.39.14,12.78.26,19.17,0,1.59-.48,3.3.76,4.72.64,1.11,1.3,1.17,2,0h1.95a29.62,29.62,0,0,0,17,.06c1.91,1.35.5,3.37,1,5h-28a235,235,0,0,1-.12-29l1.1-1h3Z" transform="translate(-326.31 -284.27)" fill="#252122"/><path d="M605.2,796.07c0-1.68,0-3.37,0-5.05,2.48,1.25.82,3.34,1,5.05Z" transform="translate(-326.31 -284.27)" fill="#090103"/><path d="M652.09,484.2c-5.42,40.06-25.75,71.35-56.76,96.31-17.24,13.87-36.59,24.06-57,32.37a7.59,7.59,0,0,1-6.18.2,287.31,287.31,0,0,1-35.36-17.25c-2.05-1.19-2.47-2.37-2.12-4.77,2.95-20.21,15.41-34.14,30.32-46.48,13.32-11,27.78-20.69,40-33,13-13.1,22-28.2,24.25-46.92,3.14-26-6.52-46.41-26.37-62.69-13.2-10.82-28.57-18.22-42.69-27.59a103.37,103.37,0,0,1-10.79-8c-13.56-11.83-14.94-27.93-3.83-42.16,9.63-12.35,22.34-20.74,35.91-28,7-3.78,14.41-6.78,21.75-9.89,4.35-1.83,8.57-.42,12.78-.05a421,421,0,0,1,72.16,12.26,1.73,1.73,0,0,0,2.11.7h0c.21.59.53.61.92.15,2.59.48,1.65,2.57,1.65,4q.07,85.18,0,170.38a44.71,44.71,0,0,1-.45,4.45C650.65,480.07,651,482.12,652.09,484.2Z" transform="translate(-326.31 -284.27)" fill="#092d6b"/><path d="M448.35,664.21a47.65,47.65,0,0,1,19,4.24c13.66,6.42,20.86,18.25,19.85,32.23-.93,12.92-10.2,24-23.87,28.41a32.46,32.46,0,0,1-5.32,1.28c-2.74.4-4.76,1.18-4.12,4.61.42,2.23-.84,2.92-2.92,2.81a48.47,48.47,0,0,0-6.49,0c-2.42.19-3.48-.74-3.06-3.13.52-3-1.17-3.42-3.61-3.83a46.92,46.92,0,0,1-9.59-2.6c-14.29-5.67-22.3-17.26-21.9-31.34.39-13.29,9.62-25,23.51-29.8A54.29,54.29,0,0,1,448.35,664.21Zm-2.18,11.63a31.56,31.56,0,0,0-16.67,4.42c-8.25,5-12,13.64-9.89,22.61,2,8.37,10.79,15.8,19.4,16.34.88,0,2.43.68,2.26-.83-.56-4.85,2.8-4.11,5.42-3.78,2.83.35,7.59-2.44,7.42,3.93,0,.8,1.4.63,2.18.43,7.62-2,13.94-5.8,16.78-13.49s1.79-14.8-3.85-20.91C463,677.84,455,675.81,446.17,675.84Z" transform="translate(-326.31 -284.27)" fill="#252122"/><path d="M653.61,729.11a5.38,5.38,0,0,1-1,.54c-8.71,1.77-15.07-.58-17.55-9.9-.8-3-2.84-3.86-6-3.8q-16,.31-31.93,0c-2.94-.05-4.82.78-5.62,3.53-2.68,9.26-8.59,12.69-18.3,9.62-.67-1,.76-2,1.29-3,9.8-18.65,19.75-37.22,29.45-55.92,1.6-3.09,3.5-3.77,6.82-4.2,7.45-1,11,2.2,14.24,8.67C634.14,692.93,644,710.81,653.61,729.11ZM606.16,705a37.67,37.67,0,0,0,20.07,0c0-.63.28-1.37,0-1.85-4.14-8-8.34-15.95-12.9-24.63-4.41,9.32-10.09,17.2-13.13,26.44.62,1.15,1.28,1.23,2,.07A6,6,0,0,1,606.16,705Z" transform="translate(-326.31 -284.27)" fill="#252122"/><path d="M498.32,667.14c3.31-2.11,6.95-.74,10.41-.82,2.64-.06,1.54,2.49,1.55,3.88.1,11.15.05,22.3.06,33.46,0,8.67,2.71,12.69,10.9,14.88a45.39,45.39,0,0,0,26.54-.47c6.84-2.28,9.35-5.87,9.36-12.91,0-11.65.14-23.31-.07-34.95-.06-3.34,1-4.59,4.16-4,2.63.47,5.5-1.06,7.94.95-1.1.81-1,2-1,3.16V706c0,1.15-.1,2.35,1,3.12,0,1-.09,2-.13,3-.14.07-.39.16-.38.21a4.26,4.26,0,0,0,.25.71c-1.1,6.06-5,10.2-10.14,12.76-16.83,8.3-33.86,8.27-50.57-.3-5.62-2.88-9.59-7.59-10-14.44.13-.09.38-.24.37-.27a5.77,5.77,0,0,0-.4-.68l-.08-2c.34-.72,1-1.43,1-2.14q.09-18.32,0-36.64A6.5,6.5,0,0,0,498.32,667.14Z" transform="translate(-326.31 -284.27)" fill="#252122"/><path d="M667.48,311.18c-2.82-3.19,1.95-9.06-4.15-10.86h8.32C665.36,302,670.21,308,667.48,311.18Z" transform="translate(-326.31 -284.27)" fill="#252122"/><path d="M682.7,311c1-3-2.66-3.86-2.45-6.42a11.05,11.05,0,0,1,1.16-3.71,2.26,2.26,0,0,1,1.62-.78c1.09-.12,1.33.67,1.33,1.58v9.18Z" transform="translate(-326.31 -284.27)" fill="#252122"/><path d="M569.26,709.12c-1.15-.77-1-2-1-3.12V670.3c0-1.15-.14-2.35,1-3.16Z" transform="translate(-326.31 -284.27)" fill="#090103"/><path d="M498.32,667.14a6.5,6.5,0,0,1,.88,2.19q.09,18.31,0,36.64c0,.71-.62,1.42-1,2.14Z" transform="translate(-326.31 -284.27)" fill="#090103"/><path d="M674.89,305.12c-.2,1.83.6,3.81-1.07,6.34-1.18-3.76-.48-6.9-.64-9.94,0-1,.44-1.48,1.47-1.41,2.14.13,1.52,2.17,2.27,3.26l-2.42-.72C674.29,303.53,673.86,304.44,674.89,305.12Z" transform="translate(-326.31 -284.27)" fill="#090103"/><path d="M600.22,791a31.48,31.48,0,0,1-18,0Z" transform="translate(-326.31 -284.27)" fill="#090103"/><path d="M527.23,791.07a29.62,29.62,0,0,1-17-.06Z" transform="translate(-326.31 -284.27)" fill="#090103"/><path d="M674.89,305.12c-1-.68-.6-1.59-.39-2.47l2.42.72c.6,1.25,2.13,2.84.79,3.83C675.76,308.64,676.61,304.86,674.89,305.12Z" transform="translate(-326.31 -284.27)" fill="#354d81"/><path d="M652.09,484.2c-1.06-2.08-1.44-4.13.31-6.07C652.91,480.18,652.36,482.19,652.09,484.2Z" transform="translate(-326.31 -284.27)" fill="#354d81"/><path d="M650.28,299.15a1.73,1.73,0,0,1-2.11-.7Z" transform="translate(-326.31 -284.27)" fill="#354d81"/><path d="M508.26,791c-.7,1.13-1.36,1.07-2,0Z" transform="translate(-326.31 -284.27)" fill="#090103"/><path d="M651.18,299.29c-.39.46-.71.44-.92-.15A.76.76,0,0,1,651.18,299.29Z" transform="translate(-326.31 -284.27)" fill="#354d81"/><path d="M498.31,710.12a5.77,5.77,0,0,1,.4.68s-.24.18-.37.27A1,1,0,0,1,498.31,710.12Z" transform="translate(-326.31 -284.27)" fill="#090103"/><path d="M501.22,766.16l-1.1,1C500,766.21,500.52,766.1,501.22,766.16Z" transform="translate(-326.31 -284.27)" fill="#090103"/><path d="M505.24,767.08l-1-.93C505,766.07,505.39,766.27,505.24,767.08Z" transform="translate(-326.31 -284.27)" fill="#090103"/><path d="M569,713.05a4.26,4.26,0,0,1-.25-.71c0-.05.24-.14.38-.21A.84.84,0,0,1,569,713.05Z" transform="translate(-326.31 -284.27)" fill="#090103"/><path d="M576.19,766.15l-.86.9C575.15,766.3,575.5,766.06,576.19,766.15Z" transform="translate(-326.31 -284.27)" fill="#090103"/><path d="M605.2,767.08l-1-.93C604.92,766.06,605.31,766.31,605.2,767.08Z" transform="translate(-326.31 -284.27)" fill="#090103"/><path d="M604.21,771l1-.95C605.3,770.85,604.94,771.13,604.21,771Z" transform="translate(-326.31 -284.27)" fill="#090103"/><path d="M582.22,778c-.48.9-.73.42-1-.16A1.52,1.52,0,0,1,582.22,778Z" transform="translate(-326.31 -284.27)" fill="#090103"/><path d="M597.17,778.18c-.43.54-.75.42-1-.16Z" transform="translate(-326.31 -284.27)" fill="#090103"/><path d="M480.3,789.24l-1.09,0C479.59,788.44,480,788.56,480.3,789.24Z" transform="translate(-326.31 -284.27)" fill="#090103"/><path d="M606.16,705l20.07,0A37.67,37.67,0,0,1,606.16,705Z" transform="translate(-326.31 -284.27)" fill="#090103"/><path d="M600.24,705l2,.07C601.52,706.18,600.86,706.1,600.24,705Z" transform="translate(-326.31 -284.27)" fill="#090103"/></svg>