<svg id="a0ae29a3-34a7-463c-bd99-37d47a83f00d" data-name="Layer 1" xmlns="http://www.w3.org/2000/svg" viewBox="0 0 850.54 265.81"><path d="M775.28,460.6c10,2.57,18.43,7.36,24.06,16.35,1.72,2.75,3,.9,3.94-.65,2.24-3.53,3.87-3,6,.28,8.38,12.95,8.45,12.9-.91,25.1-8,10.42-16.06,20.79-23.92,31.31-2.29,3.07-4,3.69-6.2.13a24.7,24.7,0,0,0-3.1-3.9c-3.63-3.79-6-6.71-2.35-12.91,3.83-6.48,2.36-14.58-1.26-21.57-2-3.79-5.17-6.11-9.57-6.14s-7.27,2.61-9.22,6.47a34.24,34.24,0,0,0-3.39,14.45c-.84,25.44,3,50,13.95,73.26A48.9,48.9,0,0,0,776,599.87c9.08,7.61,19.06,7.43,27.94-.42A55.83,55.83,0,0,0,815.4,585.1c1.58-2.76,2.93-3.46,4.87-.39a23.32,23.32,0,0,0,3.55,4.8c7.09,6.51,6.27,13.19,2,21.11-7.52,13.88-15.92,26.81-31.44,32.52-28.24,10.4-55.84,2.47-69.77-26.71-16.87-35.35-18.45-72.51-6-109.68,6.38-19.05,18.28-34.19,37.23-42.81,2.49-1.13,5.59-.89,7.47-3.34Z" transform="translate(-146.67 -460.6)" fill="#b22c2d"/><path d="M244.42,460.6c-.62,17.94-1.29,35.89-1.84,53.83-.07,2.42-1,3-3.28,3.15-10.15.6-10.18.68-11.54-9.26-.85-6.2-2.18-12.19-7.77-16-4.44-3-5.5-2.53-6,2.62q-4.38,49.68-8.71,99.37c-.82,9.25-1.69,18.49-2.6,28.49,3.16-1.35,5.75-2.28,8.17-3.53,3-1.55,3.57-.22,3.29,2.42-.68,6.28-1.39,12.55-2.05,18.84a4.48,4.48,0,0,1-2.74,3.82c-16.65,8.25-33.31,16.47-49.89,24.86-3.35,1.7-4.48,1.18-4.17-2.6.52-6.3,1.13-12.6,1.24-18.91.07-4,2.87-5.07,5.53-6.12,3.25-1.28,4.28-3.22,4.54-6.69,2.73-36.64,5.7-73.26,8.56-109.89.81-10.25,1.5-20.51,2.26-31.08-5.95.82-8.79,4.81-11.21,9.21a47.34,47.34,0,0,0-5.5,18.5c-.39,4.32-2.23,5.37-6,4.87-2.43-.31-5,.55-7.3-.94-1.64-1.06-.18-19.14-.11-21.86.31-12.61,1.64-25.25,2.09-37.89.06-1.78-.46-3.69,1-5.2h13c1.15,3.88,3.62,5,7.72,4.95,16.47-.26,33-.3,49.42,0,5.24.11,9.42-1.1,12.85-5Z" transform="translate(-146.67 -460.6)" fill="#b22c2d"/><path d="M594.33,460.6c.65,16.79,1.2,33.59,2,50.38.2,4-.72,6-5.08,5.39a12.44,12.44,0,0,0-3.5,0c-3.07.39-4.42-.59-4.66-4-.42-6-2-11.81-5.64-16.78a19,19,0,0,0-3.76-3.93c-2-1.5-4.51-3.38-6.76-2.37-2.07.94-.82,3.93-.84,6-.32,40.12-.48,80.25-.93,120.37-.06,4.72,1.34,5.85,5.84,5.7,8.92-.31,7.13-.53,7.27,7,.07,3.66-.11,7.33.06,11,.14,2.93-.76,4.16-3.93,4.14q-29.24-.16-58.47,0c-2.82,0-3.78-.94-3.67-3.77.21-5,.18-10,0-15-.08-2.62.94-3.37,3.48-3.51,10.53-.57,10.51-.65,10.54-11.33q.12-57.71.23-115.4c0-1.68,1.08-4-.92-5s-3.85.54-5.46,1.69c-7.06,5.07-9.1,12.78-10.76,20.67-.35,1.69.28,4.29-2.22,4.37-3.76.12-7.64,1-11.29-.58-.44-.19-.61-1.49-.56-2.26,1-17.59,1.22-35.23,3-52.78h14c1.84,4.46,5.19,5.35,9.84,5.26,16.27-.31,32.54-.27,48.81,0,4.22.07,6.59-1.13,7.33-5.26Z" transform="translate(-146.67 -460.6)" fill="#b22c2d"/><path d="M742.29,726.41c-9.72-4.48-12-12.83-11.73-22.51.25-8.14-.64-16.31.62-24.42,1.45-9.4,6.86-14.27,16-14.4,9.6-.15,14.66,4,16.57,13.66a24.75,24.75,0,0,1,.4,3c.63,8.08.62,7.87-7.46,8-3.68.08-4.59-1.24-4.33-4.59a24.44,24.44,0,0,0-.45-6.93c-.45-2.19-1.68-4-4.42-3.91-2.39.07-3.64,1.46-4.23,3.54a17,17,0,0,0-.78,4.39c-.08,8.82-.06,17.64,0,26.46a16.54,16.54,0,0,0,.31,3c.52,2.77,1.62,5.46,4.83,5.38,3.47-.09,4.5-2.89,4.72-6,0-.66.11-1.33.14-2,.42-8.63,1.28-9.33,9.61-8.21,1.33.18,2.2.35,2.21,1.93,0,6.2-.27,12.28-3.86,17.72-2.22,3.36-5.72,4.51-9.16,5.88Z" transform="translate(-146.67 -460.6)" fill="#0a0d0a"/><path d="M586.33,726.41a19,19,0,0,1-11.68-14.32c-.54-2.61-.24-4.17,2.69-4.43a8.71,8.71,0,0,0,2-.32c4.39-1.42,7.86-1.89,7.6,4.73-.1,2.44,1.11,5.75,4.77,5s3-4.09,2.5-6.58c-1-5-4.58-8.33-8.32-11.46-4.86-4.06-9.76-8.09-11.24-14.77-1.88-8.49,2.85-16.7,10.87-18.68,9.66-2.39,18,2.34,20.22,11.25.83,3.29.24,5.11-3.37,5.36a16.19,16.19,0,0,0-4,.44c-3.68,1.18-5.14.1-4.91-3.86.14-2.21-.7-4.51-3.56-4.48-3.13,0-3.61,2.42-3.71,4.9a9.41,9.41,0,0,0,2.77,7.25c1.4,1.41,3,2.65,4.43,4a90.44,90.44,0,0,1,7.16,6.95c9.65,11.34,7,23.29-6.23,29Z" transform="translate(-146.67 -460.6)" fill="#0a0d0a"/><path d="M997.22,669.45c-1.84-.14-4,.42-3.07-3,.56-1.94.1-4.16-.65-6.42-1.36,3.07-2.71,6.14-4.22,9.54-3-2.28-2.16-6.26-4.79-8.21-1.81,2-.75,4.76-2.14,7.82-1.68-4.44-.78-8.17-1-11.8,0-1,.59-1.49,1.52-1.63a2,2,0,0,1,2.36,1.35c1.07,2.54,2.17,5.06,3.34,7.78,3.44-2.63,1.64-10,8.61-8.43Z" transform="translate(-146.67 -460.6)" fill="#b22c2d"/><path d="M915.28,621.27c-1.16-14.3-2.25-27.88-3.35-41.45-.64-7.79-1.38-15.58-1.87-23.38-.21-3.35-1.1-5-5-4.86-7.48.33-15,.2-22.48.07-2.77,0-3.82.67-3.59,3.68q2.34,29.85,4.36,59.72c.19,2.71,1.26,4,4,3.49,4-.73,5.31,1.37,5.54,5,.36,5.47.85,10.94,1.38,16.4.24,2.54-.55,3.52-3.28,3.5q-25.23-.1-50.46.11c-3.2,0-4-1.46-4.13-4.17-.28-5.48-.54-11-1.07-16.43-.33-3.27.71-4.82,4.06-4.34s4.3-.71,4.05-4.1c-1.64-21.73-3.06-43.47-4.62-65.2-1.37-19.24-2.94-38.47-4.18-57.71-.23-3.59-1.16-5.29-4.91-4.69-3,.47-4.25-.94-4.42-3.83-.33-5.64-.7-11.28-1.2-16.91-.23-2.55.53-3.58,3.24-3.57q24,.12,48,0c2.8,0,3.71,1.2,3.9,3.87.39,5.64,1,11.27,1.67,16.88.32,2.58-.4,4-3.1,3.56-4.48-.79-4.89,1.64-4.57,5.11.85,9.44,1.67,18.88,2.31,28.34.21,3.15,1.35,4.18,4.56,4.08,7.83-.25,15.66-.22,23.48,0,3.23.08,3.95-1.08,3.67-4.08-.86-9.61-1.55-19.24-2.18-28.87-.21-3.19-1.27-5.06-4.83-4.52-3,.44-4.06-.83-4.2-3.86-.26-5.48-.9-10.94-1.51-16.39-.29-2.56.05-4.11,3.23-4.09,16,.09,32,.06,48,0,2.11,0,3.38.37,3.56,2.93.43,5.8,1.18,11.58,1.81,17.37.27,2.44,0,4.49-3.25,4-5-.75-4.63,2.29-4.36,5.71q5.37,67.91,10.62,135.82.32,4,.54,8c.15,2.66.87,4.77,3.88,5.54a3.69,3.69,0,0,1,2.81,3.66c.54,7,1.24,13.92,1.86,20.87.26,2.88-.75,3.6-3.44,2.26Q935.94,656.78,912,645a4.54,4.54,0,0,1-2.72-4.32c-.33-5.81-.74-11.62-1.36-17.4-.4-3.79.16-5.71,4.3-3.24A26.49,26.49,0,0,0,915.28,621.27Z" transform="translate(-146.67 -460.6)" fill="#b22c2d"/><path d="M436.83,634.46a59.72,59.72,0,0,1-26.45,10.47c-22.54,3.32-39.05-10-38.73-32.8.42-30.44,1.73-60.87,2.68-91.31.31-9.81.59-19.62,1.05-29.42.15-3.15-.27-5.22-4.13-4.64-2.95.45-3.73-1-3.46-3.8.43-4.47.6-9,.77-13.45.09-2.66,1.15-3.82,4-3.8,12.82.1,25.65.15,38.47,0,4.14-.07,4.05,2.31,4,5.15q-.8,31.69-1.52,63.38c-.48,22.8-.86,45.59-1.31,68.39-.19,9.73,3.53,14,12.43,14.33,9.17.29,14.23-4.4,14.54-13.82.28-8.82.25-17.65.43-26.47q.85-42.17,1.78-84.34c.07-3.05.67-6.3-4.28-5.51-1.75.28-2.26-1.15-2.18-2.61.26-5,.62-10,.88-14.95.15-2.76,1.54-3.54,4.23-3.51,12.65.13,25.31.16,38,0,3.59,0,4.46,1.28,4.39,4.68-.94,47.92-1.74,95.84-2.67,143.77-.08,4.26-.6,8.3,5.82,7.18,2.06-.36,2.43,1.25,2.44,2.9,0,5.33,0,10.65.09,16,.09,3.29-1.95,3.2-4.27,3.2-13.66,0-27.32-.16-41,.09-3.91.07-5.6-1-5.19-5C437.72,637.31,438,635.92,436.83,634.46Z" transform="translate(-146.67 -460.6)" fill="#b22c2d"/><path d="M288.34,465.73c10.56.37,22.62-1.08,34.47,1.22,22.12,4.28,33.77,17.07,37.11,41.53,1.92,14.11,1.24,28.23-4.42,41.69a41.87,41.87,0,0,1-19,21.21c-2.42,1.3-2.6,2.84-1.83,4.82,5.44,14.08,11.05,28.1,16.39,42.22,1,2.73,2.83,3.11,5,2.79,4-.6,4.78,1.36,4.64,4.8-.2,4.65-.13,9.32,0,14,.06,2.56-.87,3.5-3.49,3.48q-21-.13-42,0c-2.92,0-3.51-1.46-4-3.86-3.47-16.39-7.07-32.75-10.62-49.12-.18-.81-.25-1.65-.49-2.44-.52-1.67-1.43-3.18-3.36-3.19-2.26,0-2.49,1.91-2.63,3.56-.63,7-1.19,13.9-1.73,20.86-.2,2.65,0,5.35-.48,8-.53,3.21.71,4.41,3.72,4,3.41-.46,4.26,1.13,4.16,4.25-.17,4.82-.05,9.65.07,14.48.06,2.51-.85,3.46-3.48,3.44q-24.73-.13-49.46,0c-2.53,0-3.64-.84-3.55-3.46.13-3.82,0-7.65,0-11.48s-1.16-8.51,5.64-7.31c2,.35,2.14-1.46,2.25-3.08q2.58-41.08,5.25-82.15,1.41-21.64,2.85-43.29c.2-2.91.56-5.82-4-5.08-2.29.37-2.76-1.06-2.42-3.13.82-5.08,1.64-10.17,2.21-15.29.31-2.81,1.68-3.49,4.29-3.46C268.61,465.8,277.77,465.73,288.34,465.73Zm8,90.2c0,1.26,0,2.26,0,3.25-.22,5.07,0,5.23,4.47,3a31.39,31.39,0,0,0,15-16.1,63.48,63.48,0,0,0,4.5-37.52c-1.69-9.08-6.19-16.39-15.22-20.18-2.52-1.05-3.77-1.27-4,2.23C299.6,512.48,297.93,534.33,296.34,555.93Z" transform="translate(-146.67 -460.6)" fill="#b22c2d"/><path d="M655,643.44c-14.66,0-29.32-.12-44,.08-3.76.06-5-1-4.77-4.79a93,93,0,0,0,0-12.49c-.23-3.75.86-5.73,4.93-5s5.36-.81,5.29-5q-1-62.19-1.65-124.37c0-3.62-.64-5.8-4.9-5-2.84.52-3.78-.91-3.67-3.7.19-4.48.24-9,0-13.48-.18-3.25,1.24-3.88,4.12-3.87q41.24.12,82.47,0c3.05,0,4.18,1.14,4.23,4,.17,9.82.34,19.64.68,29.46.1,2.67-.83,3.66-3.4,3.39a13.68,13.68,0,0,0-3,0c-5.06.62-8.5,0-9-6.57-.42-5.64-4.46-8.59-10.31-9-4.64-.33-9.33,0-14-.14-2.34-.07-2.74,1.07-2.73,3,.05,11.16.08,22.32,0,33.47,0,2.45.89,3.12,3.21,3.09,7-.1,14-.18,21,.06,3.15.11,4-.93,3.92-4-.06-2.28-1.61-5.87,1.14-6.69,3.36-1,7.26-.49,10.89-.19,1.58.14,1.24,2.16,1.34,3.4,1.1,13.43,2.14,26.87,3.2,40.3,0,.5.22,1.2,0,1.47-3.42,3.63-7.79.84-11.66,1.65-1.94.4-2.9-.51-3.19-2.69-1.14-8.35-1.23-8.34-9.84-8.33-5.5,0-11,.12-16.49,0-2.46-.07-3.51.48-3.5,3.25q.15,31.47,0,62.94c0,3,1.09,3.65,3.78,3.57,5-.17,10-.06,15,0,4.54,0,7.52-2.27,9.28-6.3a37.16,37.16,0,0,0,3-15.56c0-2.58.87-3.6,3.46-3.52,13.86.45,12-2.71,12.47,11.36.39,10.64.75,21.28,1.56,31.9.29,3.82-1,4.45-4.36,4.42-14.83-.15-29.66-.07-44.49-.07Z" transform="translate(-146.67 -460.6)" fill="#b22c2d"/><path d="M329.52,698.81c3.39-9,3.81-18.26,4.87-27.41.47-4,1.73-5.71,6.12-5.36,3.13.25,3.71,1.32,4,4.12,1.16,10.54,2.66,21.05,4.69,31.55,1-10.5,2.41-21,3-31.53.42-6.79,5.1-3.42,8-3.85,4.2-.62,2.25,2.84,2.05,4.36-2.24,17.14-4.77,34.24-7,51.39-.45,3.47-2.45,3.63-4.8,3.12s-5.83,2.22-6.38-2.85c-1-9.09-2.34-18.14-3.56-27.2-.13-.93.07-2-1.63-3.12-.81,5.94-1.59,11.49-2.33,17-.43,3.3-1.17,6.62-1.08,9.91.15,5.23-2,6.88-7.09,6.44-3-.26-4.14-.92-4.55-4.07-2.24-17.3-4.72-34.58-7.21-51.85-.32-2.2-.25-3.24,2.51-3.34,7.24-.26,7.31-.43,8,6.82C328.06,681.58,328.76,690.2,329.52,698.81Z" transform="translate(-146.67 -460.6)" fill="#0a0d0a"/><path d="M446.35,697.23c-.32,4.29.51,10.27-.62,16.25-1.22,6.45-5.08,9.76-11.22,11-5.78,1.18-11.62.58-17.43.81-2.38.09-2.68-1.11-2.67-3,0-17.65,0-35.29,0-52.94,0-1.37-.5-3.15,2-3.07,6.15.2,12.35-.59,18.43.67,7.6,1.56,11.07,6,11.44,14.67C446.51,686.23,446.35,690.9,446.35,697.23Zm-12-1.38c0-5.47,0-11,0-16.42,0-4.22-2.9-4.82-6-4.85-3.65,0-1.84,3-1.86,4.44q-.28,16.41,0,32.84c0,1.79-1.77,5.07,2.63,4.85,3.28-.16,5.4-1.15,5.32-4.93C434.33,706.47,434.42,701.16,434.4,695.85Z" transform="translate(-146.67 -460.6)" fill="#0a0d0a"/><path d="M673.24,725.07c-12.22.66-12.19.65-14.93-10.58a144.17,144.17,0,0,0-4.81-16.41c-1.8,4.18-1,8.41-1.16,12.56-.13,2.66,0,5.33,0,8,0,6.68,0,6.37-6.45,6.76-4.56.27-5.74-1.13-5.66-5.67.29-16.47.2-33,0-49.43,0-3.24.8-4.37,4.1-4.11,5.94.48,12-.63,17.85,1.12s9,5.53,9.77,11.35c.76,6.11.52,12.33-5.05,16.24-2.63,1.84-2.38,3.26-1.59,5.63C668,708.53,670.51,716.58,673.24,725.07Zm-20.93-42.49a33.14,33.14,0,0,0,.05,4.46c.18,1.24-1,3.22,1.36,3.52,2,.26,4.19.2,5.2-1.95a13.49,13.49,0,0,0,.31-11.53c-1-2.2-3-2.31-5.07-2.2-2.82.14-1.65,2.32-1.81,3.73A32.81,32.81,0,0,0,652.31,682.58Z" transform="translate(-146.67 -460.6)" fill="#0a0d0a"/><path d="M690.58,698.68c3.25-9.63,3.95-18.87,5.41-28,.57-3.52,1.49-4.72,5.15-4.57,6.75.28,6.73,0,5.45,6.54-3.15,15.95-6.54,31.86-9.21,47.88-1,5.92-4.67,4.31-8.18,4.78-4.26.56-4.3-2.27-4.8-5-3-16.64-6-33.31-9.22-49.92-.73-3.74.33-4.13,3.74-4.33,5.19-.31,7.6.79,8,6.67C687.43,681.17,689.2,689.49,690.58,698.68Z" transform="translate(-146.67 -460.6)" fill="#0a0d0a"/><path d="M770,695.54c0-8.66.09-17.32-.06-26,0-2.65.74-3.46,3.39-3.38q9.24.27,18.49,0c3.93-.11,2.48,2.63,2.66,4.46s.53,4-2.78,3.83c-3.09-.11-7.21-1.47-9.09.65s-.26,6.38-.7,9.64c-.6,4.37.65,6.6,5.45,5.66,3.41-.68,3.68,1.29,3.68,4,0,2.94-.31,4.92-4,4.27-4.07-.71-5.8.94-5.16,5.16a41.11,41.11,0,0,1,0,6c0,7.26,0,7.69,7.48,7.09,5.08-.41,5.32,1.88,5.12,5.68-.11,2.32-1.09,2.7-3.09,2.67-6-.1-12-.19-18,0-3,.12-3.57-1.18-3.53-3.82.12-8.65,0-17.31,0-26Z" transform="translate(-146.67 -460.6)" fill="#0a0d0a"/><path d="M528.43,695.43c0-8.49.14-17-.08-25.46-.08-3.17.95-3.93,4-3.8,5.81.25,11.66.32,17.47,0,3.71-.21,3.46,1.86,3.47,4.3,0,2.26.26,4-3.18,4-9.68.12-9.45.33-9.77,10.29-.14,4.37.81,6.59,5.54,5.62,4.16-.86,3.41,2,3.6,4.47.23,2.92-.49,4.47-3.75,3.82-4.5-.89-6.05,1.12-5.31,5.42a14.78,14.78,0,0,1,0,2.49c0,10,0,10.17,9.69,10.34,3.51.06,3.21,1.9,3.11,4.12-.08,2,.8,4.41-2.92,4.26-6.16-.25-12.33-.17-18.48,0-2.62.06-3.47-.8-3.43-3.43C528.51,713.08,528.42,704.25,528.43,695.43Z" transform="translate(-146.67 -460.6)" fill="#0a0d0a"/><path d="M611.2,695.74c0-8.65.11-17.3-.06-26,0-2.79.71-3.74,3.58-3.64,6,.21,12,.25,18,0,3.55-.15,3.14,2,3.07,4.14s.62,4.12-3,4.21c-9.58.24-9.26.46-9.7,9.87-.24,5,1,7,6.11,6.08,3.58-.66,3,2,3,4.07s.68,4.83-2.93,4.16c-5.76-1-6.8,1.91-6.06,6.65a10.72,10.72,0,0,1,0,1.5c0,9.69,0,9.88,9.42,10.13,3.4.1,3.15,1.84,3.18,4.12,0,2.53.08,4.46-3.54,4.27-5.81-.31-11.66-.23-17.48,0-2.87.11-3.69-.8-3.63-3.63C611.31,713.05,611.2,704.39,611.2,695.74Z" transform="translate(-146.67 -460.6)" fill="#0a0d0a"/><path d="M499.53,696c0-8.48.17-17-.08-25.43-.11-3.58,1.06-4.51,4.49-4.34,5.8.28,11.64.27,17.45,0,3.68-.17,2.89,2.16,3,4.19s.42,4-3.08,4.11c-9.77.21-9.46.42-9.89,10.14-.22,4.83,1.07,6.73,5.88,5.79,4-.77,3.11,2.05,3.27,4.26.18,2.57.16,4.76-3.45,4.06-4.64-.9-6,1.08-5.67,5.62.4,5.46-.08,11,.16,16.45.15,3.28-.52,4.67-4.25,4.55-7.77-.26-7.78,0-7.78-8Z" transform="translate(-146.67 -460.6)" fill="#0a0d0a"/><path d="M452.61,695.77c0-8.48.1-16.95-.06-25.42-.06-3.18.86-4.68,4.23-4.17a14.34,14.34,0,0,0,4,0c3.09-.44,3.92.75,3.88,3.84-.17,14.12.06,28.24-.15,42.36-.06,3.69.89,5.28,4.66,4.71,1-.15,2,.06,3,0,2.86-.27,4.55.09,4.38,3.86-.15,3.32-.73,4.66-4.37,4.44a154.09,154.09,0,0,0-15.94,0c-2.88.12-3.7-.86-3.65-3.67C452.72,713.05,452.62,704.41,452.61,695.77Z" transform="translate(-146.67 -460.6)" fill="#0a0d0a"/><path d="M386.48,695.91c0-8.64.16-17.28-.08-25.92-.08-3.13.87-3.85,3.88-3.83,8.15.07,8.15-.08,8.15,7.91,0,12.79.14,25.59-.1,38.38-.06,3.65.74,5.3,4.59,4.63,1.13-.19,2.35.13,3.48,0,3.62-.57,4,1.38,4,4.33s-.49,4.17-3.78,4a150.45,150.45,0,0,0-16.45,0c-3.33.18-3.77-1.19-3.72-4C386.58,712.86,386.48,704.38,386.48,695.91Z" transform="translate(-146.67 -460.6)" fill="#0a0d0a"/><path d="M367.49,695.93c0-8.64.15-17.29-.08-25.93-.08-3.1.83-3.89,3.87-3.88,8.17,0,8.17-.13,8.17,7.93,0,15.46-.13,30.92.09,46.37,0,3.84-.85,5.55-4.87,4.88a14.34,14.34,0,0,0-4,0c-2.76.34-3.29-.95-3.25-3.44C367.57,713.22,367.49,704.58,367.49,695.93Z" transform="translate(-146.67 -460.6)" fill="#0a0d0a"/><path d="M480.58,695.42c0-8.32.11-16.64-.06-24.95-.06-3.05.52-4.41,4-4.36,8,.11,8-.1,8,7.74,0,15.64-.14,31.28.1,46.92.05,3.83-1.06,5.12-4.73,4.55a15.23,15.23,0,0,0-4,0c-2.69.31-3.4-.89-3.36-3.44.12-8.82.05-17.63.05-26.45Z" transform="translate(-146.67 -460.6)" fill="#0a0d0a"/><path d="M724.31,695.41c0,8.64-.11,17.29.06,25.93,0,2.86-.44,4.06-3.74,4-8.32-.08-8.32.12-8.32-8.38,0-15.46.1-30.93-.07-46.39,0-3.35.6-5,4.28-4.37a10.76,10.76,0,0,0,3.49,0c3.43-.54,4.52.67,4.39,4.24C724.11,678.78,724.31,687.1,724.31,695.41Z" transform="translate(-146.67 -460.6)" fill="#0a0d0a"/><path d="M969.55,656.46c3.15-1,6.19-.86,10.3-.32-8.25,2.49-2.54,9.13-5.47,13.24C970.15,666.12,977.1,658.49,969.55,656.46Z" transform="translate(-146.67 -460.6)" fill="#b22c2d"/></svg>