<svg id="a8ec8ad4-fd8d-45fe-ad91-09a1f59b7b62" data-name="Layer 1" xmlns="http://www.w3.org/2000/svg" viewBox="0 0 267.79 237.87"><path d="M521.12,598.65c-5.5,0-11,0-16.49,0-7.86-.06-10.71-5.07-6.74-11.89q15.54-26.65,31.09-53.3c2.83-4.87,6.09-9.54,6-15.62a23.91,23.91,0,0,0-3.11-11.91q-19.73-33.87-39.31-67.82c-3.8-6.56-1-11.62,6.53-11.72,8.49-.11,17,.13,25.48-.08,11.75-.29,20.48,3.28,26.56,14.57,11.76,21.85,24.71,43.07,37.31,64.47,5.05,8.57,5.17,16.76,0,25.39q-16,26.79-31.35,53.93c-2.35,4.16-3.87,8.54-8.58,10.87-3.49,1.73-6.89,3.22-10.87,3.14C532.11,598.57,526.61,598.64,521.12,598.65Z" transform="translate(-399.12 -426.04)" fill="#48f7e3"/><path d="M601.44,426.06c10.48,0,21-.06,31.44,0,7.82.05,12.13,7.19,8.3,13.83q-15.69,27.19-31.57,54.29c-4.69,8-12.07,8.32-16.74.52q-16.22-27.08-31.74-54.54c-4.17-7.35-.12-13.84,8.38-13.95,10.64-.15,21.29,0,31.93,0Z" transform="translate(-399.12 -426.04)" fill="#0e81d7"/><path d="M415.76,663.39c-1.52.12-3.08.2-4.6.2-9.72,0-12-4.56-12-13.55,0-4.72.44-10.92,5.48-13a18.14,18.14,0,0,1,6.56-1c1.52,0,3.08.08,4.6.2,1.24.12,2.52.28,2.52,1.8v1.28c0,1.6-.28,2.32-2,2.32-1.44,0-2.88-.2-4.32-.2a14.57,14.57,0,0,0-4.2.48c-2.6,1.12-2.2,5.84-2.2,8.12,0,2.92-.32,7.23,3.4,7.95a15.1,15.1,0,0,0,3,.16c1.44,0,2.88-.2,4.32-.2,2.4,0,2,1.76,2,3.6C418.28,663.11,417,663.27,415.76,663.39Z" transform="translate(-399.12 -426.04)" fill="#20b7ff"/><path d="M443.28,663.07h-2.2a2.21,2.21,0,0,1-2.32-1.64l-1.24-3.28q-4.8.12-9.6,0l-1.08,3c-.48,1.32-1,1.92-2.48,1.92h-1.84c-1.12,0-2-.12-2-1.4a5.41,5.41,0,0,1,.36-1.32l8.24-22.11c.88-2.4,2.16-2,4.44-2a2.58,2.58,0,0,1,2.8,2L445,660.71a2.34,2.34,0,0,1,.16.76C445.16,662.59,444.28,663.07,443.28,663.07Zm-10.6-18.51-3.08,8.87h6.16Z" transform="translate(-399.12 -426.04)" fill="#20b7ff"/><path d="M472.36,663.07a2,2,0,0,1-2.2-2.08l-.92-13.59c-.88,2.28-1.68,4.56-2.48,6.87-.48,1.36-1,2.76-1.52,4.08-.84,1.92-1.76,1.84-3.64,1.84a2.48,2.48,0,0,1-2.6-1.84c-.56-1.32-1-2.72-1.56-4.08-.8-2.31-1.64-4.59-2.52-6.87L454,661c-.16,2.4-2,2.08-3.88,2.08-1.32,0-2.4-.44-2.4-2v-.32l2-22.47c.12-1.52,1-2,2.4-2h2.24a2.29,2.29,0,0,1,2.48,1.48c.68,1.56,1.24,3.2,1.84,4.8,1.12,3,2.2,6.08,3.36,9.11,1.16-3,2.24-6.07,3.36-9.11.6-1.6,1.16-3.24,1.84-4.8a2.24,2.24,0,0,1,2.44-1.48H472c1.4,0,2.28.44,2.4,2l2,22.47v.32C476.44,663.43,474,663.07,472.36,663.07Z" transform="translate(-399.12 -426.04)" fill="#20b7ff"/><path d="M496.88,653.88c-2.52,1.19-6.52.87-9.24.87v6.16c0,2.52-2.08,2.16-3.88,2.16-1.52,0-2.4-.52-2.4-2.16V638.4c0-1.6,1-2,2.4-2h7.44c2.8,0,5.08-.12,7.2,2,1.88,1.88,2.2,5,2.2,7.56C500.6,649,500,652.4,496.88,653.88Zm-9.24-12.16v7.72H492c.6,0,1.6,0,2-.56a6.63,6.63,0,0,0,.4-2.84c0-.92.08-3.68-.84-4.12a8.3,8.3,0,0,0-2.48-.24C489.92,641.68,488.76,641.68,487.64,641.72Z" transform="translate(-399.12 -426.04)" fill="#20b7ff"/><path d="M531.24,663.39c-1.52.12-3.08.2-4.6.2-9.72,0-12-4.56-12-13.55,0-4.72.44-10.92,5.48-13a18.14,18.14,0,0,1,6.56-1c1.52,0,3.08.08,4.6.2,1.24.12,2.52.28,2.52,1.8v1.28c0,1.6-.28,2.32-2,2.32-1.44,0-2.88-.2-4.32-.2a14.57,14.57,0,0,0-4.2.48c-2.6,1.12-2.2,5.84-2.2,8.12,0,2.92-.32,7.23,3.4,7.95a15.1,15.1,0,0,0,3,.16c1.44,0,2.88-.2,4.32-.2,2.4,0,2,1.76,2,3.6C533.76,663.11,532.48,663.27,531.24,663.39Z" transform="translate(-399.12 -426.04)" fill="#20b7ff"/><path d="M549.48,663.91c-9,0-11.88-6.08-11.88-14.15s2.84-14.16,11.88-14.16,11.92,6,11.92,14.16S558.48,663.91,549.48,663.91Zm4.6-20.67c-.88-1.8-2.76-2.2-4.6-2.2s-3.68.4-4.56,2.2c-.76,1.56-.84,4.76-.84,6.52s.08,4.91.84,6.47c.88,1.8,2.72,2.24,4.56,2.24s3.72-.44,4.6-2.24c.76-1.56.84-4.71.84-6.47S554.84,644.8,554.08,643.24Z" transform="translate(-399.12 -426.04)" fill="#20b7ff"/><path d="M580.16,663.07H568.88c-1.52,0-2.4-.52-2.4-2.16V638.4c0-1.6,1-2,2.4-2h1.72c1.36,0,2.16.64,2.16,2v19.39c2.48,0,4.92-.08,7.4-.08,2.32,0,2.16,1.6,2.16,3.32C582.32,662.43,581.52,663.07,580.16,663.07Z" transform="translate(-399.12 -426.04)" fill="#20b7ff"/><path d="M609.52,663.07a2,2,0,0,1-2.2-2.08l-.92-13.59c-.88,2.28-1.68,4.56-2.48,6.87-.48,1.36-1,2.76-1.52,4.08-.84,1.92-1.76,1.84-3.64,1.84a2.48,2.48,0,0,1-2.6-1.84c-.56-1.32-1-2.72-1.56-4.08-.8-2.31-1.64-4.59-2.52-6.87L591.2,661c-.16,2.4-2,2.08-3.88,2.08-1.32,0-2.4-.44-2.4-2v-.32l2-22.47c.12-1.52,1-2,2.4-2h2.24a2.29,2.29,0,0,1,2.48,1.48c.68,1.56,1.24,3.2,1.84,4.8,1.12,3,2.2,6.08,3.36,9.11,1.16-3,2.24-6.07,3.36-9.11.6-1.6,1.16-3.24,1.84-4.8a2.24,2.24,0,0,1,2.44-1.48h2.24c1.4,0,2.28.44,2.4,2l2,22.47v.32C613.6,663.43,611.12,663.07,609.52,663.07Z" transform="translate(-399.12 -426.04)" fill="#20b7ff"/><path d="M639,663.07h-2.2a2.21,2.21,0,0,1-2.32-1.64l-1.24-3.28q-4.8.12-9.6,0l-1.08,3c-.48,1.32-1,1.92-2.48,1.92h-1.84c-1.12,0-2-.12-2-1.4a5.41,5.41,0,0,1,.36-1.32l8.24-22.11c.88-2.4,2.16-2,4.44-2a2.58,2.58,0,0,1,2.8,2l8.68,22.51a2.34,2.34,0,0,1,.16.76C640.88,662.59,640,663.07,639,663.07Zm-10.6-18.51-3.08,8.87h6.16Z" transform="translate(-399.12 -426.04)" fill="#20b7ff"/><path d="M663.56,663.07a2.77,2.77,0,0,1-2.6-1c-1.32-1.56-2.48-3.32-3.72-5-2.28-3.15-4.52-6.32-6.76-9.51v13.31c0,2.44-2,2.16-3.76,2.16-1.52,0-2.4-.52-2.4-2.16V638.4c0-2.24,1.84-2,3.44-2a2.47,2.47,0,0,1,2.4,1c1.32,1.6,2.48,3.36,3.68,5,2.32,3.2,4.6,6.4,6.92,9.6V638.4c0-2.44,2.32-2,4-2,1.36,0,2.16.64,2.16,2v22.51C666.92,663.19,665.28,663.07,663.56,663.07Z" transform="translate(-399.12 -426.04)" fill="#20b7ff"/><path d="M440.79,523.6h-3.72v9.84c0,.3-.1,2.11.49,2.11,1.37,0,2.65-.73,4-.73,2.25,0,1.91,2.2,1.91,3.77,0,2-.64,2.55-2.55,2.74a42.48,42.48,0,0,1-4.36.25c-5.88,0-6.91-2.55-6.91-8v-10c-2.55-.05-2.55-1.72-2.55-3.73a2.44,2.44,0,0,1,2.55-2.4V514c0-1.81.88-2.64,2.7-2.64h2.2a2.43,2.43,0,0,1,2.5,2.64v3.48h3.72c2.31,0,2.8,1,2.8,3.09S443.05,523.6,440.79,523.6Z" transform="translate(-399.12 -426.04)" fill="#49ffe9"/><path d="M466.76,540.94c-2.05,0-3.13-.49-3.13-2.74V526.39c0-.49.05-3.09-.3-3.38a1.74,1.74,0,0,0-1.12-.2,9.84,9.84,0,0,0-5.39,1.91V538.2c0,3-2,2.74-4.26,2.74-2.06,0-3.14-.49-3.14-2.74V509.88c0-1.86.88-2.65,2.69-2.65h2.21a2.43,2.43,0,0,1,2.5,2.65V518a15.35,15.35,0,0,1,6.07-1.22c4.76,0,8.14,2.35,8.14,7.3V538.2C471,541.19,469.07,540.94,466.76,540.94Z" transform="translate(-399.12 -426.04)" fill="#49ffe9"/><path d="M495.53,531.44H484v.78c0,3,1.18,3.82,4.12,3.82a31.72,31.72,0,0,0,6.42-.83,5.71,5.71,0,0,1,1.27-.25c1.86,0,2,1.91,2,3.33,0,1.67-.64,2.31-2.25,2.65a42.42,42.42,0,0,1-7.5.64c-8.92,0-11.27-3.82-11.27-12.25s1.91-12.59,11-12.59c8.09,0,10.34,3.82,10.34,11.31C498.17,530.5,498.12,531.44,495.53,531.44Zm-4.36-6c0-2.5-.74-3.14-3.29-3.14-3.13,0-3.77,1.42-3.82,4.31h7.11Z" transform="translate(-399.12 -426.04)" fill="#49ffe9"/><path d="M567.29,581.35l3.81,7.4,3.83,2.37-1.58,2.55-3.71-2.29-8.48-.12,1.8-2.91,5.14.23-2.54-4.42Z" transform="translate(-399.12 -426.04)" fill="#09b7fe"/><path d="M584.42,575.78l-1.57,2.54-6.62-4.1,3.16,4.49-1.09,1.76-5.43-.82,6.62,4.1-1.49,2.4L568.11,580l1.84-3,6.34.84-3.59-5.29,1.83-3Z" transform="translate(-399.12 -426.04)" fill="#09b7fe"/><path d="M588.94,568.9a7.13,7.13,0,0,1-1.58,1.84,5,5,0,0,1-2,1,5,5,0,0,1-2.25,0,8,8,0,0,1-4.36-2.68,5.28,5.28,0,0,1-1-2,5.07,5.07,0,0,1,0-2.23,6.72,6.72,0,0,1,.93-2.3,8.41,8.41,0,0,1,.77-1.08,8.71,8.71,0,0,1,.75-.82A9.82,9.82,0,0,1,581,560l.69-.46,2.39,1.49-.18.29-.66.23a7.48,7.48,0,0,0-.83.38,6.31,6.31,0,0,0-.85.57,3.3,3.3,0,0,0-.7.82,3.48,3.48,0,0,0-.47,1.13,2.89,2.89,0,0,0,0,1.24A3.3,3.3,0,0,0,581,567a4.93,4.93,0,0,0,1.37,1.17,4.58,4.58,0,0,0,1.71.7,3.35,3.35,0,0,0,1.39-.05,3,3,0,0,0,1.08-.58,4.28,4.28,0,0,0,.77-.89,3.6,3.6,0,0,0,.42-1,4,4,0,0,0,.15-1.07,6,6,0,0,0,0-.86q0-.42-.09-.69l.16-.27,2.37,1.47c0,.31-.09.62-.13.9a5.42,5.42,0,0,1-.19.87,7.9,7.9,0,0,1-.35,1A7.53,7.53,0,0,1,588.94,568.9Z" transform="translate(-399.12 -426.04)" fill="#09b7fe"/><path d="M597.73,554.27l-1.63,2.63-2.42-.54L591.41,560l1.57,1.92-1.59,2.57-7.63-9.77,1.82-2.94Zm-6.25,1.58-4.29-1,2.79,3.41Z" transform="translate(-399.12 -426.04)" fill="#09b7fe"/><path d="M656.83,431.22a4.64,4.64,0,1,1-1.36-3.28A4.48,4.48,0,0,1,656.83,431.22Zm-1,0a3.56,3.56,0,0,0-1.06-2.57,3.57,3.57,0,0,0-5.12,0,3.66,3.66,0,0,0,0,5.15,3.57,3.57,0,0,0,5.12,0A3.58,3.58,0,0,0,655.81,431.22Zm-1,2.2h-1.46l-1.4-1.69h-.46v1.69h-1.14V428.8h1.76a5.57,5.57,0,0,1,.78,0,1.58,1.58,0,0,1,.58.19,1.16,1.16,0,0,1,.47.43,1.36,1.36,0,0,1-.14,1.46,1.82,1.82,0,0,1-.74.51Zm-2-3.25a.58.58,0,0,0-.06-.26.45.45,0,0,0-.21-.2.75.75,0,0,0-.31-.09l-.39,0h-.36v1.3h.27a2.37,2.37,0,0,0,.49,0,.72.72,0,0,0,.33-.14.55.55,0,0,0,.18-.22A.81.81,0,0,0,652.81,430.17Z" transform="translate(-399.12 -426.04)" fill="#25b4ff"/></svg>