<svg id="a30d1b96-7ecd-4f66-9574-4bfeabcf93aa" data-name="Layer 1" xmlns="http://www.w3.org/2000/svg" viewBox="0 0 294 328"><polygon points="49 218 145 40 253 213 49 218" fill="#f8f4f5"/><polygon points="154 328 253 213 49 218 154 328" fill="#5e5162"/><polygon points="17 246 49 218 154 328 17 246" fill="#a9a4aa"/><polygon points="0 78 49 218 17 246 0 78" fill="#b8b1b9"/><polygon points="145 40 0 78 49 218 145 40" fill="#aa9fa3"/><polygon points="145 0 0 78 145 40 145 0" fill="#7c747f"/><polygon points="291 68 145 40 145 0 291 68" fill="#5e5162"/><polygon points="253 213 291 68 145 40 253 213" fill="#aa9fa3"/><polygon points="294 234 291 68 253 213 294 234" fill="#5e5162"/><polygon points="154 328 253 213 294 234 154 328" fill="#7c747f"/><path d="M519.66,565.29q3.17-2.88,6.55-6c2.26-2.08,4-3.72,5.11-4.94q4.56-4.32,6-7.49a15.76,15.76,0,0,0,1.49-6.77,11,11,0,0,0-1.65-6.38,5.5,5.5,0,0,0-4.81-2.35,8,8,0,0,0-4.28,1.22c-1.32.82-2,1.69-2,2.62,0,1.53.82,2.3,2.47,2.3a4.07,4.07,0,0,1,2.94,1.08,3.76,3.76,0,0,1,1.12,2.81,4.81,4.81,0,0,1-1.49,3.6,5,5,0,0,1-3.65,1.44,6.55,6.55,0,0,1-4.47-1.56,5.21,5.21,0,0,1-1.77-4.1,8.19,8.19,0,0,1,2-5.4,12.22,12.22,0,0,1,4.53-3.53,18.74,18.74,0,0,1,4.47-1.42,25.84,25.84,0,0,1,4.15-.31,18.08,18.08,0,0,1,9.89,2.59,8.36,8.36,0,0,1,4.08,7.49,8.6,8.6,0,0,1-1.9,5.47,13.24,13.24,0,0,1-4.25,3.63q-2.35,1.22-7.22,3.12t-5.4,2.76v.19c.8-.07,1.72-.11,2.76-.15s2.15,0,3.33,0h7.59a6.89,6.89,0,0,0,3.31-.58,3.48,3.48,0,0,0,1.42-1.63c.3-.71.55-1.4.76-2.07s.4-1.23.56-1.68H552l-3.07,16.42H519.66Z" transform="translate(-402.88 -394.81)" fill="#493a4f"/><path d="M588.63,548.16a19,19,0,0,1-4.61,12.5,14.7,14.7,0,0,1-11.85,5.55,14.36,14.36,0,0,1-12-5.76,19.9,19.9,0,0,1-4.42-12.29,18.73,18.73,0,0,1,4.76-12.51,14.84,14.84,0,0,1,11.71-5.54A14.64,14.64,0,0,1,584,535.75,19.09,19.09,0,0,1,588.63,548.16Zm-12,0q0-4-.14-6.82a53.1,53.1,0,0,0-.56-5.49,8.41,8.41,0,0,0-1.24-3.75,3.06,3.06,0,0,0-2.57-1.08,3.1,3.1,0,0,0-2.52,1.13,6.83,6.83,0,0,0-1.27,3.43c-.23,1.54-.4,3.46-.53,5.76s-.19,4.58-.19,6.82q0,3.69.16,6.69c.12,2,.3,3.88.56,5.64a8.14,8.14,0,0,0,1.22,3.72,3.06,3.06,0,0,0,2.57,1.08,3.12,3.12,0,0,0,2.52-1.12,6.83,6.83,0,0,0,1.25-3.41c.2-1.52.38-3.49.52-5.91S576.68,550.21,576.68,548.16Z" transform="translate(-402.88 -394.81)" fill="#493a4f"/></svg>