<svg id="afae2b97-8bd0-4ad4-b105-a681d5797a5d" data-name="Layer 1" xmlns="http://www.w3.org/2000/svg" viewBox="0 0 951.52 1005.82"><path d="M763.8,388.63c-7.5,3.9-1.22,6.52-.27,9.78,1.43,4.89,5.79,4.71,9.57,6.33l-3.33,5c5.06,3.12,9.81,6.34,14.83,9.07,7.54,4.12,15.22,8,22.95,11.76,1.88.91,4.17,1,6.29,1.41,3.87.64,5,3.21,4.25,6.55-.91,4-3.76,2.93-6.31,1.77-5.12-2.34-10.18-4.84-15.33-7.13a55.27,55.27,0,0,0-6.11-2c-7.21-2.25-14.33-4.87-21.67-6.53-3.11-.71-7.43-.42-9.82,1.32-2.11,1.54-3.75,6.1-3.08,8.66,2.17,8.26,5.66,16.17,8.36,24.3s5.26,15.85-1.32,24.29c-4.34,5.57-2.86,13.37.14,20.06.41.91,1.46,1.7,1.48,2.56.29,11.11,8.81,17.55,14.79,25.17,5.67,7.23,12.64,13.5,19.44,19.76a14.21,14.21,0,0,0,8.09,3.07c20.08,1.56,40.18,2.67,60.25,4.23,6.62.52,13.24,3,19.73,2.61,6-.37,11.91-3.09,17.57-5.47,1.51-.64,2.73-3.85,2.72-5.87a84.91,84.91,0,0,0-1.48-14.38,85,85,0,0,1,2.24-40.43c3.38-10.83,10.27-20.77,16.69-30.39,5.16-7.72,6.44-13.95,2.22-22.21-3.55-7-6.79-14.11-9.91-21.29-1.31-3-2.64-4.48-5.93-2.5-2.54,1.52-5.22,2.81-7.89,4.08-8.78,4.19-17.37,8.5-27.73,7.74-6.23-.46-12.59.88-18.9,1.36-1.31.1-3.11.5-3.88-.16-1.62-1.41-2.7-3.44-4-5.21,1.47-1.08,2.85-2.89,4.45-3.12,10.15-1.43,20.5-1.84,30.48-4,5.17-1.12,10.18-4.55,14.41-8,6.35-5.16,12-11.22,17.83-17a2.49,2.49,0,0,0,.25-2.25c-2.07-4.53-4.31-9-6.41-13.49-.32-.67-.58-1.86-.24-2.26,4.06-4.74-.25-6.11-3.08-8.28a34.16,34.16,0,0,1-4-4.24,60.75,60.75,0,0,1,5.65-4.16c2.22-1.29,5.1-1.7,6.93-3.34,7.16-6.4,17-4.71,21.37,4.05,2,4.06,3.12,7.85,1.19,12.78-3.52,9-1,12.94,7.23,18.26C954,397,960.86,405.51,964,416.72c1.21,4.25,3.54,8.16,5,12.33,1.74,4.85.08,8.23-4.68,10.35-4.27,1.91-5.5,5.14-3,9.09,3.79,6,3.84,12.12.34,17.87-4.88,8-10.33,15.68-15.73,23.36-3,4.25-2.68,5.77,2.4,7.27,11.07,3.26,22,7.3,33.8,7.09,1.43,0,4,2,4.19,3.38,1.26,7.81,2.18,15.69,2.73,23.58.12,1.76-1.7,3.66-2.62,5.49-2.06-1.32-5.69-2.43-5.9-4-1.2-8.68-8-9.5-14.2-10.61-10.65-1.91-21.41-3.15-32.13-4.65-6.6-.93-10.19,1.66-9.84,8.33a171.14,171.14,0,0,0,3,21.69c2,11.13,2.22,11.19,13.56,8.11,14.54-3.95,29-8,43.52-12.13,6.7-1.89,12.42,1.32,18.06,3.86,1.57.7,2.65,4.21,2.66,6.44.16,39,.12,78,.13,117,0,2.33.41,4.72,0,7-.28,1.63-1.28,4-2.48,4.39-1.48.47-3.77-.38-5.27-1.34-5.25-3.36-10-7.67-15.59-10.24-2.36-1.09-7,.36-9.33,2.25a7.35,7.35,0,0,0-1.58,10.31c1,1.5.37,4,.5,6.06a49.73,49.73,0,0,1-5-.16c-5.85-.77-9.84,2.62-13.36,6.35-3,3.14-5.64,6-10.17,3.33-3.78-2.21-5.63-9.58-3.72-13.79,2-4.44,1.27-5.64-3.56-5.71-5.83-.09-11.65-.16-17.47-.31-3.7-.09-6.75-1.51-7.21-5.49s.09-8,4.87-9.82c6.74-2.54,6.72-3.47,4.33-10.24-2-5.59-4.34-10.63-10.12-12.74-2.07-.75-4.79,0-7.17.43s-5.08,1.92-7.44,1.59c-6.23-.89-11.06,1.17-15.3,5.44-1.28,1.28-2.65,2.47-4,3.7-2.68,2.49-2.53,5,.3,7.1,2.38,1.74,5.26,2.8,7.6,4.59a11.07,11.07,0,0,1,3.6,4.81c.25.71-1.59,2.5-2.8,3.31-4.35,2.94-8.89,5.6-13.25,8.51-3.18,2.12-5.11,4.5-2.48,8.68,2.51,4,.08,10.72-4.53,11.21a53.82,53.82,0,0,1-17.66-1.19c-4.28-1-4.56-4.28-2.27-7.84.79-1.23.73-3,1.06-4.56-1.32-.21-2.72-.79-4-.57-2.86.52-3.5-.83-3.63-3.26-.13-2.59-1.91-4.21-3.87-2.26-5.18,5.15-8.14.22-11.87-1.93a63.78,63.78,0,0,0-6.93-3.17c-1.91-.81-4.16-1.12-5.75-2.33-3.55-2.71-7-3.07-10.51-.4-4.81,3.66-9.29,3.24-14.21,0-2.11-1.38-5-1.5-7.61-2.19-.11,3-1,6.33-.12,9,1.16,3.33,3.94,6.06,5.83,9.17.93,1.53,2.1,3.38,2,5-.17,2.05-1.08,4.92-2.58,5.7-1.33.69-4.76-.34-5.77-1.71-6.87-9.3-17.82-12.22-26.94-18A97.23,97.23,0,0,1,738.36,670c-4.56-4-9.94-4.33-14.82-.67-3.43,2.57-7.07,3.28-10.52.45-4.81-4-4.9-5.71-1.51-11.32,2-3.31,1.07-5.9-2.46-7.61-4.27-2.07-8-3.13-13.07-.91-4.11,1.81-9.55,1.43-14.27.86-7.79-.93-13.64,3-20,6.17a23.23,23.23,0,0,1-10.14,2.45c-3.66,0-6.59.26-9.57,2.85-3.2,2.77-3,5.14-1,8.18.71,1.08,1.91,2.44,1.7,3.42-1.65,7.69,2.49,13.46,6.15,19.37,1.53,2.46,1.67,4.23-.52,6.57s-3.89,5.69-5.84,8.55c-.64,1-1.32,2.39-2.21,2.58-5.88,1.29-11.86,3.27-17.75,3.08-4.1-.13-7.55-3.42-7.26-9,.24-4.63-4.22-8.24-8.91-9a17.37,17.37,0,0,1-7-3c-3-2.12-4.83-1.42-6.4,1.53-5.11,9.58-14.29,12.17-23.86,6.77-5.07-2.86-9.92-3.3-14.85.63-3.93,3.15-7.52,2.51-9.75-2.2-3.13-6.59-5.41-13.58-8.2-20.34-.94-2.29-1.92-4.86-3.67-6.43s-5.18-3.28-6.46-2.52c-1.9,1.11-3.17,4.26-3.54,6.72-.43,2.87,1,6,.52,8.88s-2.45,5.45-3.76,8.16c-2.16-1.58-4.41-3.07-6.48-4.76-4.16-3.42-8.13-7.09-12.39-10.38-3.51-2.72-6.57-5.39-6.56-10.39,0-6.87-2.68-9.31-9.57-8.72-5.54.48-10.59.29-14.37-4.78-.81-1.09-3.42-1.7-4.85-1.3-7.73,2.17-15.13.83-22.67-1-7-1.74-14.21-2.95-20.6,1.89-2.05,1.55-4.24,3.51-5.18,5.78-2.61,6.28-7,10-13.56,11.19-6.8,1.24-13.64,2.29-20.46,3.44-1.95.33-4.46.1-5.73,1.24-3.46,3.09-4.73,2-6.95-1.58-4.07-6.59-3.57-9.61-12.37-3.77-6.21,4.12-11.25,3.16-16.66-.88-3.48-2.6-7.82-3.79-9.55-8.82-1.35-3.92-9-3.68-11.95.51s-5.63,4-9.59,1.68c-3.21-1.91-7-4-10.66-1.06-1.11.89-2.06,3.25-1.68,4.51,1.66,5.49.54,6.89-5,8-8.38,1.7-16.33,1.53-24.4-1.65-4.3-1.69-8.27,2.11-7,6.64,1,3.55,3.19,6.87,5.28,10,1.73,2.58,1.61,4.4-.62,6.5-3.91,3.69-7.7,6.6-13.67,3.92-7-3.16-14.48-2.65-21.32.38-11.77,5.21-21.43,1.06-30.33-6.15-5.19-4.2-10.22-7.7-17.34-7.44-4.78.18-6.49-2.26-6.42-6.9.08-6.07-.34-12.15-.08-18.21.42-9.41,1.22-18.81,1.87-28.21,0-.5.31-1.05.18-1.48-2-6.45.23-9.42,7.07-10.12,3.6-.37,4.88-8.33,1.34-11.48-6.16-5.5-6.89-13.33-10-20.1-.76-1.66,0-4.16.48-6.19.36-1.58,1.52-3,2-4.54,1.59-5.51,6.22-7.88,11.19-5.16,4.61,2.52,8.81,5.82,13.46,8.27,2.61,1.37,5.76,1.72,8.67,2.49,3.23.85,6.58,1.38,9.7,2.53,4.34,1.59,8.48,3.72,12.8,5.42a6.55,6.55,0,0,0,3.94.19c7-2,13.95-4.22,20.91-6.37,1.42-.44,2.82-1.31,4.24-1.33a7.44,7.44,0,0,0,7.74-6.55c1.17-8.62,3.14-17.7-3-25.37-1.87-2.36-5.26-3.52-8-5.21-1.65-1-3.31-2.06-5-3.09,1.61-1.17,3.2-3.31,4.85-3.35,14.16-.37,28.12-2.88,42.47,1.76a110.73,110.73,0,0,0,46.9,4.31C363,547,375.54,546.81,388,545.72c8.23-.72,16.4-2,24.6-3.08a10.93,10.93,0,0,1,3-.34c13.14,2.16,26.2.23,39.27-.78a70.23,70.23,0,0,1,33.55,5.78c2.49,1.07,5.54,1,8.34,1.13,13.78.64,27.42,1.27,41.14,4,22.93,4.57,46.29,7,69.44,10.46,9.54,1.43,19,3.53,28.57,4.57a67.73,67.73,0,0,0,16.63-.67c10.94-1.55,21.61-6,33-2.57a12.86,12.86,0,0,0,4.47.26c9.38-.69,18.77-1.34,28.13-2.24,6.1-.58,7.48-3.33,9.23-9.24,3.62-12.17-3.3-22.41-5-33.57-.92-6.06-3.23-12-3.48-18.05-.17-4.21,2.07-8.53,3.31-12.78.17-.58.84-1,1.29-1.5,7.31-7.8,9.06-15.8,3.89-26.08-3.71-7.37-5.18-16-6.74-24.29-1.63-8.63-7.91-12.26-15.07-7.16-11.33,8.1-24.21,12.47-37.23,16.47-4.17,1.28-8.9.88-13.37.88-.63,0-2-2.84-1.75-3.16,1.58-1.78,3.37-4,5.48-4.56,10.16-2.58,18.55-8.48,27.55-13.39,9.26-5.05,14.43-14,22.06-20.46,3.06-2.59,6.94-4.2,10.17-6.63a6.27,6.27,0,0,0,2.26-4.32c.05-6.28-.84-12.6-.37-18.83.49-6.47,13.6-11.22,19.36-7.27,1.88,1.29,3.92,2.87,4.94,4.82C748.66,380.92,753.57,387.45,763.8,388.63ZM735,563l.22,1.75c5,2,10,1.26,15-.42,6.54-2.18,13.11-4.27,19.63-6.51a30.8,30.8,0,0,0,4.14-2.16c-.78-1.38-1.31-3-2.39-4.1-5.11-5.2-10.62-10-15.5-15.44a44.81,44.81,0,0,1-6.94-10.69c-2.7-5.65-4.65-11.65-7.19-17.39-.55-1.25-2.22-2-3.37-3-.51,1.54-1.52,3.09-1.45,4.6A71.1,71.1,0,0,0,747,542.53c4.88,8.55,4.21,16.28-8.06,18.88A24.72,24.72,0,0,0,735,563Z" transform="translate(-57.76 -16.54)" fill="#630"/><path d="M480.05,340.91c-7.52,1.65-15,4.48-22.56,4.68-10.57.29-19.92,4.68-29.95,6.56-11,2.05-22.7,5.09-32.5-1.25-8.43-5.46-15.34-5.53-24-1.92a161.45,161.45,0,0,1-28.68,9.33c-7.36,1.53-15.23.77-22.87.66-19.33-.26-38.65-.82-58-1.08-7.85-.1-9.19-1.41-7.8-8.85.09-.49.34-1.06.19-1.47-2.84-7.55,2.52-10.53,7.5-13.92,4.27-2.9,6.83-13.76,5-18.5a14.62,14.62,0,0,1-1-7.26c1.19-6.87-2-11.06-7.55-14.14a36.89,36.89,0,0,1-3.07-2.14c2.69-4.81,5.77-8.49,11.59-9.12,10.26-1.11,15.19-12,8.94-20.39-3.57-4.81-6.31-9.48-6.84-15.65-.46-5.39-6.66-9.38-12.93-9.71-2-.1-5.4-.78-5.51-1.56-.46-3.32-1-7.39.56-10,1.34-2.3,5.26-3.91,8.23-4.27,7.53-.9,15.05-.39,22.43-3.72,4.25-1.91,9.8-.87,14.75-1.3s10.14-1.21,15.23-1.51c4.28-.26,8.72-.72,12.87.07,10.54,2,20-1,29.52-4.85,12.26-4.92,24.12-10.69,38.08-9.92,8,.45,16.21-1.36,24.33-2.19,3.81-.39,7.61-1.17,11.42-1.24,21.64-.38,43.29-.43,64.92-.94,15-.35,30-1.11,44.91-2,7.65-.43,15.07-1,22.76,1.09a54.12,54.12,0,0,0,18.83,1.31c8.19-.76,14.66,3.65,22,5.41,7.79,1.87,15.79,3.8,23.72,3.91s15.71-.29,23.73,1.29c7.35,1.44,15.27.9,22.82.1,15.31-1.61,30.21,1.3,45.23,3,4.12.46,8.18,1.88,12.29,2,15.08.37,29.49,4.11,44.1,7.41,22.27,5,44.41,10.76,67.77,9.88,11-.41,22.21,3.13,33.31,5,13.41,2.22,26.74,5.16,40.23,6.58,10.22,1.08,20.65.49,31,.16,3.9-.13,7.71-1.84,11.63-2.41a80.94,80.94,0,0,1,12.81-1c12.59.17,23.67,4.88,33.39,12.55,1.74,1.38,2.35,5,2.37,7.6.18,25.66.13,51.32.15,77,0,.83,0,1.66,0,2.5.52,10.91,1,11.25-10.93,12.29-7,.62-14.13-.9-21.2-1.55-13.47-1.23-26.46-5-40.53-2.88-15.36,2.3-31.19,1.66-46.83,1.82-16.65.18-33.31-.24-50-.33-10.32-.06-20.64-.13-30.95.09a75.78,75.78,0,0,0-11.87,1.54c-15.37,2.82-30.68,3.93-46-.41a25.19,25.19,0,0,0-7.91-.93c-17.29.8-34.56,2.11-51.86,2.59q-38,1-75.94,1.11c-13.12,0-26.24-1-39.36-1.64a6.61,6.61,0,0,1-3.37-.71,15.35,15.35,0,0,1-2.7-3.24c1.13-.77,2.18-2,3.42-2.22,1.92-.4,4,.14,5.95-.32,1.74-.42,3.29-1.64,4.93-2.5-1.47-1.79-2.64-4.68-4.45-5.15a68,68,0,0,0-15.3-2.16c-24.62-.63-49.25-1-73.88-1.43-5.16-.09-10.37-.61-15.48-.17-9.23.8-18.41,2.07-27.58,3.41-1.2.18-2.17,1.94-3.25,3,1.26,1.12,2.5,3.18,3.78,3.21,7.29.15,14.59-.09,21.88-.36,4.62-.17,9.23-.62,13.85-.95Z" transform="translate(-57.76 -16.54)" fill="#630"/><path d="M223.19,301.8c2.12-.8,4.21-1.72,6.38-2.34,1.28-.38,3-.76,4-.23.77.4.85,2.24,1.08,3.47.08.43-.43.95-.4,1.42.12,1.9.34,3.79.52,5.69,1.61-.92,4-1.46,4.68-2.83,3-6.17,8.5-5.63,13.74-5.63,3.58,0,5.67,1.76,4.85,5.75-.43,2.12-.87,4.24-1.1,6.38-.11,1.07-.14,2.55.47,3.2,1.64,1.7,4.88,2.83,1.5,5.66-3.21,2.68-3.06,10.72-10.84,6.55-1.49-.8-4.59.83-6.58,2-.41.23.79,3.31,1.29,5.07,1.08,3.88,2.37,7.71,3.1,11.65.11.61-2.26,2.37-3.55,2.43-6.28.33-12-1-17.2-5.16-4.22-3.42-8.75-6.87-15.15-5-1.5.43-3.81-1.25-5.48-2.36-1.18-.78-1.7-2.76-2.9-3.27-1.39-.58-3.21-.12-4.84-.11.31,1.47.12,3.49,1,4.31,3.12,2.81,5,5.21,1.24,9.09-.74.75,0,4.11,1.07,5.15s3.6,1.13,5.35.82c1.28-.22,2.21-2,3.52-2.6a4.41,4.41,0,0,1,3.65,0c.75.53.9,2.22.91,3.4,0,.94-.92,1.92-.82,2.82.15,1.56.38,3.95,1.31,4.38,1.29.59,3.33-.12,4.92-.66,1.84-.62,3.51-2.25,5.31-2.33a7.76,7.76,0,0,1,5,2.13c2.48,2.29,5.27,3.21,7.3.51,3-4,4.86-1.94,7,.54,3.75,4.43,3.73,4.44,8.79,2.16.8,1.32,1.57,2.73,2.48,4.06,1.95,2.85,3.37,5,8.2,4.3,4.44-.67,9.78,1.44,14,3.65,3.2,1.66,3.79,5.64,1.68,9.28-.79,1.38-1.91,3-1.8,4.4.56,7-2.79,10.15-9.81,8.92-5.6-1-6,.27-5.31,5.52.44,3.21-1.18,7.59-3.41,10.05-2.65,2.91-6.46,6.76-11.32,2-.81-.8-3.24-.48-4.69,0a79.66,79.66,0,0,0-7.39,3.45c-3,1.37-2.72,3.54-.56,4.95,4,2.59,6.13,8.28,12.31,7.26.53-.09,1.82,1.44,1.95,2.33a22.63,22.63,0,0,1,.06,6.92,4.41,4.41,0,0,1-2.74,2.86,32.16,32.16,0,0,1-8.4,1c-8.26-.21-10.14,1-13.29,8.63-.51,1.24-2.28,2.14-3.65,2.77a24.26,24.26,0,0,1-4.61,1.13l-.78,1.63c2.08,1.7,3.94,3.91,6.32,5,2.57,1.15,5.42,1.19,7.34-2.06,1.73-2.91,3.66-2.11,4.37.8s1.78,4.27,5,4.25c2.23,0,6,.71,6.37,1.9.66,2.29-.61,5.15-1.13,7.76a10.15,10.15,0,0,1-.68,1.71c2.79,1.74,5.23,3.85,8.07,4.8,1.59.53,4-.56,5.74-1.47s2.9-2.81,4.63-3.63c.85-.41,3.33.41,3.48,1.06.89,3.77,3.43,3.92,6.5,3.77a13,13,0,0,1,4.4.81c2.19.7,4.32,1.6,6.47,2.42a57.23,57.23,0,0,1-4.61,5.53,43.32,43.32,0,0,1-4.9,3.7c-5.12-1.24-9.43-2.49-13.82-3.29s-8.42-1.34-11.52-5.13c-.85-1-3.56-.56-5.42-.78.42,2.06.25,4.59,1.41,6.09,2,2.56,5,4.33,7.23,6.72,3.15,3.32,5.91,3.8,10.51,1.83,3.76-1.62,8.91-1.19,13.11-.24,3.76.86,4.43,4.79,2.27,8.12-3.06,4.7-6.11,9.41-9.35,14-3.35,4.76-12.37,5-17.36,1.36-4.15-3-9.18-4.81-13.49-7.65-2.76-1.82-5.62-4.18-7.16-7-1.93-3.54-3.81-4.64-7.85-4.13-2.85.37-6-1-8.9-1.89-2.47-.78-5.1-2.07-6.44,1.1s1.58,3.75,3.7,4.71a24.4,24.4,0,0,1,3.85,2.26c4,2.75,7.2,6.59,12.94,6.32,2-.09,4.16,2.47,5.94,4.14.4.37-.14,2.41-.82,3.17-4.73,5.34-11.32,7.16-17.8,9.23-1.46.47-2.61,1.91-3.9,2.91a32.43,32.43,0,0,0,3.28,3.8c2.55,2.21,5.3,4.19,7.89,6.35s4.39,6.39,9.05,3.46a3,3,0,0,1,2.69.46c4.13,3.57,8.88,3.09,13.76,2.57,6.27-.67,12.61-.59,16.85,4.92,1.62,2.11,1.86,5.32,2.53,8.07a11.25,11.25,0,0,1-.21,3c-.1,2.38.73,6.17-.41,6.89a37.45,37.45,0,0,1-12.17,5,47.54,47.54,0,0,0-9.64,2.64c-3.68,1.6-8.86.38-13.21-.48-2.21-.44-3.88-3.1-6.07-4.2-2.61-1.31-6-3.43-8.22-2.72-5.76,1.79-9.49-1-13.68-3.74-3.7-2.45-7.66-4.52-11.55-6.66a4.55,4.55,0,0,0-2.87-.7c-5.19,1.17-10.26,1.59-15.46-.28-.65-.23-3.27,2.47-3.38,3.93-.14,2,1.48,4,1.94,6.07s1.38,4.9.54,6.63c-1.85,3.8-2.29,7.16-.07,10.81a4.2,4.2,0,0,1,.6,2.4c-.76,6.84,1.25,12.22,7.4,16,1,.63,1,3.11,1.71,5.85-3.27-1.25-5.31-2.35-7.48-2.76-1.43-.28-3.06.44-4.59.71a30.06,30.06,0,0,1,.92,4c.48,5.52,2.37,11.49,1,16.51-3.28,11.69-2.2,22.8-.33,34.49,1.13,7.08,2,15-1.29,22.25a9.38,9.38,0,0,0-.76,3.89c.12,5.47.19,10.95.66,16.39.51,5.88,2.49,7.56,8.36,7.4,6.32-.18,12.53,0,16.73,5.64,1.86,2.51,3.11,5.46,4.7,8.17,4.53,7.7,11,11.69,20.2,10.89,4.3-.36,8.7.38,13,0,7.62-.75,13.1,2.08,18.34,7.66,6.53,7,14.23,12.84,21.31,19.31,1.8,1.65,4.33,3.72,4.44,5.71a13.86,13.86,0,0,1-2.66,8.83c-1.1,1.37-5.11,1.67-7.09.81-4.83-2.11-8.91-2.64-13.58.6-1.8,1.25-5.75,1.55-7.44.4-6.71-4.55-14.52-5.62-21.88-6-9.43-.5-15.75-5.69-22.3-10.88s-10.83-4.88-17.95-.69c-7.34,4.31-7.41,10.72-7.87,17.49-.09,1.32.44,2.86-.07,4-2,4.36-3.33,10.24-6.84,12.45-4.75,3-11,2.25-16.51-1.32a203.84,203.84,0,0,0-20.5-11c-6.18-3-11.68-.21-16.65,3.22S105.7,802.9,100.65,806a27.64,27.64,0,0,1-11,3.33c-4.77.55-9.68-.2-14.47.21C72,809.8,69,811.18,65.89,812c-1.22.31-2.77.82-3.7.33s-1.38-2.12-1.37-3.25c0-12.32.29-24.64.33-37q.14-37.5.09-75c0-1.66-.39-3.32-.31-5a16.28,16.28,0,0,1,1-3.45c1.29.51,3.35.69,3.74,1.59,1.7,3.92,3.57,3,7,1.86,2.8-1,6.74.09,9.73,1.32,2.47,1,4.43,3.45,6.38,5.48,5.21,5.4,12.52,6.71,19,7.83,11.37,1.94,22.63,6,34.54,4.11,2.21-.36,4.6.53,6.91.75,5.41.5,8.82-3.56,6.13-8.11-3-5-2.25-9.77-1.75-14.93.18-1.86-.79-5-2.12-5.62-4.51-2-3.88-5.34-1.66-7.59,5.68-5.78,6.81-12.71,6.53-20.18-.12-3.25-.84-6.48-1.14-9.73s-.37-6.55-.62-9.82c-.1-1.38-.4-2.74-.61-4.1-1.44.58-2.92,1.08-4.3,1.79-.54.27-.84,1-1.24,1.54-3.23,4.38-5.37,4.58-9.94,1.87-1.56-.91-4.59-1.43-5.73-.55-2.91,2.24-5,2.26-7.21-.54-2.42-3.11-3.44-6.48-1.07-10.09,2.68-4.1,5.3-8.24,8.25-12.14a9.14,9.14,0,0,1,4.61-3.28c2.71-.7,4.5.5,2.73,3.53-2.14,3.68-2.23,6.62,2.19,8.46,4.2,1.75,6.86.81,8.14-4.3s1.24-10.76,1.9-16.15q.82-6.78,2-13.52c.55-3.24,1.69-6.41,1.92-9.66.09-1.38-1.49-2.87-2.31-4.3-1.49,1.05-3.34,1.84-4.41,3.23-1.68,2.19-2.59,5-4.34,7.12a6.93,6.93,0,0,1-4.57,2.23c-1.51.06-3.08-1.16-4.62-1.81a23.42,23.42,0,0,1,3.21-3.24A41.81,41.81,0,0,0,153,566c2.66-5.05,5.8-9.76,4.51-15.67a13.86,13.86,0,0,0-3.63-6.58c-1.89-1.84-4.24-1.67-6.57.54-6.13,5.79-6.19,6.6-3.68,14.38.62,2-1.17,5.08-2.6,7.16s-3.48,2.87-6,.58c-.74-.69-3.75-.39-4.28.41-1.77,2.66-3.92,5.71-4,8.68-.19,5.33-4.06,7.36-9.09,5.65a7.21,7.21,0,0,1-2.28-1c-3.9-3.12-6.57-6.9-12.87-1.86-4.77,3.82-11.26-1.76-11-8.32.1-2.1.48-4.18.84-7.15-2.8,1.35-5.21,2.28-7.39,3.59-4.87,3-7.65,2.19-9.93-3.07-.53-1.22-.49-3-1.35-3.7-3.71-3.15-3.47-5.42.35-8.56,2.57-2.13,1.75-4.71-1.92-5.79-3.5-1-7.72-7-6.18-10.07,1.14-2.24,4.61-3.78,7.36-4.61,5.12-1.57,10.59-2,15.7-3.63,4.71-1.48,8.85-3.1,11.91,2.68.74,1.39,2.71,2.51,4.34,3,4.17,1.2,3,3.41,1.13,5.43a65.92,65.92,0,0,1-6.39,5.31c5.72,3.24,8.69,2.7,11.72-1.42a38.78,38.78,0,0,1,3.52-3.5c1-1,1.88-2.14,3.47-4l-9-2.54,1.76-4.81c1.19-3.21.59-5.63-1.64-8.62-3.11-4.16-7.5-8.38-3.55-15,1.22-2-.46-6.44-1.87-9.23-1.25-2.48-3.79-4.44-6.11-6.17-.85-.63-2.84-.28-4.06.23-7.3,3.05-9,.7-13.63-5.23-1.55-2-1.21-4.24,1.75-5,3.35-.83,6.94-1,10.07-2.31,2.81-1.17,5.11-3.52,7.69-5.27,1.54-1,3.3-1.79,4.74-2.94,1.88-1.5,3.54-3.27,5.3-4.93-2.58-1.05-5.09-2.61-7.77-3-3-.46-4,1.72-3.38,4.57.64,3.07-1,4-3.68,3.53-2.26-.4-4.46-1.12-6.64-1.68-3.51,7.09-7.14,7.79-14.36,3.5-2-1.19-4.85-.87-7.07-1.8a15,15,0,0,1-5.95-4c-.49-.61,1.18-3.62,2.5-4.87,5.45-5.16,11.29-4.24,17,2.6.74-.49,1.79-.83,2.24-1.55,2.53-4.1,5.64-5.66,10.49-3.7,1.39.56,3.55-.78,5.35-1.26-.68-1.7-.94-3.83-2.14-5-2.91-2.89-3-4.52.4-7.5,3.93-3.42,7.26-7.86,6-14-.57-2.79.22-5.21,3.69-5.06,4.23.18,5.74-2.53,7.22-5.92-2.87-1.94-5.26-4-2.67-7.68.09-.13-2.19-2.79-3.39-2.81-5.46-.07-11.87-2-14.19,7-3.53-4.46-9.22-5.46-8.3-11.9.12-.83-2.1-2.64-3.47-2.94-7.37-1.58-8.9-3.4-8.38-10.7.08-1.14.3-2.83-.33-3.36-4.29-3.66-2.52-8.6-3-13-.12-1.12-.25-2.88.38-3.36,5.3-4,2.49-9.54,2.54-14.29,0-2.31-2.64-4.6-3.92-7-.84-1.58-2.38-4.31-1.88-4.8,1.84-1.83,5.07-4.65,6.55-4.05,7,2.8,11.54-.92,16.1-4.75,1.1-.92.94-3.33,1.36-5.06-1.43-.18-3.22-1-4.23-.4-2.35,1.34-4.64,5-6.4,4.72-3.87-.7-7.41-3.28-11.06-5.14a28,28,0,0,1-2.52-1.59c-1.91-1.22-5.53-2.64-5.42-3.65.41-3.87-.41-8.5,4.26-11,3.74-2,10.17.35,12.61,5,3.19,6.05,5,6.44,10,2.19,4.15-3.54,6.17-3.26,9.93,1.19,2.42,2.85,4.38,6.63,9.15,5.57a14.46,14.46,0,0,0,3-1.67c-1.25-1-2-2-2.9-2.18-2.74-.61-4.42-1.78-4.69-4.89a5.65,5.65,0,0,0-2.41-3.42c-3.58-2.51-3-5.12-.59-7.95.32-.37,1-.59,1.11-1,.34-2.08.53-4.18.77-6.28-2.1.72-4.57,1-6.2,2.28s-2.38,3.92-3.88,5.64c-4,4.59-9.64,5-14.54,1.28a22.58,22.58,0,0,0-3.31-2.19c-4.28-2.16-5.82-5.28-4.39-9.13,1.29-3.45,6.46-6.44,9.92-5.72a6.54,6.54,0,0,0,1.45.36c1.24-.05,2.48-.22,3.72-.34-.26-1.39-.15-3-.85-4.12-3.86-6.12-3.44-7.2,3.28-9,1.52-.4,3.79-1.87,3.87-3,.15-2-.46-4.78-1.83-6.18-5.5-5.6-11.73-10.5-17-16.29-1.74-1.92-2-5.87-1.62-8.69.17-1.17,3.89-2,6.09-2.6,1.21-.34,2.69.37,4,.13A3.76,3.76,0,0,0,83.42,239c.2-.66-.77-2-1.56-2.61-5.88-4.28-6.12-5.56-2.68-12.17a5.71,5.71,0,0,0,0-4c-.48-1.36-2.05-2.37-2.41-3.73-.56-2.09-1.45-5.41-.47-6.28,1.46-1.31,4.41-1.1,6.74-1.24.89,0,1.86,1.1,2.75,1a21.06,21.06,0,0,0,4.28-1.2c-.66-1.49-1-3.35-2.06-4.39-1.38-1.31-3.6-1.71-5.08-2.95-2.63-2.21-3.63-4.42.76-6.13,1-.39,2-2.41,2-3.61-.28-4.81,1.36-7.19,6-7.83,1.15-.16,2.32-.22,3.49-.27,3.48-.12,5.27-1.38,4.39-5.32-.5-2.24-.15-4.65-.32-7-.22-3.07-1.47-4.68-4.33-2.13-3.22,2.86-5.53,1.4-7.42-1.38-2-3-4.41-6.08-5.31-9.48-.46-1.74,1.42-5.11,3.2-6.24,5.55-3.55,11.69-6.15,17.31-9.6,2.07-1.27,4.42-3.74,4.72-5.92.67-4.87-.59-10,.3-14.82.73-4,3-7.84,5.33-11.26s5.6-5.93,8.12-9.12c.59-.75-.23-2.57-.32-3.9-.17-2.52-.25-5-.43-7.58a100.16,100.16,0,0,0-.9-10.11c-.63-3.58.06-5.54,4-6.42,4.5-1,6.7-6.43,4.92-10.73-.32-.77-1-1.53-1-2.26.1-1.89-.1-4.5,1-5.44s3.81-.52,5.41.2c5,2.27,4.52,2.39,5.06-2.93a9,9,0,0,1,4.27-6.24c4.17-2,6.18-4,4.59-8.83-.38-1.15,1.12-3.41,2.35-4.48s3.07-1.16,4.68-1.58c4.74-1.25,7.33-3.57,5.32-9-1.22-3.26.41-5.22,3.78-5.41,5.43-.31,11.69-.25,14.14,5S183.12,32,186,37.12c1.77,3.17,1.35,6.87,5.43,9.78a11.24,11.24,0,0,1,4.05,13.83c-.51,1.21.38,4.18,1.4,4.65,3,1.38,3.74,3.37,3.45,6.36-.36,3.67.94,5.57,5.16,5.18s12.7,7.59,12.4,11.69c-.13,1.92-2.14,3.74-3.41,5.52-.8,1.13-1.79,2.11-2.69,3.16,1.41.61,2.77,1.57,4.23,1.75,1.78.22,3.64-.32,5.47-.33,3.25,0,4.38,1.64,2.81,4.48-2.55,4.59-5.36,9-8.6,14.45a29.75,29.75,0,0,0,5.61,1.25c6.23.35,9.86,4.24,8.29,10.2-1.19,4.51.71,6.91,3.9,9.21a9.4,9.4,0,0,1,1.6,13.37c-1.6,1.89-2.72,4.19-4.4,6A142.6,142.6,0,0,1,219.26,169c-.95.81-3.39,0-5.12-.26s-3.65-1.38-5.23-1-2.89,2.06-4.31,3.17a24.58,24.58,0,0,0,3.26,3.75c1.13.88,3,.92,4,1.86,2.42,2.23,3.57,6.49,8.27,4.57,3.12-1.28,6.34-2.35,9.37-3.82,4-1.94,3.5,1.06,4,3.23s.55,5.32,2,6.59c2.86,2.47,6,1.69,8.74-1.33,3-3.38,3.57-2.75,5.46,1.41,2.08,4.59,3.35,9,2.85,14.07-.35,3.63-1.79,5.48-5.57,5.52-2.27,0-4.56.91-6.78.72-5.35-.46-7.73,3.91-11,6.58-1,.78-.45,3.4-.61,5.18,1.57-.35,3.29-.42,4.68-1.12,1.73-.88,3.05-2.64,4.82-3.37,1.94-.81,4.2-.88,6.32-1.27.22,2.49,1.59,6.14.46,7.26-4.23,4.2-3.68,8.65-2.86,13.74.7,4.42-4,8.93-9.36,9.79-1.8.29-3.91-.1-5.4.7a15.72,15.72,0,0,0-5.25,4.75c-.32.44,1.55,3.45,2.78,3.75,2.14.51,4.95.54,6.81-.47,3.71-2,6.9-5,10.51-7.24.46-.28,2.55,1.28,3.25,2.38a30,30,0,0,1,2.19,5.45c1.83-1.68,4.42-3,5.29-5.11,1.21-2.91,2.89-4.41,5.52-3.26,1.26.56,1.91,3.11,2.3,4.87a18.9,18.9,0,0,1,0,5.47c-.63,7.51-.66,7.51,6.25,9.43,3.62,1,4.91,4.05,3.11,7.36-2.19,4-6.9,5.22-11.21,2.87s-5.93-1.11-6.86,3.7a53.08,53.08,0,0,1-4.09,11.78c-.52,1.12-3.56,2.42-4,2-4.15-3.51-9.49,3.39-13.19-1.69a11.22,11.22,0,0,1-.95-2.3c-1.49-3.54-4.19-4.3-6.81-1.65s-4.73,5.35-6.76,7.68l7.22,7.29a23.2,23.2,0,0,0-4.46-.25,20.73,20.73,0,0,0-4,1.41,24.62,24.62,0,0,0,2.15,4.07,26.46,26.46,0,0,0,5,5.31c1.21.88,3.17.72,4.79,1,.16-1.44.86-3.09.39-4.28A63.31,63.31,0,0,0,223.19,301.8ZM201.43,135a14.78,14.78,0,0,0-3.93,0,17.12,17.12,0,0,0-3.62,2,16.56,16.56,0,0,0,2.6,3.27,31.08,31.08,0,0,0,6.29,3.9c1.53.66,3.42.49,5.14.69a34.15,34.15,0,0,0-2.49-5.69,30.28,30.28,0,0,0-4.14-4.27c5.3.09,5.58-4.19,6.59-7.72.28-1,.27-2.81-.22-3.06a4.91,4.91,0,0,0-3.58-.14C197.86,126.28,200.08,130.77,201.43,135ZM140.26,520.83c1.65-.06,3.66.45,4.87-.32a7.52,7.52,0,0,0,2.88-4.45c.15-.71-1.85-2.55-3-2.74a53.11,53.11,0,0,0-9.77-.46,5.62,5.62,0,0,0-3.81,1.52c-.5.6-.08,2.82.65,3.42a4.16,4.16,0,0,0,3.75.41c3.31-1.7,4.17,0,4.61,2.76-2.58-.49-5.21-.88-5.83,2.66-.49,2.76-.84,5.65,3.56,7C138.87,527.18,139.56,524,140.26,520.83ZM135.39,371a41.55,41.55,0,0,1-3.88-2.13c-2.92-2-5.29-1.27-7.34,1.3-1.73,2.16-3.51,4.3-5.08,6.57s-2.93,2.17-4.68.16c-2.26-2.6-4.71-3.42-7.67-.65a4.47,4.47,0,0,1-3.8.49c-4.48-1.49-6.76-.5-9.32,4.83a71.83,71.83,0,0,1,7.93,3.58c2.54,1.52,4.18,1.4,6.56-.62,1.7-1.44,5.79-2.76,6.76-1.88,3.52,3.21,5.52.92,8.15-.85,1.12-.75,3.22-1.43,4.09-.89,3.07,1.9,4.84.63,5.9-2a68.21,68.21,0,0,0,2.24-8.07c1.31-.23,3.08,0,3.84-.78a20.11,20.11,0,0,1,12.4-5.74,9.53,9.53,0,0,0,3.94-2c.72-.52,1.69-1.71,1.51-2.24-.31-.9-1.41-2.12-2.23-2.16a16.13,16.13,0,0,0-6.35.73c-2.25.86-4.23,3.63-6.29,3.58C135.25,362.09,134.88,366,135.39,371ZM115.23,231.92a62.48,62.48,0,0,0,.51-8.72c-.12-1.75-1.32-3.41-2-5.11l-6,2.81c1,1.32,2,2.69,3.13,3.91.42.45,1.23.54,1.86.79l-1.16,2.21c-1.66-.59-3.29-1.29-5-1.73a13.25,13.25,0,0,0-4.57-.56c-.33,0-.51,2.13-.68,3.28-.2,1.43-.32,2.87-.47,4.3-.35,3.47-.69,6.93-1,10.4l1.85.85c1.22-8.34,5.78-12.57,13.78-12.57,0,1-.4,2.16,0,2.95a44.64,44.64,0,0,0,3.19,4.86c1.37-1.36,3.25-2.49,4-4.13,2.46-5.32,4.13-10.92,11.28-12.17,2.12-.37,3.83-3.08,6.1-5-1.94-1.36-3.06-2-4.06-2.86-3.1-2.56-6.89-4.72-1.77-9.26a3.33,3.33,0,0,0-2.51-5.9c-4,.56-7.79,2.86-11.57,4.62a14,14,0,0,0,1.42,3.86c1.06,1.81,3.84,4.15,3.4,5-1.91,3.91.36,6.3,2,8.26-3,3.1-5.64,5.94-8.45,8.58C117.61,231.33,116.3,231.49,115.23,231.92Zm22.59,189.86c1.73,3.91,2.56,6.43,3.91,8.64s1.23,3.62-.84,5.49c-5.09,4.61-4.73,7.71,1.79,9.32,3.92,1,8.54-.59,12.77-1.39.79-.14,1.44-2,1.78-3.24.83-2.94,1.51-5.93,2.12-8.92.29-1.42.94-3.27.34-4.29-2.71-4.62-4-10.34-9.78-12.73-3.52-1.46-3.18-4.14-.86-6.32a60.5,60.5,0,0,1,7.58-5.56c3.19-2.15,3.15-5.09-.23-6.95-1.37-.75-2.84-1.31-5.4-2.47,2.51-1.57,4-2.38,5.41-3.4,2.82-2.09,3.47-4.95,1.86-7.95s-4.28-3.17-7.2-1.38a23.23,23.23,0,0,1-4.18,1.57c-2.54.92-7,12.41-5.61,14.69.23.41.73.65,1.06,1,1.07,1.22,2.12,2.46,3.18,3.7-3.07,2.13-.94,8-6.35,8.54-3.33.31-5.22,2-4.34,5.73.16.67-.62,1.56-.81,2l-7.92-4.77c-.2.45.24-.11.28-.7.12-1.47.06-2.94.07-4.41-1.54.28-3.47.07-4.56.93-3.47,2.71-3.45,6.38-1.23,9.8a109.78,109.78,0,0,0,7.49,9.86c1.95,2.38,3.81,1.35,5.34-.62C134.74,426.34,135.85,424.6,137.82,421.78ZM124.21,290.72c-12.24,10.12-10.07,8.59-5,17.11.08.14.1.4.21.44,1.52.6,3.17,1.86,4.56,1.61,3.6-.65,4-3.27,1.19-7.29-1.46-2.09-2.52-4.53.85-4.7,5-.25,5.88-2.58,4.72-6.78,2.59-1,5.11-1.5,7.14-2.8,6-3.86,8.66-3.26,12.79,4.36-7.28-2.81-11.85.85-16.27,5-2.58,2.45-2.73,5.57-.13,7.08,3.9,2.25,10.14.35,12.65-3.42a48,48,0,0,1,6.4-7.48c1.82-1.79,5.21-2.79,5.81-4.77s-1.64-4.54-2.61-6.86a14.79,14.79,0,0,1-.5-1.41c-.82-2.63-2.51-3.4-5-2.31s-4.73,1.63-7.37-.5c-1-.77-4.55.22-5.7,1.51-4.51,5-8.29,5.94-14.24,2.67-3.56-2-7.06-2.26-10.86.81,1.62,2,2.71,4,4.4,5.11S121.39,289.72,124.21,290.72Zm84.61,191.7c-6.33-3.83-9.44-12.3-6.64-17.92,2.2-4.41.78-8.14-1.26-11.78-.47-.84-3-1.39-4-.91-3.77,1.74-4.54,5-2.28,8.48,2.1,3.25,2.22,6.61-.69,9-3.14,2.57-7.05,4.17-10.4,6.52a15.2,15.2,0,0,0-3.48,4.37,18.84,18.84,0,0,0-2.21,4.56,32.41,32.41,0,0,0-.75,5c1.44-.16,3.23.16,4.28-.57A120.21,120.21,0,0,0,191.8,481c3.73-3.27,5.59-2.86,8,1.27.92,1.59,3.26,2.45,5.1,3.38a9.22,9.22,0,0,0,3.32.51c3.47.24,7.26,1.29,10.28.21,1.29-.46,1-5.41,1.48-8.82,2.81,2.72,5.91,5.94,9.28,8.85,1,.88,2.79,1,4.25,1.2.25,0,1.23-1.92.95-2.32-2.31-3.36-4.22-7.7-7.49-9.49a17.72,17.72,0,0,1-6.77-5.73c-.93-1.35-3.75-1.53-5.78-1.88-.52-.08-2,1.57-1.83,1.85C215.28,475.37,209.11,477.64,208.82,482.42Zm-55.42,5.91L152,487.27a39.92,39.92,0,0,0,3.06-5.62,32.05,32.05,0,0,0,2.08-8.64c.08-1.36-1.67-2.82-2.59-4.24-1.32,1-3,1.83-3.87,3.18-3.12,5.1-2.82,4.91-7.68,1.32-1.61-1.19-4.48-.67-6.78-.92.61,1.67.81,3.7,1.91,4.92,1.44,1.61,3.62,2.53,5.41,3.85a10.55,10.55,0,0,1,2.77,2.54c1.37,2.15,2.47,4.47,3.95,7.23-1.23.27-2.58.59-3.94.87-5.65,1.12-11.64-.21-16.79,4.48-2.73,2.49-7.71,2.48-11.63,3.71-1,.33-2.56.92-2.74,1.66-.25,1,.39,2.41,1,3.47a31.83,31.83,0,0,0,2.77,4c1,1.31,2.1,2.55,3.16,3.81,1.54-1.29,3.85-2.3,4.48-3.95,1.38-3.56,3.07-4.58,6.79-3.33,5.52,1.85,9,.3,12.61-4.15,1.34-1.65,3.66-2.48,5.43-3.83a103.77,103.77,0,0,0,8.13-6.65c.49-.46.2-2.27-.3-3.11-.3-.52-1.72-.61-2.6-.51A17.44,17.44,0,0,0,153.4,488.33Zm26-195.68,1.08-.77c0-.67.25-1.48-.05-2-1-1.62-1.85-3.82-3.35-4.51-2.42-1.12-4.12.21-5.21,3a10.51,10.51,0,0,1-4.42,4.92c-4.31,2.35-3.38,6.32-3,9.66.12,1.12,3.65,2.08,5.73,2.74,7.82,2.47,15.63,5,24.06,4.39.95-.07,1.93,2,3.07,2.24,2.15.48,4.82,1.12,6.5.24,1.11-.59,1.27-3.73,1.19-5.7a33.87,33.87,0,0,0-1.41-8.68c-.67-2.13-1.86-5-3.54-5.65-1.88-.72-5,.1-6.74,1.41-.82.64.48,3.93.68,6,.15,1.56.08,3.15.11,4.73-1.94-.42-4.21-.33-5.72-1.37-2-1.34-3.41-3.53-5-5.43C182,296.2,180.72,294.4,179.39,292.65Zm-9.61-74c2.7-2.1,4.69-4.36,7.18-5.38,2.21-.9,5.55-1.35,7.33-.26s3.27,4.6,2.81,6.57c-.81,3.5.72,5.6,3.08,6.4,2.14.71,5.68.58,7.19-.77,3.83-3.41,6.87-7.72,9.82-11.2-3.27-2.17-7.19-3.55-9-6.31-2.06-3.13-4-4.43-7.52-4.28-6.61.27-6.53.1-6.59-6.55,0-1.57-1.44-3.12-2.22-4.68-1.76,1.17-4,2-5.18,3.58-2.64,3.67-4.5,7.89-7.13,11.56S166.55,214.47,169.78,218.68Zm53.34,54.54c-3-4.28-4.94-8.2-7.94-11-2.52-2.33-5.66-.74-8.62,1.05-2.76,1.66-6.23,2.11-9.38,3.13-1.22.4-3,.53-3.52,1.39-1.68,2.85-3.48,4.16-6.77,2.48-.31-.15-2.1,1.46-2.33,2.46-1,4.23,2.24,5.76,5.24,7.32,1.87,1,4.45,1.51,5.45,3.06,2.54,3.91,5,3.14,7.73.7,4.26-3.85,8.67-7,14.9-6.8C219.33,277.08,220.84,275,223.12,273.22Zm-84.66,63.43c-.66,3-.82,5.67-1.83,7.93-1.47,3.34-1.6,6.71,1.47,8.4,2.19,1.21,5.51.81,8.24.44,1.84-.26,3.55-1.64,5.26-2.63s5.1-2.28,5.11-3.46c0-2.24-1.82-4.51-2.88-6.77-.85-1.83-2.9-4.28-2.33-5.41,2.54-5-.66-5.24-3.89-5-4.05.3-7.69.45-11-2.74-1.07-1-5.28-.87-5.66-.08a15.39,15.39,0,0,0-1.27,7.92c.06.74,3.2,1.32,5,1.74C135.51,337.19,136.51,336.85,138.46,336.65Zm1.1-66.41c2.49-.57,3.82-.54,4.71-1.15,1.77-1.2,4.16-2.52,4.62-4.24.34-1.3-1.62-3.68-3.12-4.86s-3.86-1.8-5.87-2.54c-11.51-4.24-23.2,2.37-34.75-.51a1.66,1.66,0,0,0-1.41.35,45.79,45.79,0,0,0-4.12,5.42c-.15.24,1.54,2.27,2,2.14a35.68,35.68,0,0,0,5.8-2.44c.26-.12.39-.72.61-.74,1-.08,2.76-.36,2.91,0,1.72,4,4.21,2.37,7,1.48,1.44-.46,3.32.62,5,.65,2.48.05,5.39.57,7.36-.5,4.91-2.66,5.12-2.69,6.17,2.5C136.88,267.57,138.69,269,139.56,270.24Zm47.5-16.44c2.73-2.47,6.27-4.33,7.57-7.2,1.49-3.31-2.09-4.85-4.84-6.3a5.31,5.31,0,0,1-2.53-3.69c-.29-5.2-4.15-5.28-7.52-5.16s-7.24.33-7,5.68c.07,1.49-1.6,3-2.42,4.59-.93,1.77-1.8,3.57-2.7,5.35,2,.29,4.13,1.2,5.91.73,3.28-.87,5.61-1,7.62,2.39C182,251.62,184.3,252.19,187.06,253.8Zm12.79,184c-2.2-2.69-4.68-5-6.21-7.87-1-1.8-.84-4.41-.52-6.56.07-.5,2.89-.9,4.42-.82,3.51.18,4.12-1.89,3.33-4.42a11,11,0,0,0-3.2-4.35,5.88,5.88,0,0,0-3.71-1.65c-.59,0-1.12,2-1.73,3.1a28,28,0,0,1-2.4,3.89c-3.05,3.71-6.5,7.14-9.14,11.12-.69,1,.5,4.1,1.69,5.48,2.56,3,5.79,5.33,8.55,8.12,4.1,4.14,4,4.19,6.16-1.39A32.12,32.12,0,0,1,199.85,437.75Zm-8.57-78.93c-6.16-5.57-11.5-10.57-19.48-8.58A10.17,10.17,0,0,0,167,353.7c-.57.68-.11,3.43.26,3.51,2,.42,4.49,1.08,6,.21,3.63-2.11,6.42-1.26,8.79,1.46,2.52,2.89,5,4.33,9,3,1.07-.36,2.86,1.17,4.21,2,1.1.68,1.94,2.14,3.06,2.35,4.48.84,6.48,2.75,4.66,7.54-.33.85,1,2.52,1.86,3.51.27.3,2-.14,2.5-.71,2-2.14,1.25-11.31-1.16-13.12-3.9-2.92-8-5.61-13-9.09C192.68,355.64,192,357.18,191.28,358.82ZM130.43,460.33l.61,1.6a65.31,65.31,0,0,0-6.64,6.33c-.81,1-.76,3-.47,4.43.14.7,1.73,1.6,2.63,1.56,4.81-.18,8.67-4.44,9-9.41.28-3.77.82-7.52,1.38-12.47-2.56.37-5.46.71-8.34,1.22-3.14.55-6.23,1.42-9.38,1.82-1.59.2-3.6-1-4.83-.34s-2.82,3-2.49,4.09c.86,2.93,9.74,4.62,12.54,3.07C126.27,461.24,128.44,460.94,130.43,460.33ZM236.06,384c1.52-1.17,3.63-2.21,4.79-3.91.71-1,.19-4.41-.13-4.46-2.63-.41-5.71-1.1-7.95-.12-3.29,1.44-5.68,1.39-9.18.38-2.39-.68-5.84,2.59-8.9,3.88a32.68,32.68,0,0,1-4.95,1.28c.55,2.17.57,4.7,1.75,6.44,2.45,3.6,5.8,3,9.15.91C225.13,385.5,229,380.63,236.06,384ZM114.13,197.52,114,199a35.94,35.94,0,0,0-5.43,1.05,24.39,24.39,0,0,0-4.17,2.37c1.53.69,3.08,2,4.58,2,6.41-.16,9-5.4,12.55-9.26,2.05-.52,5.37-1.36,5.44-2.43.48-6.51-2.31-12-7.33-16.05-2.19-1.78-4.35-.95-4.58,2a15.31,15.31,0,0,0,1.16,5.69c.74,2.23,1.79,4.35,2.7,6.51-2.47.07-4.94.15-7.42.18-.31,0-.71-.38-.93-.28-1.19.55-2.34,1.2-3.5,1.81.67,1,1.15,2.27,2.07,2.86A32.7,32.7,0,0,0,114.13,197.52Zm62.58-99c-.33,1.29-1.28,3.06-1.1,4.72.34,3.22,1.28,6.26-2.8,8-.54.23-.77,2.89-.17,3.7A10.53,10.53,0,0,0,177,118c3,1.26,4.5,2.47,1.16,5.11-.62.49-1.22,2.16-1,2.36A4.27,4.27,0,0,0,180,126.8a14.35,14.35,0,0,0,4-1.65c1.7-.8,3.39-1.64,5-2.53,1.08-.59,2.72-1.12,3-2s-.47-2.6-1.29-3.4a11.3,11.3,0,0,0-4.2-2.48c-6.24-2.1-6.85-3.3-4.26-9.18C183.71,102.3,181.3,98.21,176.71,98.51ZM99.24,336c1.92,4.86,3.25,8.59,5,12.15.21.45,2.65.45,3.52-.14a63.66,63.66,0,0,0,6.88-5.62c5.16-4.64,5.14-4.66,1.07-9.88a2.3,2.3,0,0,1-.23-.44c-2.45-5.74-7.09-2.33-10.28-1.72C102.77,330.82,101,334.27,99.24,336Zm60.6-171a28.41,28.41,0,0,0-2.33-2c-5.41-3.79-11.12-7.26-13.58-14a3.62,3.62,0,0,0-1.79-1.65c-5.29-2.49-10.54-5.08-16-7.16-.82-.31-3.62,1.79-3.74,3-.34,3.3,2.34,4.08,5,3.88,6.81-.51,10.26,3.05,12.31,9.13,1.43,4.24,3.86,7.54,9.4,7.19,2.1-.13,4.3,1.72,6.48,2.57a6.83,6.83,0,0,0,2.72.56C158.8,166.5,159.2,165.71,159.84,165Zm56.34,163.66.55,1.49c2.05-.73,5.07-.91,5.87-2.33s-.56-4.11-1.2-6.17a26.09,26.09,0,0,0-2.06-4.5c-1.83-3.44-5.12-4.22-8-2.59-2.2,1.23-3.72,4-5,6.33a14,14,0,0,0-1.2,5.41,11,11,0,0,0,.33,5c.18.46,2.75.28,4.09-.09C211.77,330.57,214,329.55,216.18,328.69ZM190.83,177.11a72.64,72.64,0,0,0-6-4.74c-1-.61-3.1-1.08-3.56-.58-3.64,4-8.45,3.11-13,3.57-1.18.13-3.12.88-3.24,1.58a5.35,5.35,0,0,0,1.36,3.78C172.43,187.77,185,186.06,190.83,177.11ZM80.45,349.1c-.54.68-2.3,1.92-2.51,3.39a16.26,16.26,0,0,0,.76,7.25c.33,1,2.93,2.24,3.67,1.85,4.55-2.47,7.6-.92,10.9,2.52,2.73,2.84,5.52,1.69,6.08-1.9.48-3.08-4.64-11.21-7.62-11.75C88.46,349.88,85.13,349.65,80.45,349.1Zm92,31c3-3.48,4-6.95.6-10.7-.65-.71-.17-2.36-.68-3.33-.77-1.45-1.71-3.15-3.05-3.85-1-.52-3.72.05-3.92.7-.48,1.48-.08,3.35.31,5,1.06,4.46,2.91,8.83,3.3,13.34s6.25,13.76,10.73,14.64c1.2.23,3.2-.24,3.77-1.1s-.09-2.83-.88-3.75C179.41,387.33,176,383.85,172.42,380.09Zm-5.84-52.18c.29.46.36.71.47.73,7.3,1.32,14.27,3.24,19.71,8.9.63.67,3.24-.56,4.94-.92-.55-1.22-.75-2.91-1.69-3.59-3.66-2.63-7.81-4.62-11.27-7.47-3-2.46-8.28-3.24-7.43-9.23.17-1.14-2.27-2.87-3.79-3.89-.52-.35-2.63.42-2.79,1-.38,1.41-.64,3.84.12,4.4C168.93,320.84,168.91,324.26,166.58,327.91Zm-20.39-80.53.26-2.23c3.23-.16,6.48-.17,9.68-.57,1.25-.16,2.4-1.2,3.59-1.83-1.05-.84-2-2.13-3.18-2.44-7.93-2.07-13.66,2.5-19.09,7.09-2.34,2-1.45,4.23,1.82,4.89,2.9.58,6.07.6,8.66,1.84,5.76,2.74,7.68,2.33,11.28-4.39Zm16.7,60.32-.47-1.35c-3.38-.32-6.75-.81-10.13-.89-2.66-.07-3.85,1.22-4.21,4.27a11,11,0,0,1-3.84,6.6c-2.89,2.34-3,4.77-.5,6.46,1.92,1.3,5.88,2.2,7.26,1.13a14.68,14.68,0,0,0,5.2-8.38C156.89,311.3,158.4,308.63,162.89,307.7Zm2.2-239.37a4.53,4.53,0,0,1-.67-1.31c-.33-2.44,0-5.33-3.84-5.1-3.46.21-4.23,2.54-4.45,5.49-.14,1.79-.06,4.18-1.13,5.21-4.9,4.71.13,6.55,2.49,8.83.89.87,3,.46,4.57.63a16.37,16.37,0,0,0-1.12-4.15c-1.89-3.31-1.86-5.94,1.22-8,3.48,1.5.4,7.88,5.71,6.38,1.79-.51,4.09-3.42,4.09-5.23C172,65.81,167.34,69.59,165.09,68.33Zm46.27,331.13c-.65-2.67-6.32-9.79-8.17-9s-2.94,3.56-4.31,5.5c-.37.53-.45,1.28-.85,1.78-3.42,4.2.6,6.67,2.75,8.63,1.42,1.3,5.53,1.58,7,.45C209.7,405.31,210.23,402,211.36,399.46ZM186,451.14l2-1.39c-.85-1.84-1.31-4.06-2.64-5.42a98.25,98.25,0,0,0-8.42-7c-3.32-2.7-6.38-1.75-7.35,2.47a32.54,32.54,0,0,0-.84,7.42c0,1.44.87,2.87,1.35,4.3,1.61-.6,3.48-.88,4.74-1.91s2-2.84,3-4.33ZM101.17,248.37c-2.42-2.62-4.12-4.87-6.25-6.6a4.62,4.62,0,0,0-4-.31c-.72.32-1.36,2.43-1,3.31a61,61,0,0,0,5.12,10.14c.57.87,3.42,1.33,4.34.7,3.75-2.55,7.14-5.6,10.88-8.63C106.5,243.07,103.73,243.81,101.17,248.37Zm49.28-60.82.07.48c2.25-.37,5-.09,6.62-1.28s2.43-3.73,2.55-5.75c.11-1.65-.94-4.23-2.23-4.86-1.07-.52-3.23,1.2-4.91,1.93a18.89,18.89,0,0,1-4,1.69c-3.39.58-5.15,2.75-4.78,5.8.11.86,3.37,1.37,5.21,2A5.29,5.29,0,0,0,150.45,187.55ZM110.39,493.31a12.64,12.64,0,0,0,1.71,2.82,2.24,2.24,0,0,0,2.18-.1c2.16-3.49,7-5.35,6.33-10.66-.18-1.58,1.31-3.29,1.46-5,.12-1.43-.27-3.94-1-4.18-1.53-.49-4.65-.27-5,.53C113.93,481.92,112.36,487.35,110.39,493.31ZM145.2,97.75c4.9-.32,8.33-1.67,7.41-5.17s-3.89-6.3-6-9.41c-2.25,3-5.31,5.78-6.36,9.17C139.86,93.68,143.91,96.41,145.2,97.75Zm33.32,433.73c-2.23,1.46-4.34,2.64-6.2,4.12a38.21,38.21,0,0,0-3.82,4c2.16,1.09,4.75,3.52,6.38,3,2.69-.87,4.27-1.51,6.43.94.77.88,3.18.32,4.84.41-.24-1.33-.09-2.94-.8-3.94C183.31,537.1,180.93,534.44,178.52,531.48Zm16.9-157.56c-.79-.95-1.68-2.56-3-3.45A3.47,3.47,0,0,0,189,371c-2.6,3.61-4.94,7.4-7.23,11.22-2,3.41,1,4.44,3.08,5.42a6.77,6.77,0,0,0,4-.28,13.72,13.72,0,0,1,6-11.2C195.17,375.92,195.12,375.22,195.42,373.92Zm-26-110.33c-4.91,2-6.82,5.31-3.52,8.22,3,2.67,6.83,4.49,10.45,6.37a3.41,3.41,0,0,0,3.2-1,3.84,3.84,0,0,0-.41-3.52C176.15,270.29,172.9,267.16,169.41,263.59Zm-19.77-59.91c-1.11.46-3.51.73-4.07,1.89s.74,3.22,1.61,4.66a8.94,8.94,0,0,0,3.15,3.14c1.7.93,4.21,2.37,5.42,1.75,1.95-1,4-3.41,4.29-5.44.17-1.33-2.57-3.38-4.39-4.5C154.19,204.27,152.16,204.26,149.64,203.68Zm55.1,55,1.6-1.23a9.86,9.86,0,0,0,2.31-1.63,104.08,104.08,0,0,0,6.78-9.23c.74-1.19.38-3.06.51-4.61-1.67,0-3.8-.68-4.94.1a56.33,56.33,0,0,0-8.57,7.47c-.78.8-.93,2.8-.55,4C202.46,255.39,203.75,257,204.74,258.7ZM196,103.46c1.73-.88,3.39-1.24,4.1-2.26.47-.66-.06-2.63-.79-3.42-3.53-3.79-7-7.47-7.44-13.09-.05-.64-1.94-1.16-3-1.73-.44,1-1.42,2-1.22,2.84a136.94,136.94,0,0,0,4.19,14.52C192.31,101.65,194.46,102.37,196,103.46Zm25.84,324.89c-.65-1.51-.8-2.68-1.32-2.87a3.17,3.17,0,0,0-2.66.31c-1.54,1.21-2.71,2.94-4.29,4.09a39.5,39.5,0,0,1-5.09,2.64c-1.33.71-3.71,1.48-3.72,2.23a11.7,11.7,0,0,0,1.67,6.31c.82,1.22,3,1.67,4.62,2.14.31.09,1.69-1.69,1.5-2.06-3.08-6,2.22-6.8,5.38-9A34,34,0,0,0,221.81,428.35Zm12.75-152.61a22.32,22.32,0,0,0,4.07-1.26c3.67-1.87,3.68-5.49,2.09-8.16-1.79-3-4.51-1.44-6.66.59a8.47,8.47,0,0,1-2.89,1.8c-2.26.8-6.32-.48-5.6,3.6.23,1.33,4.09,2.05,6.33,3A14.48,14.48,0,0,0,234.56,275.74Zm-28,149.36c1.6-.4,2.27-.35,2.53-.66,3.12-3.7,6.3-7.37,9.12-11.28.38-.54-1.07-2.39-1.67-3.63-1.16.68-3.07,1.14-3.36,2.09-1,3.3-2.81,4.15-6.19,4-1.18,0-3.44,3-3.45,4.58S205.64,423.68,206.59,425.1Zm13.21-224,5.78-2.94c-1.35-1.4-2.47-3.19-4.09-4.12a53.21,53.21,0,0,0-8.56-3.68,28.06,28.06,0,0,0-4.79-.84c.27,1.79-.1,4.43.93,5.21C212.36,197.17,216.17,199,219.8,201.05ZM148.12,456.77a58,58,0,0,0,4.4,5.59c.52.54,2.83.43,3,.06a52.71,52.71,0,0,0,2-6.69,2,2,0,0,0-.23-1c-1.07-2.8.63-7.78-4.15-7.71C147.93,447.13,149.51,452.34,148.12,456.77Zm19.54-48-1.13.11c.65,1.68,1,3.56,2.06,5,.56.76,2.32,1.09,3.39.87.61-.12,1.12-1.68,1.33-2.67.55-2.58.7-5.25,1.4-7.78.63-2.3-2.17-8.66-4.44-8.8a3.28,3.28,0,0,0-2.49,2.08C167.51,401.25,167.66,405,167.66,408.75Zm9.11-273.34,1.26-.65L175,131.12c-.93,1.28-2.28,2.43-2.72,3.85a33.3,33.3,0,0,0-1.87,9.47c0,2,1.52,4.18,2.85,5.9.47.62,3.3.51,3.49.07a13,13,0,0,0,.9-5.25C177.51,141.9,177.07,138.66,176.77,135.41Zm32.43,423.8c0-5-3.5-7-9.77-5.39-1.32.34-3.17,2.37-3.08,3.48a6.42,6.42,0,0,0,3,4.17c1.44.84,3.66.23,5.25.93C208.52,564.1,209.35,562.3,209.2,559.21ZM100.73,207.59l-.9-1.16-4.61,4c2.34,2.5,4.27,6.08,7.15,7.2s4.71-1.9,4.91-5.22C107.58,207.43,104.42,207.22,100.73,207.59ZM92.35,542c-2.36.46-3.68.64-4.94,1-4,1.08-4.44,2.84-2.21,6.36,1,1.67,1.09,3.95,1.91,5.82a14.38,14.38,0,0,0,2.43,3c.8-1.13,2-2.16,2.33-3.41a63.21,63.21,0,0,0,1.61-9.48C93.59,544.19,92.72,543,92.35,542Zm58.93-317.34c-4.53,1.34-7.9,2.09-11,3.45-.68.3-1.11,3.39-.44,4.16,3.28,3.82,11.69,1.85,12.85-3C153,227.84,151.75,226,151.28,224.66Zm41.86-41c-.71.54-3.27,1.55-3.39,2.8-.16,1.56,1.43,3.56,2.74,4.92a11.39,11.39,0,0,0,4.91,3.11c1.28.34,3.82-.25,4.26-1.17C203.09,190.29,197.79,183.63,193.14,183.61Zm-47.48-7.73c1.61-.41,4-.5,5.7-1.62,1.21-.8,1.51-3,2.22-4.54a18.86,18.86,0,0,0-3.78-1.56,37.34,37.34,0,0,0-7.14-.71c-1,0-2.69.67-3,1.47C138.69,171.21,142.58,175.87,145.66,175.88Zm31.83,300.89c-.68-3.22-.69-5.77-1.8-7.68-.88-1.49-3.13-2.18-4.76-3.23-.74,1.95-2.08,3.9-2,5.83s1.33,3.73,2.43,5.35a21.45,21.45,0,0,0,3.49,3.29Zm19.61,23.69-5.9-7.56q-3,3.24-6,6.46c2,1.66,3.83,3.9,6.14,4.73C192.41,504.48,194.47,502.2,197.1,500.46ZM154.61,126.71c-.77,2.84-1.87,4.67-1.52,6.15a24.92,24.92,0,0,0,3.44,7.87c.77,1.15,2.84,1.57,4.41,1.93.33.07,1.66-1.74,1.48-2.4a55.91,55.91,0,0,0-3.17-9.12C158.64,129.83,157.05,129,154.61,126.71ZM114.3,547.56a33.54,33.54,0,0,0,2.12,4.62,2.34,2.34,0,0,0,2.1-.22,95.4,95.4,0,0,0,5.74-10.25c.41-.91-.52-2.79-1.37-3.76-.43-.49-2.65-.35-3,.2C117.8,541.22,116.06,544.51,114.3,547.56Zm37.78-347.74c4.92-.3,8.34-1,8-5.14-.1-1.24-3.17-3.05-5-3.19-3.25-.24-6.73,1-6.56,5C148.63,197.9,151.38,199.2,152.08,199.82ZM106,168.16l2.27-.16c1.07-1.8,3.07-3.61,3-5.37-.12-4.52-4.38-4.33-7.39-4.62-1.32-.12-2.86,2-4.3,3ZM134.61,392.9c-1.93-2.26-2.9-3.8-4.27-4.75-.43-.3-2.3.75-2.92,1.61a26.72,26.72,0,0,0-3.43,6.12,10.4,10.4,0,0,0-.19,4.69c0,.41,1.71,1.15,1.92,1C128.63,398.85,131.42,396,134.61,392.9ZM105.09,471c-1.91,2.38-4.7,4.38-4.44,5.84.45,2.53,2.79,4.73,4.34,7.06a92.82,92.82,0,0,0,4.77-9.17C109.93,474.34,107.44,472.85,105.09,471Zm51,63.46c-.3-.35-.73-1.27-1.09-1.25-4.17.31-8.35.73-12.47,1.4-.11,0,.3,3.21.47,4.92,4.26-1.28,8.52-2.55,12.76-3.87C155.89,535.62,155.89,535.08,156.05,534.47ZM119.86,169.54a67.26,67.26,0,0,0,7.28-6c.63-.66-.13-2.64-.25-4a27.06,27.06,0,0,0-4,1,20.5,20.5,0,0,0-4.73,2.54c-1,.78-2.26,2.19-2.16,3.19S117.89,168,119.86,169.54Zm12.32,268.94c-2.91-2.43-5-4.63-7.56-5.94-.53-.27-2.76,2.76-4.2,4.27a93.31,93.31,0,0,0,8.1,4.77C129,441.8,130.34,440.08,132.18,438.48Zm64.3-118.56.21-2c-1.95-1.36-3.76-3.24-5.92-3.86-1-.3-4.11,2.26-4,2.71.82,2.31,2,5.11,3.86,6.18C191.71,323.57,194.49,321,196.48,319.92Zm-63.09-71.47c-2.9-2.27-5.3-4.66-5.69-4.37-2.2,1.65-3.92,3.95-5.81,6,1.35,1.19,3.08,3.61,4,3.33C128.14,252.71,130,250.8,133.39,248.45Zm-6.83-123.74c-3.07-2.91-3.91-8.44-9.49-6.35-.85.32-1.34,3.87-.71,5.39C117.82,127.22,122,127.59,126.56,124.71Zm.18,426.16c0,.08.39,1.5,1.09,1.7s2-.44,2.94-1a4.89,4.89,0,0,0,1.58-1.87c.81-1.5,2.49-3.72,2-4.5-1.11-1.76-3.33-2.82-5.09-4.16-.66,1.79-1.4,3.54-1.93,5.36A33.26,33.26,0,0,0,126.74,550.87Zm-20.9-107.82,2.93,4.29,6.32-5.65-4.79-4.5ZM131,165.27c-1.94,2.33-3.92,3.75-4.31,5.52-.26,1.17,1.76,2.85,2.75,4.3l6.24-5.75Zm22,96,.79,1.65a61.47,61.47,0,0,0,2.44,7.39c.39.86,2,1.19,3,1.76l.89-10.46Zm61.92-54.87-4.46,4.24c1.69,1.59,3.18,4,5.12,4.44,1.18.26,3-2.58,4.58-4ZM147.3,104.58l-5,4.1c1.44,1.73,2.61,4,4.45,4.94.75.4,4.22-2,4.2-3C150.9,108.86,149,107.18,147.3,104.58ZM248.61,256c-2.3,2.5-4.56,3.91-4.79,5.59-.16,1.12,2.89,3.94,4,3.69,1.75-.4,3.51-2.5,4.33-4.31C252.45,260.26,250.36,258.42,248.61,256ZM227,228.72l-7.48-7.22c-.74.83-2.27,2.13-2.1,2.41,1.63,2.71,3.55,5.24,5.38,7.82ZM182.87,83.93c-3-2.38-5.73-3.5-7.64.16-.75,1.43-.56,5,.23,5.32C181.06,92,180.21,86,182.87,83.93ZM168.46,344c4.68,3.74,10.56,3.5,13.09-.28C177.75,340.77,172.92,340.78,168.46,344Zm-34-209.85-.13-1.88a53.94,53.94,0,0,0-7.91-1.7c-1-.07-2.14,1.45-3.21,2.24,2.4,1.37,4.69,3.12,7.28,3.9C131.44,137,133.1,135,134.44,134.1ZM223.6,410c2,2.16,3.6,4.45,4.05,4.25,2-.93,3.78-2.57,5.63-3.95-1.25-1.2-2.44-3.31-3.75-3.39C228,406.78,226.33,408.44,223.6,410ZM113.24,365.43l3.77,4.63,5.88-5.48c-1-.85-2.22-2.55-3-2.38C117.91,362.66,116.12,364,113.24,365.43Zm84-211.72,5.43-4.58c-1.26-.73-2.68-2.24-3.75-2-2.1.43-4,1.81-6,2.81ZM197,157.8l-4.07,3.89c1.47,1.34,2.77,3,4.49,3.79.53.23,3-2,3.1-3.31C200.57,161.07,198.64,159.78,197,157.8Zm-7.25-19.26c-2.18-1.55-3.63-3.1-5.39-3.61-.86-.24-2.27,1.45-3.44,2.26l5.35,5.28Zm-31.45,367-3.38-3.89-4.12,5c.9.75,2.08,2.3,2.66,2.1C155,508.18,156.27,506.91,158.25,505.53Zm11.44-332.74c1.28-2.36,2.51-3.78,2.73-5.34.13-1-1.24-2.18-1.93-3.28a39.92,39.92,0,0,0-4.26,4.77C166.06,169.18,167.85,170.78,169.69,172.79Zm-61.55,375-4.29,4.5c1.25.87,2.61,2.55,3.73,2.4,1.37-.18,2.83-1.72,3.62-3C111.44,551.2,109.61,549.56,108.14,547.75Z" transform="translate(-57.76 -16.54)" fill="#630"/><path d="M283.48,495.65c1.91-2.1,2.81-3.21,3.84-4.19,3.22-3.07,3.58-6.23.46-9.58-2.16-2.32-4.4-5.62-1.48-7.72,2.38-1.7,7.59-2.59,9.57-1.14,6.64,4.82,14.45,4.58,21.64,6.79a78.72,78.72,0,0,1,8.19,3.24c7.93,3.48,15.88,2.22,24,.53,3.4-.71,7-.43,10.52-.53,1.65,0,3.36.38,4.94.06,12.61-2.58,24.59.93,36.71,3.45,3.82.79,7.95,1.41,11.73.8,5.36-.87,10.45-3.28,15.79-4.4,4.84-1,9.92-.84,14.76-1.85,3.27-.68,6.21-2.82,9.46-3.75,4.1-1.19,8.36-2.53,12.55-2.53,8.81,0,17.61,1.12,26.42,1.23,3.33,0,6.67-1.49,10-2.25,2.57-.58,5.15-1.52,7.74-1.55,9.82-.14,19.68-.35,29.48.18s19,4.46,27.75,8.78a12.17,12.17,0,0,0,11,.31,19,19,0,0,1,7.27-1.47c13-.15,26-.5,39,0,9.25.37,18.48,1.85,27.69,3.1A72,72,0,0,0,677.17,482c8.65-1.8,17.85-1.17,26.81-1.19,1.26,0,2.52,2.38,3.78,3.65-1.39,1-2.7,2.78-4.18,2.94-3.44.38-6,1.14-8.51,4.09-1.43,1.7-5.19,1.66-8,2-1.76.19-3.61-.67-5.41-.68-14-.15-28-.34-42-.18-3.4,0-6.79,1.35-10.18,2.07-2.1.45-4.2,1.24-6.31,1.28-12.29.21-24.57.25-36.86.35-7.31.05-14.66-.4-21.91.28-18.65,1.75-37.12-1.76-55.66-1.4-16.26.32-32.49,2.19-48.73,3.27a28.51,28.51,0,0,1-6.29-.58c-3.42-.54-6.81-1.4-10.25-1.73-.94-.09-2,1.26-3,2,.75.94,1.31,2.31,2.28,2.75,9.75,4.47,19.9,4.36,30.21,2.41a27.64,27.64,0,0,1,6.43-.38q22.18,1,44.37,2.11c6.13.32,12.24,1.06,18.37,1.2,3.27.07,6.55-.75,9.82-1.14,7.87-.95,15.73-2,23.62-2.76a85.52,85.52,0,0,1,11,.11c19.29.74,38.57,1.65,57.87,2.12,3.14.08,6.37-2.71,9.48-2.55a205.12,205.12,0,0,1,24.7,2.9c1.69.29,3.16,3.1,4.17,5,.22.42-1.82,2.85-3,3.07-8.26,1.46-16.54,3.09-24.87,3.54-3.42.18-7-2.38-10.49-3.81-7.71-3.18-15.65-2.65-23.62-1.58-14.33,1.93-28.88,3-42.93,6.13-21.71,4.91-43.72,2.94-65.54,4.71-6.08.49-12.29-.61-18.44-1a7.69,7.69,0,0,1-3.37-.77c-10.31-6.31-20.46-4.91-30.73.15-1.68.83-3.91.47-5.86.8-3.55.61-7.2,1-10.6,2.08-4.88,1.58-6.69.88-6.89-4.17-.15-3.93-1.26-6.46-5.59-6.59-4.1-.11-5.82,2-6.51,6-1.16,6.67-5.87,8.21-11.77,4.75-2.14-1.26-5.21-.9-7.83-1.42-2.39-.46-5-.68-7.06-1.77-3.66-1.88-6.76-5.25-10.56-6.32s-8.1-.32-12.1.24c-4.2.59-8.26,2.45-12.46,2.78-7.61.59-15.27.59-22.91.53a11.17,11.17,0,0,1-5.53-2c-5.19-3.38-5.09-3.92-.58-8,2.09-1.9,4.27-4,2.23-7.3-2.19-3.52-4.63-1.82-7.29-.57-8.26,3.89-16.94,2.21-24.95,0-5-1.39-9.68-3.05-14.92-2.69C287.35,496.63,286.09,496.14,283.48,495.65Z" transform="translate(-57.76 -16.54)" fill="#630"/><path d="M62.2,608.19c0-13.82-.09-27.65.09-41.47,0-1.84,1.37-3.67,2.1-5.5,1.51,1.53,4.09,2.92,4.32,4.64.78,5.59,3.73,7.82,9,8.9,2.4.5,4.39,3.33,6.41,5.26,1.82,1.74,3.22,5,5.17,5.31a75.6,75.6,0,0,0,18.26,1c7.48-.65,8.41.71,7.6,8.09-.69,6.32-6.08,7.22-9.08,10.77-4.34,5.15-7.65,10.42-4.14,17.45a12,12,0,0,1,.8,3.88A13,13,0,0,0,114.45,638a10.73,10.73,0,0,1,5.21,2.67c3.47,3,6.73,5.9,11.9,4.34,1.24-.38,2.81.22,4.2.51,1.77.37,3.5,1.18,5.27,1.28,8.68.49,7.74.44,7.9,8.78.14,7.81-3.26,13.64-6.91,19.7-2.82,4.69-2.35,8.59,1.61,12.55,1.29,1.29,2.16,4.46,1.45,5.89s-3.67,3.08-5.54,3c-5.22-.31-10.21-1.14-14.77-4.8-8.42-6.76-18.14-11-28.89-13.34S76.71,669.09,70,660.24c-.69-.92-1.23-2.47-2.09-2.67-6.31-1.45-5.76-6.07-5.69-10.91.18-12.82.06-25.64.06-38.47Z" transform="translate(-57.76 -16.54)" fill="#630"/><path d="M676.37,779.79c0-11.33.11-22.67-.08-34-.06-3.67,1.29-5.23,4.86-5.23,16.33,0,32.75-1,49,.34,12.39,1.05,18.51,5.37,21.74,17.69,1.8,6.88-.87,13-5.72,17.59-3,2.8-2.4,4.57,0,6.33,7.44,5.38,8,12.88,7.09,21-.63,5.63-6.87,12.88-12.42,14.17-20.06,4.63-40.41,2.4-60.66,2.4-3.79,0-3.8-3-3.81-5.79Q676.36,797,676.37,779.79ZM721.62,793c-.5-1-1.11-4-2.93-5.36a11.48,11.48,0,0,0-7.55-1.84c-.92.09-1.79,3.55-2.21,5.57s-.09,3.95-.23,5.92c-.26,4,2,5.36,5.53,5.14C718.89,802.09,721.41,799.32,721.62,793Zm-12.7-28.54c.43,3.08-1.53,8,4.8,8,3.46,0,6.94-4.49,6.87-8.51-.09-4.89-2.79-7.54-7.42-7.44C707.39,756.58,709,760.74,708.92,764.42Z" transform="translate(-57.76 -16.54)" fill="#630"/><path d="M367.1,798.78c0,5.49-.08,11,0,16.48.07,3.88-1.34,5.79-5.55,5.77-9.65-.06-19.33.68-29,.22-11.27-.54-22.3-3.31-30.21-11.86-11.74-12.7-14.46-27.52-9.12-44.29,2.71-8.49,8-14.49,14.63-19.33a29.69,29.69,0,0,1,14.2-5.26,99.94,99.94,0,0,1,24.87.36c6.31,1,12.25,4.55,18.27,7.17,2.92,1.27,2.53,3.53,1,5.78-3.74,5.46-7.38,11-11.26,16.35-2.33,3.23-5.14,2-7.92.37-6.8-3.89-18.8-2.64-23.11,2.35-3.17,3.66-3.3,10.77.43,13.55,2.1,1.56,5.31,2,8.05,2.06.53,0,1.71-3.82,1.69-5.86-.05-3.85,1.48-5.58,5.25-5.57,7.83,0,15.65,0,23.48,0,3.31,0,4.32,1.74,4.28,4.73-.07,5.66,0,11.32,0,17Z" transform="translate(-57.76 -16.54)" fill="#630"/><path d="M57.76,880.11c-.21-17,8.18-29.08,22.32-36.85,5.08-2.79,12-3.64,17.92-3.24,28,1.88,41.58,29.29,34.66,53.21a38.86,38.86,0,0,1-19.38,24.18c-7.73,4.12-16.44,6.05-26,3.37-14.69-4.11-22.94-14-27.86-27.38C57.91,889.32,58.26,884.56,57.76,880.11Zm45.67-1.44c.12-4.59-3.07-8.36-7.21-8.52a8.31,8.31,0,0,0-.91,16.6C99.9,887,103.31,883.6,103.43,878.67Z" transform="translate(-57.76 -16.54)" fill="#630"/><path d="M351.55,880.5c0,11.48,0,23,0,34.45,0,3.61-1.62,5.15-5.15,5.1-12-.17-24-.24-35.95-.42-17.65-.26-29.58-14.86-28.76-32,.61-12.67,5.35-22.86,17.39-27.83,4.66-1.92,10.39-1.66,15.64-1.67,7.6,0,7.91,0,7.84-7.65a37.92,37.92,0,0,0-.18-4c-.4-3.38,1-5,4.46-5q10.23,0,20.47,0c3.52,0,4.42,1.82,4.37,5.12-.16,11.31-.06,22.63-.06,34Zm-29,10.71c0-4.26,1.25-8.9-5-9.09-4.08-.13-7.19,3.23-7.28,7.79-.09,4.17,3.9,8.69,7.8,8.76C324.18,898.77,322.18,894.1,322.52,891.21Z" transform="translate(-57.76 -16.54)" fill="#630"/><path d="M821.64,897c0,6-.13,12,.06,18,.11,3.45-1.35,5-4.63,5q-9.5.06-19,0c-3.88,0-5.45-1.7-5.29-5.94.39-10.15.49-20.32,0-30.45-.11-2.48-2.52-5.14-4.49-7.09-.67-.66-3.7.11-4.83,1.13a7.75,7.75,0,0,0-2.31,5.07c-.16,10.32-.22,20.65.13,31,.16,4.67-1.65,6.37-6,6.33-6.32-.06-12.65.13-19,.05-5-.06-5.87-1.53-5.62-6.35.31-5.8,0-11.64,0-17.45.08-15,.22-29.95.34-44.93,0-.67.08-1.33.05-2-.37-8-.31-8,8.07-7.7,5.65.18,11.32.12,17,.07,3.77,0,5.49,1.49,5.09,5.47a83.51,83.51,0,0,0-.32,11c0,1.52.41,3.69,1.42,4.34s3.47.24,4.43-.64c6-5.51,13.36-4.61,19.89-3.14,4.11.93,8.56,4.93,10.72,8.75,2.55,4.53,3.22,10.3,3.93,15.63.6,4.58.12,9.31.12,14Z" transform="translate(-57.76 -16.54)" fill="#630"/><path d="M640.77,922.9c-10.32-1.64-19-2.84-27.66-4.49-4.54-.87-5.92-4.35-4.48-8.65s2.37-8.64,3.73-12.91c.41-1.29,1.33-3.22,2.25-3.36,1.34-.21,3,.7,4.32,1.54,3.43,2.25,6.53,5,10.09,7,4,2.24,9.16.52,10.17-2.91s-2.32-7-7.08-8.77c-7.09-2.73-14-5.89-18.82-12.24-6.51-8.58-2.82-26.67,6.43-32.07,10.22-6,21.29-6.89,32.69-5.91,5,.43,9.9,1.3,14.85,2,6.87.91,8.15,3.25,5.65,9.69-1.32,3.38-2.07,7-3.22,10.44-1.62,4.88-3,5.15-6.8,1.75-4.18-3.73-8.72-7-14.72-5.78-1.8.36-4.53,1.87-4.7,3.14a6.53,6.53,0,0,0,2.71,5.33c7.31,4.16,15.08,7.52,22.34,11.77,5.11,3,7.52,7.91,8,14.07,1,11.78-3,21-14,25.46C655.33,920.85,647.18,921.52,640.77,922.9Z" transform="translate(-57.76 -16.54)" fill="#630"/><path d="M939.52,788.39c0-8.48.16-17-.07-25.46-.13-4.59,1.65-6.25,6.18-6.07,6,.25,12-.19,18,.1,1.84.09,4.65,1.19,5.19,2.56,1.43,3.57,3.22,2.81,5.83,1.78,4.39-1.72,8.81-3.86,13.41-4.49,11.47-1.57,21,9.4,21.06,20.27.08,12.48.08,25,.2,37.45,0,4.4-1.73,6.33-6.34,6-5.13-.32-10.3-.06-15.46-.09-4.83,0-6.33-1.81-6.27-6.82.1-9.81.2-19.63,0-29.45-.05-2.32-.79-5.24-2.33-6.71-1.29-1.24-4.58-1.59-6.31-.82s-3.22,3.41-3.27,5.26c-.25,10.31-.11,20.64.07,30.95.12,6.58-.84,7.7-7.21,7.62q-8-.09-16,0c-5.68,0-6.59-.78-6.63-6.61C939.48,805.37,939.52,796.88,939.52,788.39Z" transform="translate(-57.76 -16.54)" fill="#630"/><path d="M213.8,887.46c0,9.15-.11,18.31.06,27.46.06,3.5-1.57,4.94-4.72,5-6.49.1-13,.14-19.48.05-2.95-.05-5.28-.92-4.65-4.79.17-1.07-.58-2.29-.91-3.44-1.2.61-2.88.89-3.52,1.87-6.14,9.31-25.31,9.3-31,1.24a29,29,0,0,1-5.26-14.08c-.81-12.77-.56-25.62-.41-38.43,0-1.34,2.08-3.72,3.31-3.8a211.31,211.31,0,0,1,21.94-.26c1.07,0,2.85,3,2.89,4.59.24,10,.06,20,.05,30,0,4.77,2.64,8.16,6.36,7.58,4-.62,6.23-2.8,6.05-7.54-.39-10-.06-20-.27-30-.06-3.4,1-4.95,4.51-4.89,6.66.12,13.32.09,20,.07,3.7,0,5.22,1.24,5,5.42-.45,8-.13,16-.13,24Z" transform="translate(-57.76 -16.54)" fill="#630"/><path d="M895.32,889.15c.61,21.24-14.49,32.06-31.88,32.31-18.71.27-32.73-13.15-32.38-33.21.29-16.34,11.72-31.43,33-31.39C882.07,856.9,897.17,872.83,895.32,889.15Zm-32,6c3.69,0,7.19-3.32,7.2-6.75,0-3.65-3.69-6.9-7.71-6.78-4.18.12-6.62,2.5-6.54,6.4C856.38,892.61,858.94,895.2,863.34,895.17Z" transform="translate(-57.76 -16.54)" fill="#630"/><path d="M968.27,889.5c0,21.68-14.43,32.23-32.21,31.88-20.17-.39-32.09-12.79-32-33.06.06-17,10.94-31.65,32.81-31.38C956.44,857.19,969.34,871.57,968.27,889.5Zm-32.52,5.73c3.73,0,7.75-3.58,7.7-6.93s-3.78-6.48-7.53-6.56c-4.39-.1-7.39,2.73-7.33,6.92C928.65,892.6,931.46,895.19,935.75,895.23Z" transform="translate(-57.76 -16.54)" fill="#630"/><path d="M363,889.29c-1.48-18.78,13.46-32.28,31-32.36,22.74-.1,32.44,14.07,33,31.15.63,19.67-12.42,33.45-32.13,33.27C377.25,921.19,362.25,910.73,363,889.29Zm39.1-1.1c0-4-2.82-6.63-7.12-6.53-3.79.09-7.39,3.34-7.41,6.7s3.62,6.75,7.27,6.83C399.24,895.3,402.09,892.55,402.1,888.19Z" transform="translate(-57.76 -16.54)" fill="#630"/><path d="M436,889c-1.12-18.54,13.23-32.13,31.36-32.07,21.41.07,32.8,14.37,32.76,32.24,0,19.19-12.31,31.8-31.92,32.21C450.27,921.71,435.42,910.87,436,889Zm38.88-.91c-.13-4-3.15-6.6-7.34-6.42-3.79.16-7.17,3.45-7.18,7,0,3.74,3.59,6.73,7.9,6.57A6.52,6.52,0,0,0,474.85,888.05Z" transform="translate(-57.76 -16.54)" fill="#630"/><path d="M573.8,798.05c0,5.33-.11,10.66,0,16,.11,4.12-1.44,6.19-5.8,6.15-6.32-.06-13,1.58-18.87-.07-7.17-2.05-13.23-1.37-20.22.37-7.6,1.89-14.59-6-15.92-14.12-2.48-15.16,13.91-23.06,24.35-19.86,1.35.42,3.13-.54,4.71-.86-.62-1.67-.76-3.93-2-4.92-5.58-4.6-11.67-4.72-18.13-1.52-2.08,1-4.68,1-7,1.4-.35-2.14-1.07-4.31-1-6.44.36-10.69.43-10.68,11.08-14.28,1.1-.37,2.1-1,3.2-1.39,11.07-3.37,31.16-3.48,38.57,6.86,3.48,4.86,5.27,11.28,6.54,17.27,1,4.93.21,10.27.21,15.43Zm-36.38-1.4c-2.62.19-5.54.79-5.83,4.72-.24,3.29,3.54,7.39,6.69,7.29,4.79-.15,4.64-4,4.93-7.16C543.55,797.84,541.28,796.56,537.42,796.65Z" transform="translate(-57.76 -16.54)" fill="#630"/><path d="M822.45,796.48c0,6.33,0,12.66,0,19,0,4-1.56,5.63-5.88,5-3.92-.53-8,.24-12-.12-3.73-.33-7.36-1.67-11.09-2-2.66-.25-5.7-.28-8.07.73-7.7,3.3-16.86,1-20-5.57-4.9-10.09-2.56-20.35,5.67-24.39,5.14-2.52,10.32-4.51,16.31-2.72,1.42.43,3.4-1,5.11-1.56-.88-1.43-1.49-3.21-2.71-4.23-5.86-4.9-12.14-4.36-18.67-1.23-1.62.77-4,1.24-5.44.61-.89-.38-.88-3.15-1.05-4.86s0-3.33-.07-5c-.28-5.77,1.73-7.67,7.11-9.66a59.57,59.57,0,0,1,27.43-3.57c6.15.66,11.94,2.49,16.49,7.13,3.84,3.9,6.69,8.2,6.67,13.93,0,6.16,0,12.32,0,18.49Zm-29.07,6.86c.25-4.74-1.77-6.46-5.31-6.66-3.86-.22-7.67,2.64-6.52,5.56,1,2.63,3.91,5.65,6.5,6.26C791.85,809.41,793.14,805.8,793.38,803.34Z" transform="translate(-57.76 -16.54)" fill="#630"/><path d="M488,792.75c-3.82,0-7.68-.26-11.47.08-3.56.32-4.35,2.54-1.69,4.95,4.71,4.28,10.1,7,16.77,4.94,1.75-.53,3.46-1.23,5.24-1.61,2.25-.48,4.54-.7,6.81-1-.43,2.54-.23,5.42-1.4,7.57-4.22,7.78-12,11.29-19.89,12.78-13.48,2.53-26.14-.32-34.83-11.88-7.12-9.48-9-19.8-4.53-31.79,3.11-8.27,7.44-14.58,15.09-17.88,13.25-5.71,30.38-2.66,39.13,10.13,3.91,5.7,4.21,12.09,5.74,18.28.86,3.5-.87,5.44-4.48,5.5s-7,0-10.49,0Zm-8.2-11a4.3,4.3,0,0,0,2.85-.29c1.14-.79,2.49-3.42,2.12-3.86-1.73-2-3.78-4.28-6.19-5.18-3.42-1.28-8,2.11-8,5.45.08,4.14,3.54,3.52,6.2,3.87C477.27,781.77,477.77,781.71,479.76,781.71Z" transform="translate(-57.76 -16.54)" fill="#630"/><path d="M739.91,906.36c-.15,13.67,2.34,11.89-11.76,14.4-13.68,2.44-27.06,0-37-10.87-12.1-13.22-9-38.39,7.46-48.11,7.58-4.49,15.38-4.48,23.43-4.51,3.48,0,7,.64,10.43.92,5.95.49,7.87,2.81,7.56,8.69-.25,4.64-.1,9.3-.28,13.94-.06,1.51-.19,3.92-1,4.3-1.42.66-3.46.2-5.19-.09-4.15-.7-8.24-2-12.41-2.24a6.09,6.09,0,0,0-6.52,6.21c-.09,3.83,2.79,5.84,6.71,5.78,4.14,0,8.3,0,12.43-.4,5.25-.44,6.35.39,6.24,5.49,0,1-.07,2-.08,3C739.9,904,739.91,905.19,739.91,906.36Z" transform="translate(-57.76 -16.54)" fill="#630"/><path d="M861.66,822.21c-9.38-2.12-18-3.71-26.43-6.11-5.18-1.48-5.49-3.89-2.46-8.37a12.26,12.26,0,0,0,1.54-4.12c1.21-5.35,3.1-6.11,7.16-2,3.71,3.79,7.91,4.57,12.73,3.89a6,6,0,0,0,3.2-1.24c2.16-2,2.52-4.62-.12-6.32a30,30,0,0,0-9.4-4.42c-10.4-2.24-18.49-13.4-14.36-24.11a18.1,18.1,0,0,1,14.68-11.93c11.75-1.66,23.82-2.9,35.29,2.52,3.3,1.56,4.19,2.75,1.43,5.73-1.25,1.35-1.55,3.57-2.28,5.39-1.61,4-4,4.62-7.67,2.36-2.37-1.46-5-3.25-7.55-3.47-2-.16-4.47,1.6-6,3.22-.48.51,1,3.85,2.42,4.91A17.53,17.53,0,0,0,870.6,781c15.54,3.58,20.55,13,16.06,27.52-1,3.24-4.4,6.64-7.56,8.14C873.55,819.26,867.33,820.48,861.66,822.21Z" transform="translate(-57.76 -16.54)" fill="#630"/><path d="M378.73,788.12c0-8.49.14-17-.06-25.48-.11-4.2,1.09-6.13,5.68-5.86,6.14.36,12.32.14,18.48.14,3.28,0,5.6.77,5,4.89-.16,1.12.64,2.39,1,3.59a18.74,18.74,0,0,0,3.52-2c3.76-3.27,7.19-6.8,12.84-6.75,10,.08,16.92,11,12.39,19.94-1.65,3.25-1.66,7.39-6.43,8.78a19.65,19.65,0,0,1-14.07-1c-5.41-2.39-8.14-1.13-8.6,4.9-.56,7.29-.41,14.64-.38,22,0,8.23-1,9.32-9.09,9.05-4.49-.15-9-.19-13.48,0-5.54.27-6.75-.64-6.8-6.27C378.67,805.44,378.72,796.78,378.73,788.12Z" transform="translate(-57.76 -16.54)" fill="#630"/><path d="M509.83,888.84c0-8.64.15-17.29-.07-25.93-.09-3.27,1.17-4.73,4.2-4.77q10.49-.12,20.95,0c2.6,0,4.42,1,4.52,4.11,0,1.21,1.23,3.43,1.71,3.38a6.34,6.34,0,0,0,4.17-1.93c3.05-4.11,7-5.57,12-6,6.62-.53,13.86,5.13,13.46,12-.26,4.52,1,9.2-3.19,12.93a16,16,0,0,1-18.11,2.69c-6.39-3.18-7.44-3.22-8.6,3.81a132.77,132.77,0,0,0-1.22,24.75c.12,4.56-1.49,6.17-5.53,6.2-6.32,0-12.64,0-19-.07-3.8,0-5.63-1.36-5.42-5.73C510.11,905.81,509.83,897.32,509.83,888.84Z" transform="translate(-57.76 -16.54)" fill="#630"/><path d="M230.35,888c0-2-.13-4,0-6,.35-4.51-.1-8.17-6.13-7.5a3,3,0,0,1-2.42-1.25c-.27-.53.34-1.92,1-2.42q16.48-13.12,33.13-26.06c1.15-.89,2.83-1.1,4.27-1.62.2,1.56.5,3.11.58,4.68a27.92,27.92,0,0,1-.19,4c-.42,4.69,1.57,6.57,6.38,6.45,6.45-.15,6.59.27,6.38,6.74a11,11,0,0,0,.09,3c1.37,5.2-1.39,6.39-5.83,6.53-6.66.2-7.11.8-6.93,7.24,0,1,.11,2,.1,3-.08,9.92-.09,10,9.67,10.13,2.8,0,3.82,1.25,3.7,4-.19,4.31.38,8.71-.33,12.9-.41,2.4-2.25,5.69-4.27,6.48-8.29,3.24-17.28,3.7-25.3.06-8.62-3.91-13.12-11.77-13.9-21.36-.25-3,0-6,0-9Z" transform="translate(-57.76 -16.54)" fill="#630"/><path d="M618.45,740.6c0,3.78,0,6.59,0,9.41-.14,6,.79,7.27,6.82,6.83,4.77-.34,6.45,1.43,5.91,5.95a29,29,0,0,0-.09,3.49c0,7.59,0,7.67-7.37,7.52-3.1-.07-4.89,1.26-5.05,4.2a65.21,65.21,0,0,0,.07,11.94c.65,5,4.29,6.55,8.73,4.25,2.54-1.32,3.92-.46,3.95,2.23.05,5.82,0,11.64-.24,17.46a4.32,4.32,0,0,1-1.87,3.17c-13.6,6.72-28,4.54-36.67-7.95-2-2.81-2.73-6.78-3.06-10.31a130.8,130.8,0,0,1-.14-16.45c.23-7.35-1.42-8.89-10-7.28.93-2.2,1.17-4.25,2.32-5.22,10.91-9.16,22-18.15,33-27.16A32.1,32.1,0,0,1,618.45,740.6Z" transform="translate(-57.76 -16.54)" fill="#630"/><path d="M979.31,880.74c0-11.49.07-23,0-34.47,0-3.51,1.64-4.84,4.83-4.84,6.66,0,13.33.05,20,0,3.49,0,4.85,1.27,4.82,5.12q-.28,34,0,67.94c0,3.68-1.28,5.42-4.72,5.48q-10.23.16-20.48,0c-3.33,0-4.52-2.06-4.5-5.29.09-11.32,0-22.65,0-34Z" transform="translate(-57.76 -16.54)" fill="#630"/><path d="M898.08,789.07c0-8.32,0-16.64,0-25,0-4.46,1-4.8,5.33-4.3a112.69,112.69,0,0,0,18.82.55c4.26-.22,5.41.73,5.32,5.16-.32,15.64-.16,31.29-.09,46.93,0,7.06-.91,8.08-8,8.06q-8.22,0-16.45.08c-4.27.06-4.79-2.89-4.82-6.06-.06-8.49,0-17,0-25.46Z" transform="translate(-57.76 -16.54)" fill="#630"/><path d="M868.63,965.57c5.18,9.33.73,18-9.42,19.26-1,.13-2.14-.06-2.93.4a57.94,57.94,0,0,0-4.93,3.5c1.48,1.26,2.78,2.94,4.49,3.68,3.93,1.71,8.12,2.85,12.11,4.44,7.07,2.81,8.21,13.84,1.42,18.55-3.9,2.7-8.88,4.17-13.59,5.27-5.88,1.37-10.55-2.23-14.84-5.62-3.93-3.1-4.11-11.15-.55-14.8,3.25-3.34,6.58-6.64,6-11.76-.3-2.6-.64-5.7-2.18-7.55-5.37-6.45-3.57-17.61,3.79-21.49,4.45-2.36,8.54-3.54,13.59-.86,2,1.09,5.5-.55,8.33-.89,1.55-.19,3.13-.27,4.69-.4-.44,1.66-.48,3.6-1.42,4.89S870.35,964.36,868.63,965.57Zm-14,50.3a12.47,12.47,0,0,0,2.94-.36c2-.8,3.92-1.75,5.85-2.68,5.29-2.54,5.9-7,.85-10.07a38.67,38.67,0,0,0-11.91-4.47c-4.12-.89-10,6.52-8.28,10.05C846.3,1012.79,850.4,1014.83,854.63,1015.87Zm.53-35.83c6.45,0,9.86-2.91,9.9-8.48s-3.11-8.21-9.5-8.14c-5.62.06-9.36,3.27-9.4,8.09S850,980,855.16,980Z" transform="translate(-57.76 -16.54)" fill="#630"/><path d="M185.22,1022.37c-5.33-2.57-10.58-4.29-14.83-7.38-4.65-3.38-2.79-13.23,2.72-18,3.86-3.31,4.44-12.42,1-16.24-6.27-7-4.19-17.08,4-21.45,4.77-2.54,8.88-3.48,14-.63,1.89,1.06,5.22-.47,7.9-.84,1.49-.2,3-.43,4.46-.65-.3,1.64,0,4.13-1,4.76-3.5,2.29-3.41,4.74-2.38,8.46,1.79,6.49-4.51,13.84-11.68,14.49a21.85,21.85,0,0,0-6.3,1.09,4.33,4.33,0,0,0-2.14,3.44c.07,1,1.69,2.24,2.88,2.66,4.68,1.66,9.79,2.43,14.09,4.74,2.7,1.44,5.9,5,5.9,7.67,0,3.68-1.86,8.39-4.58,10.78C195.66,1018.5,190.44,1019.89,185.22,1022.37Zm-.13-5c4.72-2.83,8.64-4.8,12.08-7.39,2.07-1.56,2.43-4.15-.51-5.61-4.65-2.31-9.27-5.4-14.21-6.14-2.43-.36-5.68,3.63-8.25,6-.81.74-1.26,3.34-.74,3.81C177,1011.25,180.87,1014.1,185.09,1017.41Zm.71-37.36c6.29-.14,10.33-3.44,10.28-8.4s-4.23-8.47-10.36-8.38c-6.6.09-9.64,3-9.41,8.91C176.5,977.14,180.15,980.17,185.8,980.05Z" transform="translate(-57.76 -16.54)" fill="#630"/><path d="M945.69,977.36c-18.31,0-36.62.07-54.93-.13-1.77,0-3.52-1.74-5.27-2.67,1.79-1,3.57-2.87,5.37-2.88,33.46-.15,66.93-.11,100.4,0,7.44,0,7.94-.37,7.81-7.81-.16-9.32-.48-18.63-.32-27.94,0-1.55,2.09-3.06,3.22-4.58,1.16,1.42,3.32,2.83,3.35,4.28.25,12.31.11,24.63.1,36.95,0,3.53-1.63,4.92-5.29,4.89C982,977.28,963.84,977.36,945.69,977.36Z" transform="translate(-57.76 -16.54)" fill="#630"/><path d="M382.8,969.7c0-8.81-.14-17.63.13-26.43,0-1.46,1.82-2.87,2.79-4.31,1.48,1.26,4,2.34,4.24,3.81.57,3.38.12,7,0,10.45-.34,7,.45,7.6,7.16,6.39,6-1.08,12-1.63,16.67,3.6s8.64,15.74,4.36,22c-2.48,3.62-4.21,7.94-7.26,10.95-6.63,6.53-15.11,5.2-23,3.24-2-.49-4.25-4.29-4.43-6.71-.57-7.62-.21-15.31-.21-23Zm5.46,10.56,1.13.32c0,2-.44,4.12.1,6,.82,2.84,1.64,6.9,3.68,7.87,2.89,1.38,7.48,1.62,10.33.24,8.35-4,11.59-13.13,8.93-22s-14.26-12.17-20.13-5C389.7,970.8,389.53,976,388.26,980.26Z" transform="translate(-57.76 -16.54)" fill="#630"/><path d="M108.2,977.54c-13.64,0-27.28-.06-40.92,0-3.68,0-5.14-1.7-5.14-5.14q0-24.45,0-48.92c0-2.44.57-4.83,3.43-4,1.38.38,3.06,2.88,3.07,4.43q.16,21-.33,41.92c-.11,4.93,2.53,5.86,6.58,5.84q31.95-.1,63.91-.08c4,0,8-.18,12,.21,1.47.14,2.79,1.67,4.18,2.56-1.42.95-2.79,2.61-4.27,2.71-4.63.34-9.3.07-14,.07H108.2Z" transform="translate(-57.76 -16.54)" fill="#630"/><path d="M669.17,978.61c1.41,11.91-9.61,23-22.12,22.62-10.34-.3-21-9.32-20.1-23.27.8-12.17,11.38-21.17,22.11-21C659,957.11,670.65,964.42,669.17,978.61Zm-21.07-15c-10.54-1-14.12,7.19-14.54,16.09s6.61,16.42,14.58,16.41c8.76,0,15.41-7.55,15.32-17.39C663.37,968.39,658.42,963.52,648.1,963.63Z" transform="translate(-57.76 -16.54)" fill="#630"/><path d="M767,1001c-13.43.7-20.23-11.12-20.32-22.25-.09-11.61,11.48-23,22.84-21.91s20.49,8.06,20.42,21.56C789.82,990.39,781.76,1002,767,1001Zm-13.74-21.48c-.07,9.16,6.73,16.5,15.11,16.69,8.71.2,16-8.5,16.2-17.38.17-8.3-6.95-15.18-15.52-15.28C758.74,963.4,753.29,968.91,753.21,979.49Z" transform="translate(-57.76 -16.54)" fill="#630"/><path d="M460.08,970.91c-6.93-8.69-11.68-9.4-20.43-4.07-.69.42-2-.14-3-.25.21-1.87-.25-4.84.74-5.45a20,20,0,0,1,18.54-1.88c4.87,1.9,7.54,5.6,7.8,11,.42,8.76,1,17.51,1.44,26.26.18,3.54-1.68,3.48-4.53,2.8a12.88,12.88,0,0,0-7.26.07c-7.32,2.83-13.88,1.34-18.66-4.36-6-7.13-.43-16.53,5.66-18.88,4.38-1.69,9.28-2,13.91-3.07A50.35,50.35,0,0,0,460.08,970.91Zm-1,14.41c.46-4.7-2.83-5.45-6.32-5.74-9.21-.75-13,1.49-13.3,7.66a8.06,8.06,0,0,0,7.8,8.59C452.8,996.1,458.65,990.9,459.07,985.32Z" transform="translate(-57.76 -16.54)" fill="#630"/><path d="M329.53,979.44c.91,5.53,1.88,11.06,2.69,16.61.15,1-.12,2.89-.58,3-1.45.41-3.66.82-4.52.05-2.27-2-3.73-1.34-6.07,0-8.17,4.61-17.95.91-21.43-7.76-2.1-5.22,2.48-13.76,8.58-15.45,4.45-1.23,9.06-1.83,13.54-3a6.6,6.6,0,0,0,3.87-2.36c.38-.62-.91-2.59-1.83-3.61-3.63-4-11.7-4.44-16.48-1.23-1.16.78-2.8.82-4.21,1.2.29-1.79-.06-4.47,1-5.23,5.64-4.08,11.74-5.79,18.65-2.54,5.08,2.39,7.6,5.81,7.71,12.17.05,2.66,0,5.33,0,8Zm-10.84-1-.63,1c-1.82.18-3.65.24-5.44.55-5.19.9-7.45,4.46-6.33,9.79a8.05,8.05,0,0,0,9.58,5.8c2-.54,3.65-2.26,5.64-2.94,5-1.73,5.64-6,4.28-9.64C325,980.92,321.16,980,318.69,978.47Z" transform="translate(-57.76 -16.54)" fill="#630"/><path d="M270,980.32a18.62,18.62,0,0,0-3,0c-2.68.42-5.34,1-8,1.47,1,2.92,1.38,6.21,3,8.67,3.47,5.16,10.32,6.28,16,3.65,1.29-.59,3.17.11,4.79.21-.76,1.82-1,4.56-2.36,5.3-10.95,6-26.73-3.43-27.38-15.86-.45-8.72.64-16.65,8-22.34,5.39-4.16,11.42-5.13,17.66-2.05,4.75,2.33,7.82,6,7.78,11.68,0,4.77-2.8,8.39-7.57,8.9a84.18,84.18,0,0,1-9,.06Zm-.34-4.5v-.05c1.83,0,3.84.48,5.45-.12,2-.75,4.4-2,5.15-3.76.64-1.45-.31-4.19-1.43-5.73-2.84-3.91-11.72-3.91-15.21.17-1.67,1.95-2.13,4.93-3.13,7.45,2.22.68,4.44,1.42,6.69,2A9.77,9.77,0,0,0,269.68,975.82Z" transform="translate(-57.76 -16.54)" fill="#630"/><path d="M550.19,982.81c.21,4.32.67,8.64.5,13-.05,1.44-1.69,2.83-2.6,4.24-1.49-1.23-4-2.27-4.24-3.74-.56-2.85.31-5.94.25-8.93-.16-8.28-.47-16.56-.78-24.83-.12-3.44,1.89-3.52,4.57-3.47,4.05.06,8.22.21,12.12-.67,8.5-1.91,17.66,3.23,18.08,12.73.37,8.47.72,16.95.8,25.43,0,1.14-1.92,3.36-2.52,3.22-1.69-.39-3.85-1.42-4.53-2.82-.77-1.6-.05-3.89-.14-5.87-.3-7.24-.14-14.55-1.19-21.69-.79-5.38-4-6.39-11.81-5.42-4.73.58-8.18,4-8.3,8.36-.1,3.5,0,7,0,10.5Z" transform="translate(-57.76 -16.54)" fill="#630"/><path d="M142.64,593c.06,2.12.12,5.23-4.37,5.66a1.53,1.53,0,0,0-.92.35c-5.63,5.7-11.31,11.36-16.79,17.2-.9,1-1.65,3-1.25,4.1,1.35,3.78-.58,5.68-3.15,7.86-3.37,2.85-4.47,2.78-5.73-1.3-.54-1.75-.88-3.56-1.42-5.3-2.27-7.32-.45-11.47,6.83-14.37,3-1.18,4.76-2.76,4.9-6.09s1.62-5.88,5.14-7.18c2-.72,3.4-2.71,5.31-3.6a7.09,7.09,0,0,1,4.42-.24C137.64,590.64,139.52,591.71,142.64,593Z" transform="translate(-57.76 -16.54)" fill="#630"/><path d="M356.45,978.55c-1,7.44-1.07,13.65,6,17.22a2.75,2.75,0,0,1,1,2.49,4.22,4.22,0,0,1-2.46,2.07c-5,1.39-9.5-2-9.77-7.8-.31-6.46.27-13,0-19.42a10.19,10.19,0,0,0-2.7-6.2c-2-2-2.62-3.82-.29-5.26,3.74-2.31,3.77-5.57,3.27-9.12-.44-3.07.5-4.93,3.83-4.91,3.57,0,4.19,2.45,3.46,5.14-1.42,5.24.06,7.61,5.74,7.17.86-.07,1.87,1.72,2.81,2.65-1.06,1.06-2,2.92-3.2,3.06-6.67.78-7.71,1.73-7.71,8.34Z" transform="translate(-57.76 -16.54)" fill="#630"/><path d="M690.21,997c2-1.54,5.29-2.8,5.72-4.69.57-2.55-.5-5.92-1.9-8.34-1.51-2.63-4.35-4.46-6.35-6.86-5.1-6.15-4.11-12.39,2.72-16.65,2.37-1.48,5.07-3,7.72-3.24,1.85-.14,5,1.55,5.57,3.11,1.16,3.39-2,3.31-4.34,3.44-2.85.15-6.11-.78-7.44,3.24s-.1,6.64,2.9,9.17a42.64,42.64,0,0,1,5.79,6.07c5.72,7.2,1.81,16.76-7.46,18.38a7.72,7.72,0,0,1-3.44.25,40.93,40.93,0,0,1-5.28-2.59l4.4-3.17Z" transform="translate(-57.76 -16.54)" fill="#630"/><path d="M486.49,1000.85a7.44,7.44,0,0,1-2.71-.46c-.89-.44-1.48-1.51-2.2-2.3.81-.69,1.57-1.89,2.44-2,3.74-.36,7.83.5,9.27-4.67,1.48-5.34-2.54-7.79-5.34-10.92-1-1.11-2.15-2.06-3.2-3.11-7-6.9-2.12-13.19,3-17.09a21.11,21.11,0,0,1,7.24-3.26c2.93-.77,5.66.33,5.72,3.66,0,1-2.71,2.64-4.38,3-3,.58-6.46-.4-7.71,3.82-1.12,3.77.49,6.24,3.11,8.72a61.44,61.44,0,0,1,7.86,8.89,7.63,7.63,0,0,1,1,5.56C499.28,996.12,492.74,1000.82,486.49,1000.85Z" transform="translate(-57.76 -16.54)" fill="#630"/><path d="M226.08,962.49c4.51-1.36,7.77-2.88,11.15-3.21s4.6,2.19,4.15,5.37c-.37,2.6-1.9,3.9-4,1.85-2.4-2.35-3.88-1.25-5.89.35-4.13,3.29-6.86,7-6.15,12.7a154.94,154.94,0,0,1,1.12,15.82c0,1.5-.91,4-2,4.35-2.65,1-5.09-.12-5.22-3.42-.14-3.48.27-7,.18-10.47-.2-7.69-.62-15.38-.8-23.08,0-1,.6-2.6,1.28-2.81a5.81,5.81,0,0,1,4.11.2A6.51,6.51,0,0,1,226.08,962.49Z" transform="translate(-57.76 -16.54)" fill="#630"/><path d="M806.61,981.21c-.38-6.11-.84-12.22-1.06-18.33,0-1.08,1-2.19,1.48-3.29,1,.46,2.41.66,2.82,1.42,2.1,3.93,4.4,2,7,.7a19.31,19.31,0,0,1,7.19-2.41c1.26-.08,3.12,1.76,3.81,3.17.43.87-.49,3.25-1.43,3.73s-2.86-.24-4.33-.47c-1-.16-2.61-.88-3-.45-3.78,3.79-8.72,7.09-8.07,13.43.55,5.4,1.43,10.77,2.35,16.12.39,2.26,1.11,4.52-2,5.07-2.88.52-5.55,0-5.65-3.72-.13-5,0-10,0-14.95Z" transform="translate(-57.76 -16.54)" fill="#630"/><path d="M304.74,511c-8,9.9-16.88,11.44-25.36,4,5.19-2.37,2.25-12.1,11.5-11.13C296.57,504.42,302.45,503.42,304.74,511Z" transform="translate(-57.76 -16.54)" fill="#630"/><path d="M518.33,980.76c-.33-5.62-.88-11.24-.85-16.86,0-1.58,1.48-4.18,2.76-4.51,2.73-.72,4.84.85,4.78,4.09-.08,4.66-.4,9.32-.34,14,.07,6,.32,11.94.69,17.9.15,2.5-.19,4.33-3.12,4.56s-4.83-.88-4.82-4.17c0-5,0-10,0-15Z" transform="translate(-57.76 -16.54)" fill="#630"/><path d="M918.83,756.21a8.31,8.31,0,0,1-7.79-8.09c0-4.82,3.3-8.28,8-8.32a8.33,8.33,0,0,1,8.25,8.16C927.23,751.79,922.66,756.27,918.83,756.21Z" transform="translate(-57.76 -16.54)" fill="#630"/><path d="M606.51,982c-3.67-.22-6.23,0-8.58-.63-1.44-.36-2.58-1.94-3.86-3,1.24-.86,2.41-2.33,3.73-2.47a45.24,45.24,0,0,1,9.87,0c1.49.17,2.85,1.54,4.28,2.37a50.49,50.49,0,0,1-4.22,3.55C607.15,982.29,606.12,982,606.51,982Z" transform="translate(-57.76 -16.54)" fill="#630"/><path d="M725.5,1002.32c-2.5-2.94-4.72-4.4-5.12-6.26-.75-3.46,2.33-4.92,5-4.53,1.82.27,4.45,2.51,4.65,4.13S727.77,999.16,725.5,1002.32Z" transform="translate(-57.76 -16.54)" fill="#630"/><path d="M527.91,945.36c-3.2,2.18-5.09,4-7.32,4.65-.72.21-3.62-3.22-3.28-4.16a8.28,8.28,0,0,1,4.63-4.57C523.06,940.93,525,943.29,527.91,945.36Z" transform="translate(-57.76 -16.54)" fill="#630"/><path d="M146.61,602.33l-1.68,5.48c-.78-.38-2.26-.86-2.22-1.12a44.23,44.23,0,0,1,1.27-5.26Z" transform="translate(-57.76 -16.54)" fill="#630"/></svg>