<svg id="acfaaa0b-1dff-4b41-af9d-29fd83ab83a9" data-name="Layer 1" xmlns="http://www.w3.org/2000/svg" viewBox="0 0 58.75 58"><circle id="fc2ea645-a643-482e-9999-839706ce1967" data-name="back" cx="29" cy="29" r="29"/><g id="be25d85f-99f9-4468-8de9-050d70d59f4c" data-name="initial"><path d="M488.65,539.28l.19-.72a27,27,0,0,0,4-.65c-.26.76-.55,1.74-.86,3l-1.21,4.54,1.48.08a4.85,4.85,0,0,0,2.25-.52,5.9,5.9,0,0,0,3.13-5,3.14,3.14,0,0,0-1.17-2.58,5.57,5.57,0,0,0-3.56-1,11.47,11.47,0,0,0-5.36,1.36,10.71,10.71,0,0,0-4.05,3.48,7.51,7.51,0,0,0-1.43,4.18,3.91,3.91,0,0,0,.38,1.77,4.2,4.2,0,0,0,1.32,1.47c.52.39.79.77.79,1.13a.79.79,0,0,1-.26.6.89.89,0,0,1-.62.24c-.63,0-1.25-.44-1.84-1.31a5.68,5.68,0,0,1-.89-3.3,9.57,9.57,0,0,1,2.8-6.67,12.81,12.81,0,0,1,9.86-4,10.29,10.29,0,0,1,3.86.62,4.92,4.92,0,0,1,2.26,1.67,3.93,3.93,0,0,1,.75,2.31,5.37,5.37,0,0,1-1.06,3.1,7.45,7.45,0,0,1-3.09,2.46,10.93,10.93,0,0,1-4.56.93c-.25,0-.65,0-1.2-.05l-1.3,5c-.21.85-.45,1.68-.72,2.51a9.64,9.64,0,0,0,2.19.3,8,8,0,0,0,2.52-.45l-.19.91a8.66,8.66,0,0,1-2.12.33c-.56,0-1.38-.06-2.45-.17a17.1,17.1,0,0,0-2.09-.16,14.38,14.38,0,0,0-3.21.37l.2-.86a4.88,4.88,0,0,0,2.28-.79,5.59,5.59,0,0,0,1.42-2.91l2.43-9.66a4.54,4.54,0,0,0,.16-1,.63.63,0,0,0-.21-.46.7.7,0,0,0-.5-.2Z" transform="translate(-441.71 -510.64)" fill="#fff"/><path d="M475.61,538.36l-2.17,8.56a9.94,9.94,0,0,0,1.24.11,8.1,8.1,0,0,0,1.75-.24l-.16.79a8.76,8.76,0,0,1-1.67.22c-.42,0-1,0-1.86-.11a16.14,16.14,0,0,0-1.78-.11,14,14,0,0,0-3,.37l.24-.91a6.7,6.7,0,0,0,2.3-.88,4.6,4.6,0,0,0,1.24-2.43l2.26-9a15.31,15.31,0,0,0,.42-2,.5.5,0,0,0-.21-.44,1.47,1.47,0,0,0-.79-.13l.21-.77a17,17,0,0,0,3.88-.59c-.13.4-.29,1-.5,1.8l-1.21,4.75a6.42,6.42,0,0,0,1.31.16,4.76,4.76,0,0,0,3.45-1.41,4.5,4.5,0,0,0,1.43-3.34,3.08,3.08,0,0,0-1.15-2.47,4.72,4.72,0,0,0-3.13-1,10.89,10.89,0,0,0-4.94,1.22,9.28,9.28,0,0,0-3.62,3,6.78,6.78,0,0,0-1.21,3.79,3.33,3.33,0,0,0,1.24,2.58,4.5,4.5,0,0,1,.78.78,1,1,0,0,1,.14.51.79.79,0,0,1-.25.59.82.82,0,0,1-.61.25,1.9,1.9,0,0,1-1.55-1,5.77,5.77,0,0,1-.87-3.25,8.35,8.35,0,0,1,1.37-4.62,10.16,10.16,0,0,1,4.14-3.55,12.93,12.93,0,0,1,5.86-1.4,9.26,9.26,0,0,1,4.72,1.08,3.47,3.47,0,0,1,1.86,3.19,5.19,5.19,0,0,1-1.7,3.69,8.22,8.22,0,0,1-4.68,2.19c.5,1,.81,1.65.95,2,.23.58.57,1.56,1,2.93a20.85,20.85,0,0,0,3.37,6.81,3.73,3.73,0,0,0,2.78,1.44,1.87,1.87,0,0,0,2-1.39,2.85,2.85,0,0,1,.49-1.09.94.94,0,0,1,.69-.29.86.86,0,0,1,.65.27.93.93,0,0,1,.27.66,2.51,2.51,0,0,1-1.1,1.9,4.25,4.25,0,0,1-2.82.91,6.32,6.32,0,0,1-3-.76,8.92,8.92,0,0,1-2.77-2.47,17.73,17.73,0,0,1-2.35-4.14c-.33-.8-.82-2.28-1.46-4.43-.39-1.31-.63-2.09-.72-2.35l-.4,0Z" transform="translate(-441.71 -510.64)" fill="#fff"/><path d="M456,539.17l-1.23-16.83a43.07,43.07,0,0,1-1.5,7.93,20.19,20.19,0,0,1-2.49,5.69,9,9,0,0,1-2.84,2.82,5.89,5.89,0,0,1-2.88.81,2.12,2.12,0,0,1-1.32-.35,1,1,0,0,1-.46-.85.94.94,0,0,1,.34-.73,1.18,1.18,0,0,1,.85-.32,5.23,5.23,0,0,1,1.08.17,4.33,4.33,0,0,0,1.06.16,2.74,2.74,0,0,0,1.53-.54,8.53,8.53,0,0,0,2.38-2.92,24,24,0,0,0,2.11-5.85,42.25,42.25,0,0,0,1.17-7.33A9,9,0,0,0,448,522.8a4,4,0,0,0-1.76,3.14,3.21,3.21,0,0,0,.83,1.84,1.74,1.74,0,0,1,.45.94.94.94,0,0,1-.26.67.82.82,0,0,1-.61.27,1.3,1.3,0,0,1-1.07-.69,3.74,3.74,0,0,1-.64-2.19,5.72,5.72,0,0,1,1.19-3.41,7.43,7.43,0,0,1,3.32-2.49,13.57,13.57,0,0,1,5-.86,8.49,8.49,0,0,0,2.45-.29c0,.94,0,1.45,0,1.52a5.06,5.06,0,0,0,0,.64l.91,11.9a74,74,0,0,1,7.38-10.85,18.29,18.29,0,0,1,4.46-4.08q-1.08,3-2.32,7.83l-1.92,7.5q-.15.62-.42,1.83l-.38,1.67a9.36,9.36,0,0,0,2.17.28,8.21,8.21,0,0,0,1.71-.19l-.21.91a8,8,0,0,1-1.23.14,18.34,18.34,0,0,1-1.85-.14,12.9,12.9,0,0,0-1.75-.13,6.42,6.42,0,0,0-1.84.32,55.47,55.47,0,0,0,1.8-6l1.21-4.78A23.91,23.91,0,0,1,466,523.8a61.81,61.81,0,0,0-3.87,5.22q-2.1,3.08-4.71,7.76Z" transform="translate(-441.71 -510.64)" fill="#fff"/></g><path id="e6649518-12f3-47b5-bd32-f93180a2f618" data-name="fix" d="M485.11,550a12.26,12.26,0,0,1-.94-1.44,11.71,11.71,0,0,1-.7-1.49.5.5,0,0,0-.61-.34.5.5,0,0,0-.35.61,13.19,13.19,0,0,0,1.73,3.17.52.52,0,0,0,.69.17A.51.51,0,0,0,485.11,550Z" transform="translate(-441.71 -510.64)"/></svg>