<svg id="a014e201-501d-4015-a746-ef2c3800e44d" data-name="Layer 1" xmlns="http://www.w3.org/2000/svg" viewBox="0 0 192.32 58"><circle id="acd596b2-023f-4fc1-9b09-29285e09cd30" data-name="back" cx="29" cy="29" r="29"/><g id="af899046-a02c-4575-b179-0afe457bc571" data-name="initial"><path d="M488.65,539.28l.19-.72a27,27,0,0,0,4-.65c-.26.76-.55,1.74-.86,3l-1.21,4.54,1.48.08a4.85,4.85,0,0,0,2.25-.52,5.9,5.9,0,0,0,3.13-5,3.14,3.14,0,0,0-1.17-2.58,5.57,5.57,0,0,0-3.56-1,11.47,11.47,0,0,0-5.36,1.36,10.71,10.71,0,0,0-4.05,3.48,7.51,7.51,0,0,0-1.43,4.18,3.91,3.91,0,0,0,.38,1.77,4.2,4.2,0,0,0,1.32,1.47c.52.39.79.77.79,1.13a.79.79,0,0,1-.26.6.89.89,0,0,1-.62.24c-.63,0-1.25-.44-1.84-1.31a5.68,5.68,0,0,1-.89-3.3,9.57,9.57,0,0,1,2.8-6.67,12.81,12.81,0,0,1,9.86-4,10.29,10.29,0,0,1,3.86.62,4.92,4.92,0,0,1,2.26,1.67,3.93,3.93,0,0,1,.75,2.31,5.37,5.37,0,0,1-1.06,3.1,7.45,7.45,0,0,1-3.09,2.46,10.93,10.93,0,0,1-4.56.93c-.25,0-.65,0-1.2-.05l-1.3,5c-.21.85-.45,1.68-.72,2.51a9.64,9.64,0,0,0,2.19.3,8,8,0,0,0,2.52-.45l-.19.91a8.66,8.66,0,0,1-2.12.33c-.56,0-1.38-.06-2.45-.17a17.1,17.1,0,0,0-2.09-.16,14.38,14.38,0,0,0-3.21.37l.2-.86a4.88,4.88,0,0,0,2.28-.79,5.59,5.59,0,0,0,1.42-2.91l2.43-9.66a4.54,4.54,0,0,0,.16-1,.63.63,0,0,0-.21-.46.7.7,0,0,0-.5-.2Z" transform="translate(-441.71 -510.64)" fill="#fff"/><path d="M475.61,538.36l-2.17,8.56a9.94,9.94,0,0,0,1.24.11,8.1,8.1,0,0,0,1.75-.24l-.16.79a8.76,8.76,0,0,1-1.67.22c-.42,0-1,0-1.86-.11a16.14,16.14,0,0,0-1.78-.11,14,14,0,0,0-3,.37l.24-.91a6.7,6.7,0,0,0,2.3-.88,4.6,4.6,0,0,0,1.24-2.43l2.26-9a15.31,15.31,0,0,0,.42-2,.5.5,0,0,0-.21-.44,1.47,1.47,0,0,0-.79-.13l.21-.77a17,17,0,0,0,3.88-.59c-.13.4-.29,1-.5,1.8l-1.21,4.75a6.42,6.42,0,0,0,1.31.16,4.76,4.76,0,0,0,3.45-1.41,4.5,4.5,0,0,0,1.43-3.34,3.08,3.08,0,0,0-1.15-2.47,4.72,4.72,0,0,0-3.13-1,10.89,10.89,0,0,0-4.94,1.22,9.28,9.28,0,0,0-3.62,3,6.78,6.78,0,0,0-1.21,3.79,3.33,3.33,0,0,0,1.24,2.58,4.5,4.5,0,0,1,.78.78,1,1,0,0,1,.14.51.79.79,0,0,1-.25.59.82.82,0,0,1-.61.25,1.9,1.9,0,0,1-1.55-1,5.77,5.77,0,0,1-.87-3.25,8.35,8.35,0,0,1,1.37-4.62,10.16,10.16,0,0,1,4.14-3.55,12.93,12.93,0,0,1,5.86-1.4,9.26,9.26,0,0,1,4.72,1.08,3.47,3.47,0,0,1,1.86,3.19,5.19,5.19,0,0,1-1.7,3.69,8.22,8.22,0,0,1-4.68,2.19c.5,1,.81,1.65.95,2,.23.58.57,1.56,1,2.93a20.85,20.85,0,0,0,3.37,6.81,3.73,3.73,0,0,0,2.78,1.44,1.87,1.87,0,0,0,2-1.39,2.85,2.85,0,0,1,.49-1.09.94.94,0,0,1,.69-.29.86.86,0,0,1,.65.27.93.93,0,0,1,.27.66,2.51,2.51,0,0,1-1.1,1.9,4.25,4.25,0,0,1-2.82.91,6.32,6.32,0,0,1-3-.76,8.92,8.92,0,0,1-2.77-2.47,17.73,17.73,0,0,1-2.35-4.14c-.33-.8-.82-2.28-1.46-4.43-.39-1.31-.63-2.09-.72-2.35l-.4,0Z" transform="translate(-441.71 -510.64)" fill="#fff"/><path d="M456,539.17l-1.23-16.83a43.07,43.07,0,0,1-1.5,7.93,20.19,20.19,0,0,1-2.49,5.69,9,9,0,0,1-2.84,2.82,5.89,5.89,0,0,1-2.88.81,2.12,2.12,0,0,1-1.32-.35,1,1,0,0,1-.46-.85.94.94,0,0,1,.34-.73,1.18,1.18,0,0,1,.85-.32,5.23,5.23,0,0,1,1.08.17,4.33,4.33,0,0,0,1.06.16,2.74,2.74,0,0,0,1.53-.54,8.53,8.53,0,0,0,2.38-2.92,24,24,0,0,0,2.11-5.85,42.25,42.25,0,0,0,1.17-7.33A9,9,0,0,0,448,522.8a4,4,0,0,0-1.76,3.14,3.21,3.21,0,0,0,.83,1.84,1.74,1.74,0,0,1,.45.94.94.94,0,0,1-.26.67.82.82,0,0,1-.61.27,1.3,1.3,0,0,1-1.07-.69,3.74,3.74,0,0,1-.64-2.19,5.72,5.72,0,0,1,1.19-3.41,7.43,7.43,0,0,1,3.32-2.49,13.57,13.57,0,0,1,5-.86,8.49,8.49,0,0,0,2.45-.29c0,.94,0,1.45,0,1.52a5.06,5.06,0,0,0,0,.64l.91,11.9a74,74,0,0,1,7.38-10.85,18.29,18.29,0,0,1,4.46-4.08q-1.08,3-2.32,7.83l-1.92,7.5q-.15.62-.42,1.83l-.38,1.67a9.36,9.36,0,0,0,2.17.28,8.21,8.21,0,0,0,1.71-.19l-.21.91a8,8,0,0,1-1.23.14,18.34,18.34,0,0,1-1.85-.14,12.9,12.9,0,0,0-1.75-.13,6.42,6.42,0,0,0-1.84.32,55.47,55.47,0,0,0,1.8-6l1.21-4.78A23.91,23.91,0,0,1,466,523.8a61.81,61.81,0,0,0-3.87,5.22q-2.1,3.08-4.71,7.76Z" transform="translate(-441.71 -510.64)" fill="#fff"/></g><path id="bd852a8a-6b28-4e4a-be2b-f8fb96864042" data-name="fix" d="M485.11,550a12.26,12.26,0,0,1-.94-1.44,11.71,11.71,0,0,1-.7-1.49.5.5,0,0,0-.61-.34.5.5,0,0,0-.35.61,13.19,13.19,0,0,0,1.73,3.17.52.52,0,0,0,.69.17A.51.51,0,0,0,485.11,550Z" transform="translate(-441.71 -510.64)"/><g id="b6e91263-ab03-4c99-98b6-168f0eb6fb34" data-name="sig"><path d="M627.48,528.25a5.39,5.39,0,0,0,3.31-3h.66a2,2,0,0,1,.11.64c0,.41,0,.73,0,1l0,.69s0,.13,0,.27l.27,0,1.1-.05.88,0a2.3,2.3,0,0,1,.07.55,3.19,3.19,0,0,1-.08.63,3.24,3.24,0,0,1-.59.07l-.37,0H632l-.56,0,0,4.47a9.66,9.66,0,0,0,.06,1.63,1.51,1.51,0,0,0,.27.61,1.32,1.32,0,0,0,.6.13,1.37,1.37,0,0,0,.47-.06,2.51,2.51,0,0,0,.51-.34l.23-.16a2.7,2.7,0,0,1,.45.44l0,.14a2.86,2.86,0,0,1-1.15,1,3.64,3.64,0,0,1-1.59.37,2.37,2.37,0,0,1-1.77-.69,2.94,2.94,0,0,1-.68-2.15l0-2.06V529l-.36,0-.84,0-.15-.06a.32.32,0,0,1-.07-.2S627.46,528.55,627.48,528.25Z" transform="translate(-441.71 -510.64)"/><path d="M618.24,536.55a1,1,0,0,1,.4-.2,3.51,3.51,0,0,0,1.14-.46,9.11,9.11,0,0,0,.1-1.9c0-2,0-3.31-.12-4a.54.54,0,0,0-.19-.33,3.69,3.69,0,0,0-.8-.27.34.34,0,0,1-.28-.26l0-.43a3.66,3.66,0,0,0,1.57-.59,4.17,4.17,0,0,0,1.05-1,3.41,3.41,0,0,1,.33-.41l.82,0a2.15,2.15,0,0,1,.06.44c0,.09,0,.2,0,.32s0,.5,0,.68,0,.41,0,1a12.12,12.12,0,0,1,.7-1.1,7.63,7.63,0,0,1,.62-.57,1.48,1.48,0,0,1,.9-.3,1.49,1.49,0,0,1,1.08.43,1.3,1.3,0,0,1,.46,1,1.55,1.55,0,0,1-.35,1,1.12,1.12,0,0,1-.92.44,1.75,1.75,0,0,1-1-.42.94.94,0,0,0-.53-.26h-.08a.86.86,0,0,0-.45.44,2.46,2.46,0,0,0-.33,1.22l0,.31c0,.58,0,1.93.07,4.06a1.39,1.39,0,0,0,.22.58,1.2,1.2,0,0,0,.43.23,3.38,3.38,0,0,0,.75.12,1.4,1.4,0,0,1,.66.15.42.42,0,0,1,.12.33,1.46,1.46,0,0,1-.07.34h-1.1l-2.24-.1a14.39,14.39,0,0,0-1.54.07h-.2l-1.22.06a2.16,2.16,0,0,1,0-.29A1.78,1.78,0,0,1,618.24,536.55Z" transform="translate(-441.71 -510.64)"/><path d="M607.79,530.92a6,6,0,0,1,.54-1.33,6.18,6.18,0,0,1,1.4-1.5,4.43,4.43,0,0,1,1.35-.71,4.71,4.71,0,0,1,1.25-.23,7.76,7.76,0,0,1,1.78.17,3.73,3.73,0,0,1,1.14.49,5.15,5.15,0,0,1,1,.92,3.69,3.69,0,0,1,.65,1.11,4.49,4.49,0,0,1,.28,1.53l-1.3,0c-.36,0-1.15,0-2.37-.11l-.94,0-1.26,0h-1a1.47,1.47,0,0,0,0,.28,6.13,6.13,0,0,0,.15,1.31,4,4,0,0,0,.46,1.21,3.27,3.27,0,0,0,.75.9,3,3,0,0,0,.93.54l.68.22a9.89,9.89,0,0,0,1.21,0,5.8,5.8,0,0,0,1-.3,5.71,5.71,0,0,0,1-.62c.28.2.51.39.7.55a6.75,6.75,0,0,1-2.14,1.65,5.85,5.85,0,0,1-2.48.51,5.71,5.71,0,0,1-1.51-.17,4.69,4.69,0,0,1-1.42-.64,4.47,4.47,0,0,1-1.09-1.08,5.08,5.08,0,0,1-.68-1.33,5,5,0,0,1-.29-1.43A10.25,10.25,0,0,1,607.79,530.92Zm6.81-.5a3.37,3.37,0,0,0-.25-1.26,2,2,0,0,0-.77-.93,1.84,1.84,0,0,0-1-.34,1.9,1.9,0,0,0-1.42.69,3,3,0,0,0-.71,1.88l2.67,0,.73,0,.48,0Z" transform="translate(-441.71 -510.64)"/><path d="M593.82,536.4c.12,0,.47-.08,1-.14a.8.8,0,0,0,.47-.16,1.81,1.81,0,0,0,.12-.84v-.83l0-.88v-1.78l0-.2,0-4.25V527a19.28,19.28,0,0,0-.11-2.7.79.79,0,0,0-.34-.48,3.93,3.93,0,0,0-1.23-.32v-.25a3.47,3.47,0,0,1,0-.43l1-.21a4.17,4.17,0,0,1,.56-.14,9.17,9.17,0,0,0,1.66-.59l.32-.18.64,0,0,7a8.27,8.27,0,0,1,1.94-1.2,4.91,4.91,0,0,1,1.82-.35,3.67,3.67,0,0,1,1.57.32,2.8,2.8,0,0,1,1,.8,3,3,0,0,1,.51,1.15,9.44,9.44,0,0,1,.11,1.76v2.4L605,536a.33.33,0,0,0,.11.14,4.49,4.49,0,0,0,.69.16,4.19,4.19,0,0,1,.49.11.7.7,0,0,1,.1.27l0,.1a3.18,3.18,0,0,0,0,.38l-.27,0-.69-.05q-1-.09-1.65-.09c-.29,0-.68,0-1.16,0l-1.32,0a.59.59,0,0,1-.23,0v-.28l0-.15a.84.84,0,0,1,.06-.26,2.16,2.16,0,0,1,.62-.17c.24,0,.47,0,.68-.09a2.09,2.09,0,0,0,0-.28l.06-1.71v-2.87a6.62,6.62,0,0,0-.14-1.73,1.38,1.38,0,0,0-.58-.74,2,2,0,0,0-1.08-.28,3.24,3.24,0,0,0-1.44.34,4.73,4.73,0,0,0-1.19.82v2c0,1.12,0,2,0,2.53,0,.34,0,.55,0,.63a4.08,4.08,0,0,0,.1,1.12.49.49,0,0,0,.26.25,7,7,0,0,0,.72,0,2.35,2.35,0,0,1,.46.06c0,.19,0,.32,0,.4a2.08,2.08,0,0,1,0,.39l-1.3,0c-.5,0-.94,0-1.33,0l-1.65.08h-1.15a2.39,2.39,0,0,1-.24-.59Z" transform="translate(-441.71 -510.64)"/><path d="M591.82,534.08l.28.14a1.41,1.41,0,0,1,.43.29,3.66,3.66,0,0,1-1.53,2,5.23,5.23,0,0,1-3.08.86,5.77,5.77,0,0,1-2.32-.5,4.67,4.67,0,0,1-1.83-1.3,4,4,0,0,1-.79-1.52,5.49,5.49,0,0,1-.27-1.54,5.39,5.39,0,0,1,.33-1.72,5.29,5.29,0,0,1,1.1-1.83,5.64,5.64,0,0,1,2-1.36,6.82,6.82,0,0,1,2.66-.5,4.69,4.69,0,0,1,2.82.63,1.75,1.75,0,0,1,.8,1.27,1.44,1.44,0,0,1-.32,1,1.14,1.14,0,0,1-.89.36,1.4,1.4,0,0,1-.88-.32,2.33,2.33,0,0,1-.68-1.07,1.69,1.69,0,0,0-.54-.78,1.27,1.27,0,0,0-.78-.24,2.62,2.62,0,0,0-2,.95,3.64,3.64,0,0,0-.87,2.57,4.46,4.46,0,0,0,1.06,3.11,3.2,3.2,0,0,0,2.41,1.15,3.75,3.75,0,0,0,1.14-.15,3.81,3.81,0,0,0,.8-.46,4.91,4.91,0,0,0,.48-.5C591.57,534.36,591.73,534.17,591.82,534.08Z" transform="translate(-441.71 -510.64)"/><path d="M576.16,537.14l0-.76,1.32-.18a.68.68,0,0,0,.41-.24,1.47,1.47,0,0,0,.11-.71v-.13c0-.09,0-.26,0-.51s0-.46,0-.65,0-.43,0-.85l0-.59,0-.55,0-1.91a4,4,0,0,0-.07-.75.91.91,0,0,0-.47-.3,4.53,4.53,0,0,0-1.19-.19v-.66a5.55,5.55,0,0,0,2.12-.5,5.05,5.05,0,0,0,1.35-1h.78c0,1,.05,2.23.05,3.78l-.08,4.78a8.2,8.2,0,0,0,0,.89,8.82,8.82,0,0,0,1.19.26,3,3,0,0,1,.5.11l0,.65h-.47l-.54,0c-.79,0-1.86-.06-3.19-.06-.38,0-.75,0-1.11,0Zm1.64-14a1.42,1.42,0,0,1,.41-1,1.46,1.46,0,0,1,1.06-.4,1.65,1.65,0,0,1,1.15.42,1.32,1.32,0,0,1,.45,1,1.94,1.94,0,0,1-.18.8,1.46,1.46,0,0,1-.57.64,1.52,1.52,0,0,1-.81.24,1.42,1.42,0,0,1-1-.48A1.58,1.58,0,0,1,577.8,523.16Z" transform="translate(-441.71 -510.64)"/><path d="M559.78,536.41a2.74,2.74,0,0,1,.91-.24,4.8,4.8,0,0,0,1.07-.25,1.83,1.83,0,0,0,.07-.34,10.71,10.71,0,0,0,0-1.12v-2.62l0-1.4,0-1.09,0-.64c0-.85,0-1.65,0-2.39,0-1.62,0-2.66-.06-3.11l-.69-.15a10.79,10.79,0,0,1-1.27-.11l0-.71.05-.12A6.09,6.09,0,0,1,561,522h1.09l.92.07.62,0,1.46-.07c.92-.09,1.88-.14,2.9-.14a5.64,5.64,0,0,1,3.82,1.23,3.66,3.66,0,0,1,1.42,2.81,3.42,3.42,0,0,1-.77,2.15,4.61,4.61,0,0,1-2.35,1.45,6.62,6.62,0,0,0,.37.58c.33.47.59.87.8,1.19l1.86,3a10,10,0,0,0,.92,1.41,2.8,2.8,0,0,0,.9.45,4.34,4.34,0,0,1,.81.4,1,1,0,0,1,.07.35c0,.07,0,.16,0,.27h-.55l-.61-.08h-.48a6,6,0,0,0-.93-.06H572.1l-.82.08-.5.06-.4-.77c-.33-.59-.56-1-.69-1.31-.35-.76-.94-2-1.77-3.62a4.86,4.86,0,0,0-.82-1.31,2.27,2.27,0,0,0-1.21-.24l-.8,0q0,.35,0,.81l.06,2.6-.08,2.2a2.54,2.54,0,0,0,.86.31,9.4,9.4,0,0,1,1.57.44,4.79,4.79,0,0,1-.05.87h-.28l-.48,0c-1.68-.14-2.67-.22-3-.22h-.43l-1.62.11c-.49,0-.94.08-1.34.08h-.51c0-.19,0-.32,0-.37A3.15,3.15,0,0,1,559.78,536.41Zm5.28-7.58c.37,0,.65,0,.82,0a4.31,4.31,0,0,0,2.82-.71,2.37,2.37,0,0,0,.83-1.91,4.81,4.81,0,0,0-.2-1.39,2.57,2.57,0,0,0-.51-1,2.84,2.84,0,0,0-1.13-.69A5.58,5.58,0,0,0,566,523a7.82,7.82,0,0,0-.92,0l0,.23,0,1.58,0,1v1.28c0,.36,0,.82,0,1.39Z" transform="translate(-441.71 -510.64)"/><path d="M542.38,530.92a6,6,0,0,1,.54-1.33,6.18,6.18,0,0,1,1.4-1.5,4.51,4.51,0,0,1,1.34-.71,4.84,4.84,0,0,1,1.26-.23,7.76,7.76,0,0,1,1.78.17,3.73,3.73,0,0,1,1.14.49,5.75,5.75,0,0,1,1,.92,3.91,3.91,0,0,1,.65,1.11,4.49,4.49,0,0,1,.28,1.53l-1.3,0c-.36,0-1.15,0-2.37-.11l-.94,0-1.26,0h-1a1.58,1.58,0,0,0,0,.28,5.58,5.58,0,0,0,.16,1.31,4.22,4.22,0,0,0,.45,1.21,3.49,3.49,0,0,0,.76.9,3,3,0,0,0,.93.54l.68.22a10,10,0,0,0,1.21,0,5.8,5.8,0,0,0,1-.3,5.69,5.69,0,0,0,1-.62c.29.2.52.39.71.55a6.75,6.75,0,0,1-2.14,1.65,5.88,5.88,0,0,1-2.48.51,5.66,5.66,0,0,1-1.51-.17,4.58,4.58,0,0,1-1.42-.64,4.47,4.47,0,0,1-1.09-1.08,5.08,5.08,0,0,1-.68-1.33,5,5,0,0,1-.29-1.43A9.41,9.41,0,0,1,542.38,530.92Zm6.81-.5a3.38,3.38,0,0,0-.26-1.26,1.89,1.89,0,0,0-.76-.93,1.84,1.84,0,0,0-1-.34,1.9,1.9,0,0,0-1.42.69,3,3,0,0,0-.71,1.88l2.67,0,.72,0,.49,0Z" transform="translate(-441.71 -510.64)"/><path d="M539,528.6a4.68,4.68,0,0,1,1.12,1.67,5,5,0,0,1,.37,1.77,5.53,5.53,0,0,1-.49,2.53,4.79,4.79,0,0,1-2,2.15,5.74,5.74,0,0,1-2.86.69,5.66,5.66,0,0,1-3.1-.82,5,5,0,0,1-1.82-1.87,5.55,5.55,0,0,1-.54-2.59,5.1,5.1,0,0,1,.25-1.57,4.73,4.73,0,0,1,.71-1.38,4.83,4.83,0,0,1,1-1,5.39,5.39,0,0,1,1.58-.81,6.7,6.7,0,0,1,1.92-.24A5,5,0,0,1,539,528.6Zm-6.41,4c.07,1,.12,1.52.15,1.67a4.12,4.12,0,0,0,.48,1.35,1.85,1.85,0,0,0,.74.65,2.49,2.49,0,0,0,1.23.28,2,2,0,0,0,1.44-.55,3.2,3.2,0,0,0,.84-1.7,13.21,13.21,0,0,0,.17-2.5,4.92,4.92,0,0,0-.71-3,2.21,2.21,0,0,0-1.85-.89,2.24,2.24,0,0,0-1.49.5,2.75,2.75,0,0,0-.83,1.49A15.43,15.43,0,0,0,532.54,532.65Z" transform="translate(-441.71 -510.64)"/><path d="M507.27,537.13l0-.8a3.36,3.36,0,0,0,1.87-.6,3.08,3.08,0,0,0,.39-1.46l.16-4.17.17-4.25c0-.25,0-.41,0-.47a4.84,4.84,0,0,0-.2-1.91,3.1,3.1,0,0,0-1.5-.5l-.52-.12c0-.19,0-.36,0-.49V522a10.2,10.2,0,0,1,1,0l3.42.12.33,0,.54,0a3.33,3.33,0,0,1,.4.62c.29.57.67,1.41,1.15,2.51l.13.31,1.82,4c0,.09.11.23.19.41l.38.79.39.84c.15.3.27.57.39.81a5.11,5.11,0,0,0,.31-.62c.32-.72.62-1.38.92-2q.76-1.59,2.1-4.87.21-.52.69-1.59c.33-.71.5-1.08.54-1.12a.68.68,0,0,1,.42-.09h.36c.41,0,.89,0,1.46-.06.82,0,1.48,0,2-.08l.83-.06a1.47,1.47,0,0,1,.28,0c0,.11,0,.19,0,.26l0,.35c0,.07,0,.17,0,.32a6.12,6.12,0,0,0-1.79.49c-.32.15-.48.35-.48.58v.18l.2,3.59c0,.32.09,1.95.19,4.88,0,.66.07,1.49.15,2.5a1.89,1.89,0,0,1,0,.29q0,.29.12.36a17.63,17.63,0,0,0,2.1.68c0,.13,0,.22,0,.29s0,.32,0,.49c-.21,0-.74-.05-1.59-.14a22.75,22.75,0,0,0-2.39-.13c-1.14,0-2.24,0-3.31.14-.14,0-.27,0-.41,0l0-.81a6.36,6.36,0,0,1,1.27-.31,1,1,0,0,0,.72-.32,2.92,2.92,0,0,0,.15-1.24c0-.26,0-.48,0-.68,0-.82-.06-2-.07-3.42l-.2-4.14c0-.58,0-1-.08-1.22l-2.92,6.71-.32.68q-.27.57-.36.78c-.6,1.45-1,2.55-1.25,3.32-.07.19-.16.45-.29.76h-.9l-.63-1.8c-.19-.46-.51-1.18-1-2.13-.27-.55-.47-1-.62-1.35l-.15-.31-.15-.3a.2.2,0,0,0,0-.11L512,527.44,511,525.15l-.1,5.54-.08,3.6a1.93,1.93,0,0,0,.33,1.27,2.92,2.92,0,0,0,1.44.65l.56.14v.86c-.45,0-.94,0-1.46-.1a18.68,18.68,0,0,0-2.06-.09Z" transform="translate(-441.71 -510.64)"/></g><g id="e1a00283-1c97-4de1-be2c-80354fc6609b" data-name="text"><path d="M595.7,559.79a.87.87,0,0,0,.29.23,1.24,1.24,0,0,0,.41.05,2.69,2.69,0,0,0,1-.23,2.52,2.52,0,0,0,.82-.48,6.16,6.16,0,0,0,1.16-1.09,3.66,3.66,0,0,0,.61-1,6.89,6.89,0,0,0,.37-1.6,13.6,13.6,0,0,0,.12-1.66c0-.27,0-.77,0-1.49a4.34,4.34,0,0,0-.12-1,.8.8,0,0,0-.21-.39.28.28,0,0,0-.18-.06.42.42,0,0,0-.32.15,4,4,0,0,0-.54,1.28H599a.41.41,0,0,1-.19-.08,9.76,9.76,0,0,1,.39-1.28,3,3,0,0,1,.42-.69,1.11,1.11,0,0,1,.36-.24h.19c.31,0,.55.19.73.59a5.35,5.35,0,0,1,.38,2.21c0,.42,0,.95-.09,1.57a11.22,11.22,0,0,1-.2,1.39c-.08.42-.13.68-.14.78l.08-.12a14.34,14.34,0,0,0,.86-1.44,6.52,6.52,0,0,0,.51-1.23,10.33,10.33,0,0,0,.37-1.48,6.07,6.07,0,0,0,.07-1v-.34c0-.12,0-.2,0-.22a.94.94,0,0,1,.15-.58.31.31,0,0,1,.27-.11.38.38,0,0,1,.3.11.5.5,0,0,1,.1.36,10.08,10.08,0,0,1-.44,1.87,15.59,15.59,0,0,1-1.26,3.18,15.22,15.22,0,0,1-2.28,3,5.93,5.93,0,0,1-1.81,1.3,4.27,4.27,0,0,1-1.64.41,2.41,2.41,0,0,1-1.28-.24c-.23-.16-.34-.32-.34-.48a.38.38,0,0,1,.39-.38,1.18,1.18,0,0,1,.46.11A2.71,2.71,0,0,1,595.7,559.79Z" transform="translate(-441.71 -510.64)"/><path d="M594.75,546.46l0-.16c.89-.1,1.42-.15,1.61-.15h.24l0,.14-.2.53-.46,1.3q-.1.3-.3.93a20.66,20.66,0,0,1-.74,2.08c-.25.62-.5,1.29-.72,2,.08-.11.19-.25.31-.44a10.91,10.91,0,0,1,1.87-2.16,1.67,1.67,0,0,1,1-.39.86.86,0,0,1,.68.34,1.56,1.56,0,0,1,.29,1,6.21,6.21,0,0,1-.45,2.1,6.8,6.8,0,0,1-1,2,3.51,3.51,0,0,1-1,1,1.72,1.72,0,0,1-.78.22.59.59,0,0,1-.46-.16.71.71,0,0,1-.24-.5.28.28,0,0,1,.13-.22.49.49,0,0,1,.33-.11.36.36,0,0,1,.24.07,1.31,1.31,0,0,1,.29.35.35.35,0,0,0,.22.13c.1,0,.23-.12.41-.34a10.32,10.32,0,0,0,1.13-2.55,7.78,7.78,0,0,0,.51-2.26,1,1,0,0,0-.12-.57.37.37,0,0,0-.32-.15.53.53,0,0,0-.25.07,3.43,3.43,0,0,0-.92.73,19.9,19.9,0,0,0-1.56,2,12.8,12.8,0,0,0-.77,1.5q-.52,1.17-.72,1.65a.87.87,0,0,1-.19.31.43.43,0,0,1-.24.06.38.38,0,0,1-.24-.06.21.21,0,0,1-.07-.18,1.34,1.34,0,0,1,.12-.43l.55-1.4a1.67,1.67,0,0,0,.08-.2l2.17-6.31.31-.91a1.82,1.82,0,0,0,.12-.47.22.22,0,0,0,0-.15.3.3,0,0,0-.18-.07A3.57,3.57,0,0,1,594.75,546.46Z" transform="translate(-441.71 -510.64)"/><path d="M582.64,560.32a5.3,5.3,0,0,1,.76-.12l.35,0,.23,0a.55.55,0,0,0,.16-.1,2.6,2.6,0,0,0,.21-.42l.77-2c.11-.26.21-.56.31-.88l.21-.59a2.36,2.36,0,0,0,.13-.38,2.16,2.16,0,0,1,.08-.26l.72-2c0-.08.23-.65.59-1.72.11-.32.21-.64.3-1a7.89,7.89,0,0,0-1,.22l-.24.07a1.67,1.67,0,0,1-.36.12.53.53,0,0,1-.2-.06V551a.22.22,0,0,1,.12-.19,7.28,7.28,0,0,1,1.81-.55c.25-.65.4-1.09.46-1.32a1.56,1.56,0,0,1,.26-.65l.2,0,.33,0a.37.37,0,0,1,.13.22l0,.11-.1.36a3.91,3.91,0,0,1-.15.45c-.13.35-.22.58-.26.7l.46,0h.41a2.07,2.07,0,0,1,.87.22,2.1,2.1,0,0,1,.92.84,2.53,2.53,0,0,1,.28,1.22,3.32,3.32,0,0,1-.2,1.12,5.09,5.09,0,0,1-.61,1.21,4.53,4.53,0,0,1-1,1,3.49,3.49,0,0,1-.94.56,5.14,5.14,0,0,1-1.23.32,2.41,2.41,0,0,1-.49-.06,3.33,3.33,0,0,1-.59-.19c-.21.43-.55,1.33-1,2.71a5.89,5.89,0,0,1-.23.62.94.94,0,0,0-.08.31v.07l.08.07a3.08,3.08,0,0,0,.5.08,3.67,3.67,0,0,1,.52.05l.1.06,0,.12s0,0,0,.09l-.47,0h-.37l-1.44-.06a3.12,3.12,0,0,0-.6.05l-.47,0h-.28v0A.54.54,0,0,1,582.64,560.32Zm6.5-4.85a5,5,0,0,0,1-1.63,4.17,4.17,0,0,0,.31-1.46,3.21,3.21,0,0,0-.11-.8.84.84,0,0,0-.22-.39,1.39,1.39,0,0,0-.47-.35,2.39,2.39,0,0,0-1-.17l-.42,0c-.35,1.07-.63,1.9-.86,2.5l-.65,1.86a2.51,2.51,0,0,0-.1.44.85.85,0,0,0,0,.23.47.47,0,0,0,.15.39,1,1,0,0,0,.65.18,1.71,1.71,0,0,0,.71-.15A6.17,6.17,0,0,0,589.14,555.47Z" transform="translate(-441.71 -510.64)"/><path d="M584.57,550.89a.93.93,0,0,0,.1-.21.73.73,0,0,1,.19-.3l.32,0a.58.58,0,0,1,.26.06l0,.09a.33.33,0,0,1,0,.14l-.1.3-.06.15-.52,1.4c-.21.63-.41,1.13-.57,1.51a10.58,10.58,0,0,0-.43,1.14,5.19,5.19,0,0,1-.32.84l0,.07s0,.07.09.12a2.74,2.74,0,0,0,.55-.42c.39-.39.62-.63.7-.73l.15-.18.16.16a7.89,7.89,0,0,1-.7.83,4.06,4.06,0,0,1-.89.74,1.24,1.24,0,0,1-.58.16.4.4,0,0,1-.26-.07.24.24,0,0,1-.08-.2,2,2,0,0,1,.07-.41c.13-.34.23-.57.28-.67s.12-.28.21-.51.16-.39.32-.74a5.28,5.28,0,0,0-.38.44,11.77,11.77,0,0,1-1.49,1.51,5.67,5.67,0,0,1-.93.52,2.41,2.41,0,0,1-.65.13.88.88,0,0,1-.41-.06.76.76,0,0,1-.32-.32,1.11,1.11,0,0,1-.09-.51,3.29,3.29,0,0,1,.23-1.11,5.65,5.65,0,0,1,.77-1.53,7.68,7.68,0,0,1,1.33-1.38,5.33,5.33,0,0,1,1.21-.74,3.29,3.29,0,0,1,1.26-.31,1.87,1.87,0,0,1,.34,0A1.49,1.49,0,0,1,584.57,550.89ZM580.76,556a1.51,1.51,0,0,0,.34-.14c.06,0,.26-.17.62-.43.66-.64,1-1,1.12-1.1a7,7,0,0,0,.63-.83,7.82,7.82,0,0,0,.41-.74l.21-.54c.07-.32.11-.5.11-.54a.58.58,0,0,0-.19-.42.54.54,0,0,0-.39-.12,1.27,1.27,0,0,0-.54.11,3.53,3.53,0,0,0-.92.59,6.6,6.6,0,0,0-1.09,1.26,7.1,7.1,0,0,0-.74,1.29,3,3,0,0,0-.3,1.06.67.67,0,0,0,.12.43.41.41,0,0,0,.31.14Z" transform="translate(-441.71 -510.64)"/><path d="M576.29,550.81a3.29,3.29,0,0,0-.48.44s-.28.36-.71.94h-.32a5.18,5.18,0,0,1,.72-1,4.08,4.08,0,0,1,.92-.84,1.22,1.22,0,0,1,.56-.17.41.41,0,0,1,.27.15.33.33,0,0,1,.08.22,1.09,1.09,0,0,1,0,.26c-.06.29-.17.69-.34,1.23s-.33,1-.46,1.25l-.41,1,0,.15.45-.84a15.53,15.53,0,0,1,1.83-3,1.35,1.35,0,0,1,1-.4.86.86,0,0,1,.59.25.69.69,0,0,1,.2.51.91.91,0,0,1-.23.62.54.54,0,0,1-.44.18.45.45,0,0,1-.34-.11A1,1,0,0,1,579,551c-.07-.13-.15-.2-.23-.2a.42.42,0,0,0-.27.13,11.41,11.41,0,0,0-1.41,2.15,21.17,21.17,0,0,0-1.31,2.52,5.94,5.94,0,0,1-.42,1,.35.35,0,0,1-.32.13.47.47,0,0,1-.3-.07.23.23,0,0,1-.09-.19,1.07,1.07,0,0,1,.08-.36c.22-.55.58-1.56,1.08-3l.55-1.68c0-.15.06-.24.07-.28l.05-.12S576.4,550.89,576.29,550.81Z" transform="translate(-441.71 -510.64)"/><path d="M570,556.93a5.22,5.22,0,0,1-.76-.7.27.27,0,0,1-.06-.17.28.28,0,0,1,.08-.21,1.14,1.14,0,0,1,.4-.23,6.31,6.31,0,0,0,1-.6c-.06-.07-.18-.21-.37-.41l-.25-.27a2.32,2.32,0,0,1-.18-.46,2.36,2.36,0,0,1-.07-.58,3.14,3.14,0,0,1,.14-.91,4.42,4.42,0,0,1,.52-1.09,3.4,3.4,0,0,1,.63-.7,2,2,0,0,1,.53-.28,2.72,2.72,0,0,1,.82-.17,1.77,1.77,0,0,1,.8.19,1.25,1.25,0,0,0,.59.13l.32,0,.26,0,.18,0a3,3,0,0,1,0,.33.29.29,0,0,1-.06.17h-.18a2.21,2.21,0,0,1-.55-.1l-.26-.07a2.6,2.6,0,0,1,.22,1.05A3.38,3.38,0,0,1,573,554a3.05,3.05,0,0,1-1.8,1.21,2.06,2.06,0,0,0-.87.36.3.3,0,0,0-.12.25c0,.17.13.37.4.58l.93.44a5.74,5.74,0,0,1,1.8,1,1.34,1.34,0,0,1,.47,1.08,1.15,1.15,0,0,1-.19.65,1.75,1.75,0,0,1-.61.55,3.16,3.16,0,0,1-.92.32,5.86,5.86,0,0,1-1.22.14,8.07,8.07,0,0,1-1.54-.1A5.42,5.42,0,0,1,568,560a2.18,2.18,0,0,1-.78-.65.76.76,0,0,1-.16-.46.73.73,0,0,1,.32-.6A16.63,16.63,0,0,1,570,556.93Zm-1.83,2.5a2.59,2.59,0,0,0,1.16.58l.24.07.47.08.84,0a4,4,0,0,0,1.34-.23,2,2,0,0,0,.83-.47.58.58,0,0,0,.13-.4,1.14,1.14,0,0,0-.5-.86,5.78,5.78,0,0,0-1.52-.75c-.34-.14-.63-.25-.84-.35a9.31,9.31,0,0,0-1.36.63,3.31,3.31,0,0,0-.68.45,1.53,1.53,0,0,0-.25.26.75.75,0,0,0-.1.38A.78.78,0,0,0,568.16,559.43Zm3-4.61a1.36,1.36,0,0,0,.69-.3,2.52,2.52,0,0,0,.44-.62,5.76,5.76,0,0,0,.46-.95,5,5,0,0,0,.35-1.6.92.92,0,0,0-.21-.65.69.69,0,0,0-.53-.23,1,1,0,0,0-.66.29,4.28,4.28,0,0,0-.77,1.43,5.27,5.27,0,0,0-.45,1.77.88.88,0,0,0,.2.57A.74.74,0,0,0,571.15,554.82Z" transform="translate(-441.71 -510.64)"/><path d="M568.84,552.11a5.11,5.11,0,0,1-1.1,3.22,3,3,0,0,1-2.28,1.4,1.24,1.24,0,0,1-1-.47,2.3,2.3,0,0,1-.39-1.48,4.82,4.82,0,0,1,.31-1.57,4.65,4.65,0,0,1,.78-1.47,3.27,3.27,0,0,0,.25-.32,3.85,3.85,0,0,1,1-.9,2.09,2.09,0,0,1,1.16-.37,1.13,1.13,0,0,1,.92.46A2.35,2.35,0,0,1,568.84,552.11Zm-4.06,3.55a.73.73,0,0,0,.17.54.74.74,0,0,0,.54.17,1.1,1.1,0,0,0,.74-.36,6.88,6.88,0,0,0,1.34-2.26,7.09,7.09,0,0,0,.68-2.52.76.76,0,0,0-.17-.52.47.47,0,0,0-.37-.19,1.39,1.39,0,0,0-1,.53,7.68,7.68,0,0,0-1.47,2.5A6.08,6.08,0,0,0,564.78,555.66Z" transform="translate(-441.71 -510.64)"/><path d="M562.23,550.87h-.7l-.51,0h-.1a1.07,1.07,0,0,1,.14-.4q1.14,0,1.35-.06c.1-.25.19-.45.26-.6.15-.34.31-.74.47-1.2.06-.15.11-.29.17-.42l.4,0a1.37,1.37,0,0,1,.36,0l0,.12a12.24,12.24,0,0,1-.69,1.72,2.32,2.32,0,0,0-.13.37l.26,0H564l.75,0a.87.87,0,0,1-.1.42q-.3,0-.81,0h-.31a1.61,1.61,0,0,0-.46.08l-1.27,3c-.14.29-.38.85-.73,1.68a.25.25,0,0,0,.05.11h.1a.93.93,0,0,0,.52-.26,8.86,8.86,0,0,0,1.28-1.37,1,1,0,0,1,.23.16,15.88,15.88,0,0,1-1.08,1.25,5.58,5.58,0,0,1-.79.62,6.81,6.81,0,0,1-.58.37,1.15,1.15,0,0,1-.36.07.43.43,0,0,1-.28-.08.32.32,0,0,1-.09-.24,3.67,3.67,0,0,1,.37-1.06l.33-.72,1.15-2.78Z" transform="translate(-441.71 -510.64)"/><path d="M556.68,550.81a4,4,0,0,0-.49.44l-.71.94h-.32a4.91,4.91,0,0,1,.73-1,3.88,3.88,0,0,1,.92-.84,1.15,1.15,0,0,1,.56-.17.44.44,0,0,1,.27.15.32.32,0,0,1,.07.22,1.09,1.09,0,0,1,0,.26c-.06.29-.17.69-.34,1.23a11.36,11.36,0,0,1-.46,1.25l-.4,1,0,.15q.12-.2.45-.84a15.38,15.38,0,0,1,1.84-3,1.31,1.31,0,0,1,1-.4.84.84,0,0,1,.59.25.66.66,0,0,1,.2.51.91.91,0,0,1-.22.62.58.58,0,0,1-.45.18.46.46,0,0,1-.34-.11,1.26,1.26,0,0,1-.12-.57c-.07-.13-.14-.2-.23-.2a.38.38,0,0,0-.26.13,11.78,11.78,0,0,0-1.42,2.15,20.61,20.61,0,0,0-1.3,2.52,6.72,6.72,0,0,1-.43,1c-.05.09-.16.13-.32.13a.44.44,0,0,1-.29-.07.23.23,0,0,1-.09-.19,1,1,0,0,1,.07-.36c.23-.55.59-1.56,1.08-3l.55-1.68a2.36,2.36,0,0,1,.08-.28l0-.12S556.78,550.89,556.68,550.81Z" transform="translate(-441.71 -510.64)"/><path d="M553.57,550.89a.93.93,0,0,0,.1-.21.73.73,0,0,1,.19-.3l.32,0a.58.58,0,0,1,.26.06l0,.09a.33.33,0,0,1,0,.14l-.1.3-.06.15-.52,1.4c-.21.63-.41,1.13-.57,1.51a10.58,10.58,0,0,0-.43,1.14,5.19,5.19,0,0,1-.32.84l0,.07s0,.07.09.12a2.74,2.74,0,0,0,.55-.42c.39-.39.62-.63.7-.73l.15-.18.16.16a7.89,7.89,0,0,1-.7.83,4.06,4.06,0,0,1-.89.74,1.24,1.24,0,0,1-.58.16.4.4,0,0,1-.26-.07.24.24,0,0,1-.08-.2,2,2,0,0,1,.07-.41c.13-.34.23-.57.28-.67s.12-.28.21-.51.16-.39.32-.74a5.28,5.28,0,0,0-.38.44,11.77,11.77,0,0,1-1.49,1.51,5.67,5.67,0,0,1-.93.52,2.41,2.41,0,0,1-.65.13.88.88,0,0,1-.41-.06.76.76,0,0,1-.32-.32,1.11,1.11,0,0,1-.09-.51,3.29,3.29,0,0,1,.23-1.11,5.65,5.65,0,0,1,.77-1.53,7.68,7.68,0,0,1,1.33-1.38,5.33,5.33,0,0,1,1.21-.74,3.29,3.29,0,0,1,1.26-.31,1.87,1.87,0,0,1,.34,0A1.49,1.49,0,0,1,553.57,550.89ZM549.76,556a1.51,1.51,0,0,0,.34-.14c.06,0,.26-.17.62-.43.66-.64,1-1,1.12-1.1a7,7,0,0,0,.63-.83,7.82,7.82,0,0,0,.41-.74l.21-.54c.07-.32.11-.5.11-.54a.58.58,0,0,0-.19-.42.54.54,0,0,0-.39-.12,1.27,1.27,0,0,0-.54.11,3.53,3.53,0,0,0-.92.59,6.6,6.6,0,0,0-1.09,1.26,7.1,7.1,0,0,0-.74,1.29,3,3,0,0,0-.3,1.06.67.67,0,0,0,.12.43.41.41,0,0,0,.31.14Z" transform="translate(-441.71 -510.64)"/><path d="M548.77,546.36c0,.18-.08.47-.17.86s-.17.68-.23.88h-.23v-.21a1.89,1.89,0,0,0-.18-1,1,1,0,0,0-.78-.21h-.94a4.29,4.29,0,0,0-1.24.21,8.2,8.2,0,0,0-1.65.81,11.43,11.43,0,0,0-1.33,1.11,13,13,0,0,0-1.18,1.52l-.26.47-.34.85a4.88,4.88,0,0,0-.17.79,5.11,5.11,0,0,0-.05.78,4.51,4.51,0,0,0,.11,1,1.86,1.86,0,0,0,.32.72,4.45,4.45,0,0,0,.88.86,3.69,3.69,0,0,0,1.07.53,4.91,4.91,0,0,0,1.4.18,3.34,3.34,0,0,0,1.35-.23,2.9,2.9,0,0,0,.93-.67,11.35,11.35,0,0,0,.75-1.1l.26.08-.42,1.33c-.08.23-.13.39-.18.5a5.3,5.3,0,0,1-1,.27,12.78,12.78,0,0,1-2,.17,6.64,6.64,0,0,1-2.2-.28,4.37,4.37,0,0,1-1.51-.95,3,3,0,0,1-.8-1.23,4.11,4.11,0,0,1-.27-1.39,4.31,4.31,0,0,1,.29-1.65,7.84,7.84,0,0,1,1.44-2.28,8.45,8.45,0,0,1,1.91-1.5,11.82,11.82,0,0,1,1.85-.89,6.12,6.12,0,0,1,2.19-.41l1.37,0A3.74,3.74,0,0,1,548.77,546.36Z" transform="translate(-441.71 -510.64)"/></g></svg>